<svg width="1214" height="2573" viewBox="0 0 1214 2573" fill="none" xmlns="http://www.w3.org/2000/svg">
<g id="vistacuerpoanterior_completo">
<g id="cabezaant">
<path fill-rule="evenodd" clip-rule="evenodd" d="M574.358 1.64883C549.262 7.50702 531.404 17.0111 517.22 32.0574C504.223 45.8441 494.37 65.3101 489.818 86.1917C487.92 94.895 487.576 100.228 487.155 127.419L486.671 158.65L484.141 156.66C480.639 153.906 476.736 154.132 473.807 157.257C471.447 159.775 471.385 160.257 471.46 175.501C471.549 193.497 473.504 203.636 479.305 216.191C485.976 230.63 492.525 237.242 497.512 234.574C498.811 233.879 500.053 233.498 500.273 233.728C500.493 233.958 502.742 241.24 505.27 249.91C510.404 267.511 514.262 275.924 523.249 289.114C530.317 299.488 547.283 317.495 556.806 324.731C565.1 331.032 581.261 338.938 590.354 341.142C599.304 343.31 617.14 343.337 625.081 341.194C646.47 335.421 668.437 318.664 686.48 294.356C696.687 280.606 702.717 268.471 709.211 248.621C713.461 235.628 714.661 232.932 715.86 233.69C725.363 239.7 738.937 215.736 742.901 185.95C744.415 174.577 743.732 163.027 741.304 158.916C738.693 154.499 734.892 153.064 731.052 155.05L728.08 156.587L727.45 151.99C727.104 149.462 726.82 138.796 726.819 128.289C726.818 104.467 725.511 90.2954 722.287 79.1718C713.1 47.4686 698.923 28.0247 675.763 15.3566C667.133 10.636 653.947 5.41966 643.727 2.68251C636.236 0.67613 632.522 0.402214 608.849 0.109305C585.74 -0.176606 581.334 0.0203327 574.358 1.64883ZM574.358 1.64883C549.262 7.50702 531.404 17.0111 517.22 32.0574C504.223 45.8441 494.37 65.3101 489.818 86.1917C487.92 94.895 487.576 100.228 487.155 127.419L486.671 158.65L484.141 156.66C480.639 153.906 476.736 154.132 473.807 157.257C471.447 159.775 471.385 160.257 471.46 175.501C471.549 193.497 473.504 203.636 479.305 216.191C485.976 230.63 492.525 237.242 497.512 234.574C498.811 233.879 500.053 233.498 500.273 233.728C500.493 233.958 502.742 241.24 505.27 249.91C510.404 267.511 514.262 275.924 523.249 289.114M574.358 1.64883C549.262 7.50702 531.404 17.0111 517.22 32.0574C504.223 45.8441 494.37 65.3101 489.818 86.1917C487.92 94.895 487.576 100.228 487.155 127.419L486.671 158.65L484.141 156.66C480.639 153.906 476.736 154.132 473.807 157.257C471.447 159.775 471.385 160.257 471.46 175.501C471.549 193.497 473.504 203.636 479.305 216.191C485.976 230.63 492.525 237.242 497.512 234.574C498.811 233.879 500.053 233.498 500.273 233.728C500.493 233.958 502.742 241.24 505.27 249.91C510.404 267.511 514.262 275.924 523.249 289.114C530.317 299.488 547.283 317.495 556.806 324.731M574.358 1.64883C549.262 7.50702 531.404 17.0111 517.22 32.0574C504.223 45.8441 494.37 65.3101 489.818 86.1917C487.92 94.895 487.576 100.228 487.155 127.419L486.671 158.65L484.141 156.66C480.639 153.906 476.736 154.132 473.807 157.257C471.447 159.775 471.385 160.257 471.46 175.501C471.549 193.497 473.504 203.636 479.305 216.191C485.976 230.63 492.525 237.242 497.512 234.574C498.811 233.879 500.053 233.498 500.273 233.728C500.493 233.958 502.742 241.24 505.27 249.91C510.404 267.511 514.262 275.924 523.249 289.114C530.317 299.488 547.283 317.495 556.806 324.731C565.1 331.032 581.261 338.938 590.354 341.142C599.304 343.31 617.14 343.337 625.081 341.194C646.47 335.421 668.437 318.664 686.48 294.356C696.687 280.606 702.717 268.471 709.211 248.621M574.358 1.64883C549.262 7.50702 531.404 17.0111 517.22 32.0574C504.223 45.8441 494.37 65.3101 489.818 86.1917C487.92 94.895 487.576 100.228 487.155 127.419L486.671 158.65L484.141 156.66C480.639 153.906 476.736 154.132 473.807 157.257C471.447 159.775 471.385 160.257 471.46 175.501C471.549 193.497 473.504 203.636 479.305 216.191C485.976 230.63 492.525 237.242 497.512 234.574C498.811 233.879 500.053 233.498 500.273 233.728M574.358 1.64883C549.262 7.50702 531.404 17.0111 517.22 32.0574C504.223 45.8441 494.37 65.3101 489.818 86.1917C487.92 94.895 487.576 100.228 487.155 127.419L486.671 158.65L484.141 156.66C480.639 153.906 476.736 154.132 473.807 157.257C471.447 159.775 471.385 160.257 471.46 175.501C471.549 193.497 473.504 203.636 479.305 216.191M574.358 1.64883C549.262 7.50702 531.404 17.0111 517.22 32.0574C504.223 45.8441 494.37 65.3101 489.818 86.1917C487.92 94.895 487.576 100.228 487.155 127.419L486.671 158.65L484.141 156.66C480.639 153.906 476.736 154.132 473.807 157.257C471.447 159.775 471.385 160.257 471.46 175.501C471.549 193.497 473.504 203.636 479.305 216.191C485.976 230.63 492.525 237.242 497.512 234.574C498.811 233.879 500.053 233.498 500.273 233.728C500.493 233.958 502.742 241.24 505.27 249.91C510.404 267.511 514.262 275.924 523.249 289.114C530.317 299.488 547.283 317.495 556.806 324.731C565.1 331.032 581.261 338.938 590.354 341.142C599.304 343.31 617.14 343.337 625.081 341.194C646.47 335.421 668.437 318.664 686.48 294.356C696.687 280.606 702.717 268.471 709.211 248.621C713.461 235.628 714.661 232.932 715.86 233.69C725.363 239.7 738.937 215.736 742.901 185.95C744.415 174.577 743.732 163.027 741.304 158.916M574.358 1.64883C549.262 7.50702 531.404 17.0111 517.22 32.0574C504.223 45.8441 494.37 65.3101 489.818 86.1917C487.92 94.895 487.576 100.228 487.155 127.419L486.671 158.65L484.141 156.66C480.639 153.906 476.736 154.132 473.807 157.257C471.447 159.775 471.385 160.257 471.46 175.501C471.549 193.497 473.504 203.636 479.305 216.191C485.976 230.63 492.525 237.242 497.512 234.574C498.811 233.879 500.053 233.498 500.273 233.728C500.493 233.958 502.742 241.24 505.27 249.91C510.404 267.511 514.262 275.924 523.249 289.114C530.317 299.488 547.283 317.495 556.806 324.731C565.1 331.032 581.261 338.938 590.354 341.142C599.304 343.31 617.14 343.337 625.081 341.194C646.47 335.421 668.437 318.664 686.48 294.356C696.687 280.606 702.717 268.471 709.211 248.621C713.461 235.628 714.661 232.932 715.86 233.69C725.363 239.7 738.937 215.736 742.901 185.95M574.358 1.64883C549.262 7.50702 531.404 17.0111 517.22 32.0574C504.223 45.8441 494.37 65.3101 489.818 86.1917C487.92 94.895 487.576 100.228 487.155 127.419L486.671 158.65L484.141 156.66C480.639 153.906 476.736 154.132 473.807 157.257C471.447 159.775 471.385 160.257 471.46 175.501C471.549 193.497 473.504 203.636 479.305 216.191C485.976 230.63 492.525 237.242 497.512 234.574C498.811 233.879 500.053 233.498 500.273 233.728C500.493 233.958 502.742 241.24 505.27 249.91C510.404 267.511 514.262 275.924 523.249 289.114C530.317 299.488 547.283 317.495 556.806 324.731C565.1 331.032 581.261 338.938 590.354 341.142C599.304 343.31 617.14 343.337 625.081 341.194C646.47 335.421 668.437 318.664 686.48 294.356C696.687 280.606 702.717 268.471 709.211 248.621C713.461 235.628 714.661 232.932 715.86 233.69M574.358 1.64883C549.262 7.50702 531.404 17.0111 517.22 32.0574C504.223 45.8441 494.37 65.3101 489.818 86.1917C487.92 94.895 487.576 100.228 487.155 127.419L486.671 158.65L484.141 156.66C480.639 153.906 476.736 154.132 473.807 157.257C471.447 159.775 471.385 160.257 471.46 175.501C471.549 193.497 473.504 203.636 479.305 216.191C485.976 230.63 492.525 237.242 497.512 234.574C498.811 233.879 500.053 233.498 500.273 233.728C500.493 233.958 502.742 241.24 505.27 249.91C510.404 267.511 514.262 275.924 523.249 289.114C530.317 299.488 547.283 317.495 556.806 324.731C565.1 331.032 581.261 338.938 590.354 341.142C599.304 343.31 617.14 343.337 625.081 341.194C646.47 335.421 668.437 318.664 686.48 294.356C696.687 280.606 702.717 268.471 709.211 248.621M574.358 1.64883C549.262 7.50702 531.404 17.0111 517.22 32.0574C504.223 45.8441 494.37 65.3101 489.818 86.1917C487.92 94.895 487.576 100.228 487.155 127.419L486.671 158.65L484.141 156.66C480.639 153.906 476.736 154.132 473.807 157.257C471.447 159.775 471.385 160.257 471.46 175.501C471.549 193.497 473.504 203.636 479.305 216.191C485.976 230.63 492.525 237.242 497.512 234.574C498.811 233.879 500.053 233.498 500.273 233.728C500.493 233.958 502.742 241.24 505.27 249.91C510.404 267.511 514.262 275.924 523.249 289.114M574.358 1.64883C549.262 7.50702 531.404 17.0111 517.22 32.0574C504.223 45.8441 494.37 65.3101 489.818 86.1917C487.92 94.895 487.576 100.228 487.155 127.419L486.671 158.65L484.141 156.66C480.639 153.906 476.736 154.132 473.807 157.257C471.447 159.775 471.385 160.257 471.46 175.501C471.549 193.497 473.504 203.636 479.305 216.191C485.976 230.63 492.525 237.242 497.512 234.574C498.811 233.879 500.053 233.498 500.273 233.728C500.493 233.958 502.742 241.24 505.27 249.91C510.404 267.511 514.262 275.924 523.249 289.114M574.358 1.64883C549.262 7.50702 531.404 17.0111 517.22 32.0574C504.223 45.8441 494.37 65.3101 489.818 86.1917C487.92 94.895 487.576 100.228 487.155 127.419L486.671 158.65L484.141 156.66C480.639 153.906 476.736 154.132 473.807 157.257C471.447 159.775 471.385 160.257 471.46 175.501C471.549 193.497 473.504 203.636 479.305 216.191C485.976 230.63 492.525 237.242 497.512 234.574C498.811 233.879 500.053 233.498 500.273 233.728C500.493 233.958 502.742 241.24 505.27 249.91M574.358 1.64883C549.262 7.50702 531.404 17.0111 517.22 32.0574C504.223 45.8441 494.37 65.3101 489.818 86.1917C487.92 94.895 487.576 100.228 487.155 127.419L486.671 158.65L484.141 156.66C480.639 153.906 476.736 154.132 473.807 157.257C471.447 159.775 471.385 160.257 471.46 175.501C471.549 193.497 473.504 203.636 479.305 216.191C485.976 230.63 492.525 237.242 497.512 234.574C498.811 233.879 500.053 233.498 500.273 233.728C500.493 233.958 502.742 241.24 505.27 249.91C510.404 267.511 514.262 275.924 523.249 289.114M574.358 1.64883C549.262 7.50702 531.404 17.0111 517.22 32.0574C504.223 45.8441 494.37 65.3101 489.818 86.1917C487.92 94.895 487.576 100.228 487.155 127.419L486.671 158.65L484.141 156.66C480.639 153.906 476.736 154.132 473.807 157.257C471.447 159.775 471.385 160.257 471.46 175.501C471.549 193.497 473.504 203.636 479.305 216.191C485.976 230.63 492.525 237.242 497.512 234.574C498.811 233.879 500.053 233.498 500.273 233.728C500.493 233.958 502.742 241.24 505.27 249.91M574.358 1.64883C549.262 7.50702 531.404 17.0111 517.22 32.0574C504.223 45.8441 494.37 65.3101 489.818 86.1917C487.92 94.895 487.576 100.228 487.155 127.419L486.671 158.65L484.141 156.66C480.639 153.906 476.736 154.132 473.807 157.257C471.447 159.775 471.385 160.257 471.46 175.501C471.549 193.497 473.504 203.636 479.305 216.191C485.976 230.63 492.525 237.242 497.512 234.574C498.811 233.879 500.053 233.498 500.273 233.728C500.493 233.958 502.742 241.24 505.27 249.91C510.404 267.511 514.262 275.924 523.249 289.114C530.317 299.488 547.283 317.495 556.806 324.731M574.358 1.64883C549.262 7.50702 531.404 17.0111 517.22 32.0574C504.223 45.8441 494.37 65.3101 489.818 86.1917C487.92 94.895 487.576 100.228 487.155 127.419L486.671 158.65L484.141 156.66C480.639 153.906 476.736 154.132 473.807 157.257C471.447 159.775 471.385 160.257 471.46 175.501C471.549 193.497 473.504 203.636 479.305 216.191C485.976 230.63 492.525 237.242 497.512 234.574C498.811 233.879 500.053 233.498 500.273 233.728C500.493 233.958 502.742 241.24 505.27 249.91C510.404 267.511 514.262 275.924 523.249 289.114C530.317 299.488 547.283 317.495 556.806 324.731M574.358 1.64883C549.262 7.50702 531.404 17.0111 517.22 32.0574C504.223 45.8441 494.37 65.3101 489.818 86.1917C487.92 94.895 487.576 100.228 487.155 127.419L486.671 158.65L484.141 156.66C480.639 153.906 476.736 154.132 473.807 157.257C471.447 159.775 471.385 160.257 471.46 175.501C471.549 193.497 473.504 203.636 479.305 216.191C485.976 230.63 492.525 237.242 497.512 234.574C498.811 233.879 500.053 233.498 500.273 233.728C500.493 233.958 502.742 241.24 505.27 249.91C510.404 267.511 514.262 275.924 523.249 289.114M574.358 1.64883C549.262 7.50702 531.404 17.0111 517.22 32.0574C504.223 45.8441 494.37 65.3101 489.818 86.1917C487.92 94.895 487.576 100.228 487.155 127.419L486.671 158.65L484.141 156.66C480.639 153.906 476.736 154.132 473.807 157.257C471.447 159.775 471.385 160.257 471.46 175.501C471.549 193.497 473.504 203.636 479.305 216.191C485.976 230.63 492.525 237.242 497.512 234.574C498.811 233.879 500.053 233.498 500.273 233.728C500.493 233.958 502.742 241.24 505.27 249.91C510.404 267.511 514.262 275.924 523.249 289.114C530.317 299.488 547.283 317.495 556.806 324.731C565.1 331.032 581.261 338.938 590.354 341.142C599.304 343.31 617.14 343.337 625.081 341.194C646.47 335.421 668.437 318.664 686.48 294.356M574.358 1.64883C549.262 7.50702 531.404 17.0111 517.22 32.0574C504.223 45.8441 494.37 65.3101 489.818 86.1917C487.92 94.895 487.576 100.228 487.155 127.419L486.671 158.65L484.141 156.66C480.639 153.906 476.736 154.132 473.807 157.257C471.447 159.775 471.385 160.257 471.46 175.501C471.549 193.497 473.504 203.636 479.305 216.191C485.976 230.63 492.525 237.242 497.512 234.574C498.811 233.879 500.053 233.498 500.273 233.728C500.493 233.958 502.742 241.24 505.27 249.91C510.404 267.511 514.262 275.924 523.249 289.114C530.317 299.488 547.283 317.495 556.806 324.731C565.1 331.032 581.261 338.938 590.354 341.142C599.304 343.31 617.14 343.337 625.081 341.194C646.47 335.421 668.437 318.664 686.48 294.356C696.687 280.606 702.717 268.471 709.211 248.621C713.461 235.628 714.661 232.932 715.86 233.69C725.363 239.7 738.937 215.736 742.901 185.95M574.358 1.64883C549.262 7.50702 531.404 17.0111 517.22 32.0574C504.223 45.8441 494.37 65.3101 489.818 86.1917C487.92 94.895 487.576 100.228 487.155 127.419L486.671 158.65L484.141 156.66C480.639 153.906 476.736 154.132 473.807 157.257C471.447 159.775 471.385 160.257 471.46 175.501C471.549 193.497 473.504 203.636 479.305 216.191C485.976 230.63 492.525 237.242 497.512 234.574C498.811 233.879 500.053 233.498 500.273 233.728M574.358 1.64883C549.262 7.50702 531.404 17.0111 517.22 32.0574C504.223 45.8441 494.37 65.3101 489.818 86.1917C487.92 94.895 487.576 100.228 487.155 127.419L486.671 158.65L484.141 156.66C480.639 153.906 476.736 154.132 473.807 157.257C471.447 159.775 471.385 160.257 471.46 175.501C471.549 193.497 473.504 203.636 479.305 216.191C485.976 230.63 492.525 237.242 497.512 234.574C498.811 233.879 500.053 233.498 500.273 233.728M574.358 1.64883C549.262 7.50702 531.404 17.0111 517.22 32.0574C504.223 45.8441 494.37 65.3101 489.818 86.1917C487.92 94.895 487.576 100.228 487.155 127.419L486.671 158.65L484.141 156.66C480.639 153.906 476.736 154.132 473.807 157.257C471.447 159.775 471.385 160.257 471.46 175.501C471.549 193.497 473.504 203.636 479.305 216.191C485.976 230.63 492.525 237.242 497.512 234.574C498.811 233.879 500.053 233.498 500.273 233.728C500.493 233.958 502.742 241.24 505.27 249.91M574.358 1.64883C549.262 7.50702 531.404 17.0111 517.22 32.0574C504.223 45.8441 494.37 65.3101 489.818 86.1917C487.92 94.895 487.576 100.228 487.155 127.419L486.671 158.65L484.141 156.66C480.639 153.906 476.736 154.132 473.807 157.257C471.447 159.775 471.385 160.257 471.46 175.501C471.549 193.497 473.504 203.636 479.305 216.191C485.976 230.63 492.525 237.242 497.512 234.574C498.811 233.879 500.053 233.498 500.273 233.728C500.493 233.958 502.742 241.24 505.27 249.91C510.404 267.511 514.262 275.924 523.249 289.114C530.317 299.488 547.283 317.495 556.806 324.731M574.358 1.64883C549.262 7.50702 531.404 17.0111 517.22 32.0574C504.223 45.8441 494.37 65.3101 489.818 86.1917C487.92 94.895 487.576 100.228 487.155 127.419L486.671 158.65L484.141 156.66C480.639 153.906 476.736 154.132 473.807 157.257C471.447 159.775 471.385 160.257 471.46 175.501C471.549 193.497 473.504 203.636 479.305 216.191C485.976 230.63 492.525 237.242 497.512 234.574C498.811 233.879 500.053 233.498 500.273 233.728M574.358 1.64883C549.262 7.50702 531.404 17.0111 517.22 32.0574C504.223 45.8441 494.37 65.3101 489.818 86.1917C487.92 94.895 487.576 100.228 487.155 127.419L486.671 158.65L484.141 156.66C480.639 153.906 476.736 154.132 473.807 157.257C471.447 159.775 471.385 160.257 471.46 175.501C471.549 193.497 473.504 203.636 479.305 216.191C485.976 230.63 492.525 237.242 497.512 234.574M574.358 1.64883C549.262 7.50702 531.404 17.0111 517.22 32.0574C504.223 45.8441 494.37 65.3101 489.818 86.1917C487.92 94.895 487.576 100.228 487.155 127.419L486.671 158.65L484.141 156.66C480.639 153.906 476.736 154.132 473.807 157.257C471.447 159.775 471.385 160.257 471.46 175.501C471.549 193.497 473.504 203.636 479.305 216.191C485.976 230.63 492.525 237.242 497.512 234.574C498.811 233.879 500.053 233.498 500.273 233.728C500.493 233.958 502.742 241.24 505.27 249.91C510.404 267.511 514.262 275.924 523.249 289.114C530.317 299.488 547.283 317.495 556.806 324.731M574.358 1.64883C549.262 7.50702 531.404 17.0111 517.22 32.0574C504.223 45.8441 494.37 65.3101 489.818 86.1917C487.92 94.895 487.576 100.228 487.155 127.419L486.671 158.65L484.141 156.66C480.639 153.906 476.736 154.132 473.807 157.257C471.447 159.775 471.385 160.257 471.46 175.501C471.549 193.497 473.504 203.636 479.305 216.191C485.976 230.63 492.525 237.242 497.512 234.574M574.358 1.64883C549.262 7.50702 531.404 17.0111 517.22 32.0574C504.223 45.8441 494.37 65.3101 489.818 86.1917C487.92 94.895 487.576 100.228 487.155 127.419L486.671 158.65L484.141 156.66C480.639 153.906 476.736 154.132 473.807 157.257C471.447 159.775 471.385 160.257 471.46 175.501C471.549 193.497 473.504 203.636 479.305 216.191C485.976 230.63 492.525 237.242 497.512 234.574C498.811 233.879 500.053 233.498 500.273 233.728C500.493 233.958 502.742 241.24 505.27 249.91C510.404 267.511 514.262 275.924 523.249 289.114C530.317 299.488 547.283 317.495 556.806 324.731C565.1 331.032 581.261 338.938 590.354 341.142C599.304 343.31 617.14 343.337 625.081 341.194M574.358 1.64883C549.262 7.50702 531.404 17.0111 517.22 32.0574C504.223 45.8441 494.37 65.3101 489.818 86.1917C487.92 94.895 487.576 100.228 487.155 127.419L486.671 158.65L484.141 156.66C480.639 153.906 476.736 154.132 473.807 157.257C471.447 159.775 471.385 160.257 471.46 175.501C471.549 193.497 473.504 203.636 479.305 216.191C485.976 230.63 492.525 237.242 497.512 234.574C498.811 233.879 500.053 233.498 500.273 233.728C500.493 233.958 502.742 241.24 505.27 249.91M574.358 1.64883C549.262 7.50702 531.404 17.0111 517.22 32.0574C504.223 45.8441 494.37 65.3101 489.818 86.1917C487.92 94.895 487.576 100.228 487.155 127.419L486.671 158.65L484.141 156.66C480.639 153.906 476.736 154.132 473.807 157.257C471.447 159.775 471.385 160.257 471.46 175.501C471.549 193.497 473.504 203.636 479.305 216.191C485.976 230.63 492.525 237.242 497.512 234.574C498.811 233.879 500.053 233.498 500.273 233.728M574.358 1.64883C549.262 7.50702 531.404 17.0111 517.22 32.0574C504.223 45.8441 494.37 65.3101 489.818 86.1917C487.92 94.895 487.576 100.228 487.155 127.419L486.671 158.65L484.141 156.66C480.639 153.906 476.736 154.132 473.807 157.257C471.447 159.775 471.385 160.257 471.46 175.501C471.549 193.497 473.504 203.636 479.305 216.191C485.976 230.63 492.525 237.242 497.512 234.574C498.811 233.879 500.053 233.498 500.273 233.728C500.493 233.958 502.742 241.24 505.27 249.91C510.404 267.511 514.262 275.924 523.249 289.114C530.317 299.488 547.283 317.495 556.806 324.731M574.358 1.64883C549.262 7.50702 531.404 17.0111 517.22 32.0574C504.223 45.8441 494.37 65.3101 489.818 86.1917C487.92 94.895 487.576 100.228 487.155 127.419L486.671 158.65L484.141 156.66C480.639 153.906 476.736 154.132 473.807 157.257C471.447 159.775 471.385 160.257 471.46 175.501C471.549 193.497 473.504 203.636 479.305 216.191C485.976 230.63 492.525 237.242 497.512 234.574C498.811 233.879 500.053 233.498 500.273 233.728C500.493 233.958 502.742 241.24 505.27 249.91C510.404 267.511 514.262 275.924 523.249 289.114C530.317 299.488 547.283 317.495 556.806 324.731C565.1 331.032 581.261 338.938 590.354 341.142M574.358 1.64883C549.262 7.50702 531.404 17.0111 517.22 32.0574C504.223 45.8441 494.37 65.3101 489.818 86.1917C487.92 94.895 487.576 100.228 487.155 127.419L486.671 158.65L484.141 156.66C480.639 153.906 476.736 154.132 473.807 157.257C471.447 159.775 471.385 160.257 471.46 175.501C471.549 193.497 473.504 203.636 479.305 216.191C485.976 230.63 492.525 237.242 497.512 234.574C498.811 233.879 500.053 233.498 500.273 233.728C500.493 233.958 502.742 241.24 505.27 249.91C510.404 267.511 514.262 275.924 523.249 289.114C530.317 299.488 547.283 317.495 556.806 324.731C565.1 331.032 581.261 338.938 590.354 341.142C599.304 343.31 617.14 343.337 625.081 341.194C646.47 335.421 668.437 318.664 686.48 294.356C696.687 280.606 702.717 268.471 709.211 248.621C713.461 235.628 714.661 232.932 715.86 233.69C725.363 239.7 738.937 215.736 742.901 185.95C744.415 174.577 743.732 163.027 741.304 158.916C738.693 154.499 734.892 153.064 731.052 155.05L728.08 156.587L727.45 151.99C727.104 149.462 726.82 138.796 726.819 128.289C726.818 104.467 725.511 90.2954 722.287 79.1718C713.1 47.4686 698.923 28.0247 675.763 15.3566M574.358 1.64883C549.262 7.50702 531.404 17.0111 517.22 32.0574C504.223 45.8441 494.37 65.3101 489.818 86.1917C487.92 94.895 487.576 100.228 487.155 127.419L486.671 158.65L484.141 156.66C480.639 153.906 476.736 154.132 473.807 157.257C471.447 159.775 471.385 160.257 471.46 175.501C471.549 193.497 473.504 203.636 479.305 216.191C485.976 230.63 492.525 237.242 497.512 234.574C498.811 233.879 500.053 233.498 500.273 233.728C500.493 233.958 502.742 241.24 505.27 249.91C510.404 267.511 514.262 275.924 523.249 289.114C530.317 299.488 547.283 317.495 556.806 324.731C565.1 331.032 581.261 338.938 590.354 341.142C599.304 343.31 617.14 343.337 625.081 341.194C646.47 335.421 668.437 318.664 686.48 294.356C696.687 280.606 702.717 268.471 709.211 248.621C713.461 235.628 714.661 232.932 715.86 233.69C725.363 239.7 738.937 215.736 742.901 185.95C744.415 174.577 743.732 163.027 741.304 158.916C738.693 154.499 734.892 153.064 731.052 155.05L728.08 156.587L727.45 151.99M574.358 1.64883C549.262 7.50702 531.404 17.0111 517.22 32.0574C504.223 45.8441 494.37 65.3101 489.818 86.1917C487.92 94.895 487.576 100.228 487.155 127.419L486.671 158.65L484.141 156.66C480.639 153.906 476.736 154.132 473.807 157.257C471.447 159.775 471.385 160.257 471.46 175.501C471.549 193.497 473.504 203.636 479.305 216.191C485.976 230.63 492.525 237.242 497.512 234.574C498.811 233.879 500.053 233.498 500.273 233.728C500.493 233.958 502.742 241.24 505.27 249.91C510.404 267.511 514.262 275.924 523.249 289.114C530.317 299.488 547.283 317.495 556.806 324.731C565.1 331.032 581.261 338.938 590.354 341.142C599.304 343.31 617.14 343.337 625.081 341.194C646.47 335.421 668.437 318.664 686.48 294.356C696.687 280.606 702.717 268.471 709.211 248.621C713.461 235.628 714.661 232.932 715.86 233.69C725.363 239.7 738.937 215.736 742.901 185.95C744.415 174.577 743.732 163.027 741.304 158.916C738.693 154.499 734.892 153.064 731.052 155.05L728.08 156.587L727.45 151.99C727.104 149.462 726.82 138.796 726.819 128.289C726.818 104.467 725.511 90.2954 722.287 79.1718C713.1 47.4686 698.923 28.0247 675.763 15.3566M574.358 1.64883C549.262 7.50702 531.404 17.0111 517.22 32.0574C504.223 45.8441 494.37 65.3101 489.818 86.1917C487.92 94.895 487.576 100.228 487.155 127.419L486.671 158.65L484.141 156.66C480.639 153.906 476.736 154.132 473.807 157.257C471.447 159.775 471.385 160.257 471.46 175.501C471.549 193.497 473.504 203.636 479.305 216.191C485.976 230.63 492.525 237.242 497.512 234.574C498.811 233.879 500.053 233.498 500.273 233.728C500.493 233.958 502.742 241.24 505.27 249.91C510.404 267.511 514.262 275.924 523.249 289.114C530.317 299.488 547.283 317.495 556.806 324.731C565.1 331.032 581.261 338.938 590.354 341.142C599.304 343.31 617.14 343.337 625.081 341.194C646.47 335.421 668.437 318.664 686.48 294.356C696.687 280.606 702.717 268.471 709.211 248.621C713.461 235.628 714.661 232.932 715.86 233.69C725.363 239.7 738.937 215.736 742.901 185.95C744.415 174.577 743.732 163.027 741.304 158.916C738.693 154.499 734.892 153.064 731.052 155.05L728.08 156.587L727.45 151.99C727.104 149.462 726.82 138.796 726.819 128.289C726.818 104.467 725.511 90.2954 722.287 79.1718C713.1 47.4686 698.923 28.0247 675.763 15.3566C667.133 10.636 653.947 5.41966 643.727 2.68251C636.236 0.67613 632.522 0.402214 608.849 0.109305M574.358 1.64883C549.262 7.50702 531.404 17.0111 517.22 32.0574C504.223 45.8441 494.37 65.3101 489.818 86.1917C487.92 94.895 487.576 100.228 487.155 127.419L486.671 158.65L484.141 156.66C480.639 153.906 476.736 154.132 473.807 157.257C471.447 159.775 471.385 160.257 471.46 175.501C471.549 193.497 473.504 203.636 479.305 216.191M574.358 1.64883C549.262 7.50702 531.404 17.0111 517.22 32.0574C504.223 45.8441 494.37 65.3101 489.818 86.1917C487.92 94.895 487.576 100.228 487.155 127.419L486.671 158.65L484.141 156.66C480.639 153.906 476.736 154.132 473.807 157.257C471.447 159.775 471.385 160.257 471.46 175.501M574.358 1.64883C549.262 7.50702 531.404 17.0111 517.22 32.0574C504.223 45.8441 494.37 65.3101 489.818 86.1917C487.92 94.895 487.576 100.228 487.155 127.419L486.671 158.65L484.141 156.66M574.358 1.64883C549.262 7.50702 531.404 17.0111 517.22 32.0574C504.223 45.8441 494.37 65.3101 489.818 86.1917C487.92 94.895 487.576 100.228 487.155 127.419L486.671 158.65L484.141 156.66C480.639 153.906 476.736 154.132 473.807 157.257M574.358 1.64883C549.262 7.50702 531.404 17.0111 517.22 32.0574C504.223 45.8441 494.37 65.3101 489.818 86.1917C487.92 94.895 487.576 100.228 487.155 127.419L486.671 158.65L484.141 156.66C480.639 153.906 476.736 154.132 473.807 157.257C471.447 159.775 471.385 160.257 471.46 175.501C471.549 193.497 473.504 203.636 479.305 216.191M574.358 1.64883C549.262 7.50702 531.404 17.0111 517.22 32.0574C504.223 45.8441 494.37 65.3101 489.818 86.1917C487.92 94.895 487.576 100.228 487.155 127.419L486.671 158.65L484.141 156.66C480.639 153.906 476.736 154.132 473.807 157.257C471.447 159.775 471.385 160.257 471.46 175.501M574.358 1.64883C549.262 7.50702 531.404 17.0111 517.22 32.0574C504.223 45.8441 494.37 65.3101 489.818 86.1917C487.92 94.895 487.576 100.228 487.155 127.419L486.671 158.65L484.141 156.66C480.639 153.906 476.736 154.132 473.807 157.257C471.447 159.775 471.385 160.257 471.46 175.501C471.549 193.497 473.504 203.636 479.305 216.191M574.358 1.64883C549.262 7.50702 531.404 17.0111 517.22 32.0574C504.223 45.8441 494.37 65.3101 489.818 86.1917C487.92 94.895 487.576 100.228 487.155 127.419L486.671 158.65L484.141 156.66M574.358 1.64883C549.262 7.50702 531.404 17.0111 517.22 32.0574C504.223 45.8441 494.37 65.3101 489.818 86.1917C487.92 94.895 487.576 100.228 487.155 127.419L486.671 158.65L484.141 156.66C480.639 153.906 476.736 154.132 473.807 157.257C471.447 159.775 471.385 160.257 471.46 175.501M574.358 1.64883C549.262 7.50702 531.404 17.0111 517.22 32.0574C504.223 45.8441 494.37 65.3101 489.818 86.1917C487.92 94.895 487.576 100.228 487.155 127.419L486.671 158.65L484.141 156.66C480.639 153.906 476.736 154.132 473.807 157.257C471.447 159.775 471.385 160.257 471.46 175.501M574.358 1.64883C549.262 7.50702 531.404 17.0111 517.22 32.0574C504.223 45.8441 494.37 65.3101 489.818 86.1917C487.92 94.895 487.576 100.228 487.155 127.419L486.671 158.65L484.141 156.66C480.639 153.906 476.736 154.132 473.807 157.257M574.358 1.64883C549.262 7.50702 531.404 17.0111 517.22 32.0574C504.223 45.8441 494.37 65.3101 489.818 86.1917C487.92 94.895 487.576 100.228 487.155 127.419L486.671 158.65L484.141 156.66C480.639 153.906 476.736 154.132 473.807 157.257C471.447 159.775 471.385 160.257 471.46 175.501C471.549 193.497 473.504 203.636 479.305 216.191M574.358 1.64883C549.262 7.50702 531.404 17.0111 517.22 32.0574C504.223 45.8441 494.37 65.3101 489.818 86.1917C487.92 94.895 487.576 100.228 487.155 127.419L486.671 158.65L484.141 156.66C480.639 153.906 476.736 154.132 473.807 157.257C471.447 159.775 471.385 160.257 471.46 175.501M574.358 1.64883C549.262 7.50702 531.404 17.0111 517.22 32.0574C504.223 45.8441 494.37 65.3101 489.818 86.1917C487.92 94.895 487.576 100.228 487.155 127.419L486.671 158.65L484.141 156.66C480.639 153.906 476.736 154.132 473.807 157.257M574.358 1.64883C549.262 7.50702 531.404 17.0111 517.22 32.0574C504.223 45.8441 494.37 65.3101 489.818 86.1917C487.92 94.895 487.576 100.228 487.155 127.419L486.671 158.65L484.141 156.66C480.639 153.906 476.736 154.132 473.807 157.257C471.447 159.775 471.385 160.257 471.46 175.501M574.358 1.64883C549.262 7.50702 531.404 17.0111 517.22 32.0574C504.223 45.8441 494.37 65.3101 489.818 86.1917C487.92 94.895 487.576 100.228 487.155 127.419L486.671 158.65L484.141 156.66C480.639 153.906 476.736 154.132 473.807 157.257C471.447 159.775 471.385 160.257 471.46 175.501C471.549 193.497 473.504 203.636 479.305 216.191M574.358 1.64883C549.262 7.50702 531.404 17.0111 517.22 32.0574C504.223 45.8441 494.37 65.3101 489.818 86.1917C487.92 94.895 487.576 100.228 487.155 127.419L486.671 158.65L484.141 156.66C480.639 153.906 476.736 154.132 473.807 157.257C471.447 159.775 471.385 160.257 471.46 175.501M574.358 1.64883C549.262 7.50702 531.404 17.0111 517.22 32.0574C504.223 45.8441 494.37 65.3101 489.818 86.1917C487.92 94.895 487.576 100.228 487.155 127.419L486.671 158.65L484.141 156.66C480.639 153.906 476.736 154.132 473.807 157.257M574.358 1.64883C549.262 7.50702 531.404 17.0111 517.22 32.0574C504.223 45.8441 494.37 65.3101 489.818 86.1917C487.92 94.895 487.576 100.228 487.155 127.419L486.671 158.65L484.141 156.66M574.358 1.64883C549.262 7.50702 531.404 17.0111 517.22 32.0574C504.223 45.8441 494.37 65.3101 489.818 86.1917C487.92 94.895 487.576 100.228 487.155 127.419L486.671 158.65L484.141 156.66C480.639 153.906 476.736 154.132 473.807 157.257C471.447 159.775 471.385 160.257 471.46 175.501C471.549 193.497 473.504 203.636 479.305 216.191C485.976 230.63 492.525 237.242 497.512 234.574M574.358 1.64883C549.262 7.50702 531.404 17.0111 517.22 32.0574C504.223 45.8441 494.37 65.3101 489.818 86.1917C487.92 94.895 487.576 100.228 487.155 127.419L486.671 158.65L484.141 156.66M574.358 1.64883C549.262 7.50702 531.404 17.0111 517.22 32.0574C504.223 45.8441 494.37 65.3101 489.818 86.1917C487.92 94.895 487.576 100.228 487.155 127.419L486.671 158.65L484.141 156.66C480.639 153.906 476.736 154.132 473.807 157.257C471.447 159.775 471.385 160.257 471.46 175.501M574.358 1.64883C549.262 7.50702 531.404 17.0111 517.22 32.0574C504.223 45.8441 494.37 65.3101 489.818 86.1917C487.92 94.895 487.576 100.228 487.155 127.419L486.671 158.65L484.141 156.66M574.358 1.64883C549.262 7.50702 531.404 17.0111 517.22 32.0574C504.223 45.8441 494.37 65.3101 489.818 86.1917C487.92 94.895 487.576 100.228 487.155 127.419L486.671 158.65L484.141 156.66M574.358 1.64883C549.262 7.50702 531.404 17.0111 517.22 32.0574C504.223 45.8441 494.37 65.3101 489.818 86.1917C487.92 94.895 487.576 100.228 487.155 127.419L486.671 158.65L484.141 156.66M574.358 1.64883C549.262 7.50702 531.404 17.0111 517.22 32.0574C504.223 45.8441 494.37 65.3101 489.818 86.1917C487.92 94.895 487.576 100.228 487.155 127.419L486.671 158.65L484.141 156.66C480.639 153.906 476.736 154.132 473.807 157.257C471.447 159.775 471.385 160.257 471.46 175.501M574.358 1.64883C549.262 7.50702 531.404 17.0111 517.22 32.0574C504.223 45.8441 494.37 65.3101 489.818 86.1917C487.92 94.895 487.576 100.228 487.155 127.419L486.671 158.65L484.141 156.66C480.639 153.906 476.736 154.132 473.807 157.257M574.358 1.64883C549.262 7.50702 531.404 17.0111 517.22 32.0574C504.223 45.8441 494.37 65.3101 489.818 86.1917C487.92 94.895 487.576 100.228 487.155 127.419L486.671 158.65L484.141 156.66C480.639 153.906 476.736 154.132 473.807 157.257C471.447 159.775 471.385 160.257 471.46 175.501M574.358 1.64883C549.262 7.50702 531.404 17.0111 517.22 32.0574C504.223 45.8441 494.37 65.3101 489.818 86.1917C487.92 94.895 487.576 100.228 487.155 127.419L486.671 158.65L484.141 156.66C480.639 153.906 476.736 154.132 473.807 157.257C471.447 159.775 471.385 160.257 471.46 175.501C471.549 193.497 473.504 203.636 479.305 216.191C485.976 230.63 492.525 237.242 497.512 234.574C498.811 233.879 500.053 233.498 500.273 233.728C500.493 233.958 502.742 241.24 505.27 249.91C510.404 267.511 514.262 275.924 523.249 289.114C530.317 299.488 547.283 317.495 556.806 324.731C565.1 331.032 581.261 338.938 590.354 341.142C599.304 343.31 617.14 343.337 625.081 341.194C646.47 335.421 668.437 318.664 686.48 294.356M574.358 1.64883C549.262 7.50702 531.404 17.0111 517.22 32.0574C504.223 45.8441 494.37 65.3101 489.818 86.1917C487.92 94.895 487.576 100.228 487.155 127.419L486.671 158.65L484.141 156.66C480.639 153.906 476.736 154.132 473.807 157.257C471.447 159.775 471.385 160.257 471.46 175.501C471.549 193.497 473.504 203.636 479.305 216.191C485.976 230.63 492.525 237.242 497.512 234.574C498.811 233.879 500.053 233.498 500.273 233.728C500.493 233.958 502.742 241.24 505.27 249.91C510.404 267.511 514.262 275.924 523.249 289.114C530.317 299.488 547.283 317.495 556.806 324.731C565.1 331.032 581.261 338.938 590.354 341.142C599.304 343.31 617.14 343.337 625.081 341.194C646.47 335.421 668.437 318.664 686.48 294.356C696.687 280.606 702.717 268.471 709.211 248.621C713.461 235.628 714.661 232.932 715.86 233.69M574.358 1.64883C549.262 7.50702 531.404 17.0111 517.22 32.0574C504.223 45.8441 494.37 65.3101 489.818 86.1917C487.92 94.895 487.576 100.228 487.155 127.419L486.671 158.65L484.141 156.66C480.639 153.906 476.736 154.132 473.807 157.257M574.358 1.64883C549.262 7.50702 531.404 17.0111 517.22 32.0574C504.223 45.8441 494.37 65.3101 489.818 86.1917C487.92 94.895 487.576 100.228 487.155 127.419L486.671 158.65L484.141 156.66C480.639 153.906 476.736 154.132 473.807 157.257C471.447 159.775 471.385 160.257 471.46 175.501M574.358 1.64883C549.262 7.50702 531.404 17.0111 517.22 32.0574C504.223 45.8441 494.37 65.3101 489.818 86.1917C487.92 94.895 487.576 100.228 487.155 127.419L486.671 158.65L484.141 156.66C480.639 153.906 476.736 154.132 473.807 157.257M574.358 1.64883C549.262 7.50702 531.404 17.0111 517.22 32.0574C504.223 45.8441 494.37 65.3101 489.818 86.1917C487.92 94.895 487.576 100.228 487.155 127.419L486.671 158.65L484.141 156.66M574.358 1.64883C549.262 7.50702 531.404 17.0111 517.22 32.0574C504.223 45.8441 494.37 65.3101 489.818 86.1917C487.92 94.895 487.576 100.228 487.155 127.419L486.671 158.65L484.141 156.66C480.639 153.906 476.736 154.132 473.807 157.257C471.447 159.775 471.385 160.257 471.46 175.501C471.549 193.497 473.504 203.636 479.305 216.191C485.976 230.63 492.525 237.242 497.512 234.574C498.811 233.879 500.053 233.498 500.273 233.728C500.493 233.958 502.742 241.24 505.27 249.91C510.404 267.511 514.262 275.924 523.249 289.114C530.317 299.488 547.283 317.495 556.806 324.731C565.1 331.032 581.261 338.938 590.354 341.142C599.304 343.31 617.14 343.337 625.081 341.194C646.47 335.421 668.437 318.664 686.48 294.356C696.687 280.606 702.717 268.471 709.211 248.621C713.461 235.628 714.661 232.932 715.86 233.69C725.363 239.7 738.937 215.736 742.901 185.95C744.415 174.577 743.732 163.027 741.304 158.916C738.693 154.499 734.892 153.064 731.052 155.05L728.08 156.587M574.358 1.64883C549.262 7.50702 531.404 17.0111 517.22 32.0574C504.223 45.8441 494.37 65.3101 489.818 86.1917C487.92 94.895 487.576 100.228 487.155 127.419L486.671 158.65L484.141 156.66C480.639 153.906 476.736 154.132 473.807 157.257C471.447 159.775 471.385 160.257 471.46 175.501C471.549 193.497 473.504 203.636 479.305 216.191C485.976 230.63 492.525 237.242 497.512 234.574C498.811 233.879 500.053 233.498 500.273 233.728C500.493 233.958 502.742 241.24 505.27 249.91C510.404 267.511 514.262 275.924 523.249 289.114C530.317 299.488 547.283 317.495 556.806 324.731C565.1 331.032 581.261 338.938 590.354 341.142C599.304 343.31 617.14 343.337 625.081 341.194C646.47 335.421 668.437 318.664 686.48 294.356C696.687 280.606 702.717 268.471 709.211 248.621C713.461 235.628 714.661 232.932 715.86 233.69C725.363 239.7 738.937 215.736 742.901 185.95C744.415 174.577 743.732 163.027 741.304 158.916M574.358 1.64883C549.262 7.50702 531.404 17.0111 517.22 32.0574C504.223 45.8441 494.37 65.3101 489.818 86.1917C487.92 94.895 487.576 100.228 487.155 127.419L486.671 158.65L484.141 156.66C480.639 153.906 476.736 154.132 473.807 157.257C471.447 159.775 471.385 160.257 471.46 175.501C471.549 193.497 473.504 203.636 479.305 216.191C485.976 230.63 492.525 237.242 497.512 234.574C498.811 233.879 500.053 233.498 500.273 233.728C500.493 233.958 502.742 241.24 505.27 249.91C510.404 267.511 514.262 275.924 523.249 289.114C530.317 299.488 547.283 317.495 556.806 324.731C565.1 331.032 581.261 338.938 590.354 341.142C599.304 343.31 617.14 343.337 625.081 341.194C646.47 335.421 668.437 318.664 686.48 294.356M574.358 1.64883C549.262 7.50702 531.404 17.0111 517.22 32.0574C504.223 45.8441 494.37 65.3101 489.818 86.1917C487.92 94.895 487.576 100.228 487.155 127.419L486.671 158.65L484.141 156.66C480.639 153.906 476.736 154.132 473.807 157.257C471.447 159.775 471.385 160.257 471.46 175.501C471.549 193.497 473.504 203.636 479.305 216.191C485.976 230.63 492.525 237.242 497.512 234.574C498.811 233.879 500.053 233.498 500.273 233.728C500.493 233.958 502.742 241.24 505.27 249.91C510.404 267.511 514.262 275.924 523.249 289.114M574.358 1.64883C549.262 7.50702 531.404 17.0111 517.22 32.0574C504.223 45.8441 494.37 65.3101 489.818 86.1917C487.92 94.895 487.576 100.228 487.155 127.419L486.671 158.65L484.141 156.66C480.639 153.906 476.736 154.132 473.807 157.257C471.447 159.775 471.385 160.257 471.46 175.501C471.549 193.497 473.504 203.636 479.305 216.191C485.976 230.63 492.525 237.242 497.512 234.574C498.811 233.879 500.053 233.498 500.273 233.728C500.493 233.958 502.742 241.24 505.27 249.91C510.404 267.511 514.262 275.924 523.249 289.114M574.358 1.64883C549.262 7.50702 531.404 17.0111 517.22 32.0574C504.223 45.8441 494.37 65.3101 489.818 86.1917C487.92 94.895 487.576 100.228 487.155 127.419L486.671 158.65L484.141 156.66C480.639 153.906 476.736 154.132 473.807 157.257C471.447 159.775 471.385 160.257 471.46 175.501C471.549 193.497 473.504 203.636 479.305 216.191C485.976 230.63 492.525 237.242 497.512 234.574C498.811 233.879 500.053 233.498 500.273 233.728C500.493 233.958 502.742 241.24 505.27 249.91M574.358 1.64883C549.262 7.50702 531.404 17.0111 517.22 32.0574C504.223 45.8441 494.37 65.3101 489.818 86.1917C487.92 94.895 487.576 100.228 487.155 127.419L486.671 158.65L484.141 156.66C480.639 153.906 476.736 154.132 473.807 157.257C471.447 159.775 471.385 160.257 471.46 175.501C471.549 193.497 473.504 203.636 479.305 216.191C485.976 230.63 492.525 237.242 497.512 234.574C498.811 233.879 500.053 233.498 500.273 233.728C500.493 233.958 502.742 241.24 505.27 249.91C510.404 267.511 514.262 275.924 523.249 289.114C530.317 299.488 547.283 317.495 556.806 324.731C565.1 331.032 581.261 338.938 590.354 341.142C599.304 343.31 617.14 343.337 625.081 341.194C646.47 335.421 668.437 318.664 686.48 294.356C696.687 280.606 702.717 268.471 709.211 248.621C713.461 235.628 714.661 232.932 715.86 233.69C725.363 239.7 738.937 215.736 742.901 185.95C744.415 174.577 743.732 163.027 741.304 158.916C738.693 154.499 734.892 153.064 731.052 155.05L728.08 156.587M574.358 1.64883C549.262 7.50702 531.404 17.0111 517.22 32.0574C504.223 45.8441 494.37 65.3101 489.818 86.1917C487.92 94.895 487.576 100.228 487.155 127.419L486.671 158.65L484.141 156.66C480.639 153.906 476.736 154.132 473.807 157.257C471.447 159.775 471.385 160.257 471.46 175.501C471.549 193.497 473.504 203.636 479.305 216.191C485.976 230.63 492.525 237.242 497.512 234.574C498.811 233.879 500.053 233.498 500.273 233.728C500.493 233.958 502.742 241.24 505.27 249.91C510.404 267.511 514.262 275.924 523.249 289.114C530.317 299.488 547.283 317.495 556.806 324.731C565.1 331.032 581.261 338.938 590.354 341.142C599.304 343.31 617.14 343.337 625.081 341.194C646.47 335.421 668.437 318.664 686.48 294.356C696.687 280.606 702.717 268.471 709.211 248.621C713.461 235.628 714.661 232.932 715.86 233.69C725.363 239.7 738.937 215.736 742.901 185.95C744.415 174.577 743.732 163.027 741.304 158.916C738.693 154.499 734.892 153.064 731.052 155.05L728.08 156.587L727.45 151.99C727.104 149.462 726.82 138.796 726.819 128.289C726.818 104.467 725.511 90.2954 722.287 79.1718C713.1 47.4686 698.923 28.0247 675.763 15.3566M574.358 1.64883C549.262 7.50702 531.404 17.0111 517.22 32.0574C504.223 45.8441 494.37 65.3101 489.818 86.1917C487.92 94.895 487.576 100.228 487.155 127.419L486.671 158.65L484.141 156.66M574.358 1.64883C549.262 7.50702 531.404 17.0111 517.22 32.0574C504.223 45.8441 494.37 65.3101 489.818 86.1917C487.92 94.895 487.576 100.228 487.155 127.419L486.671 158.65L484.141 156.66M574.358 1.64883C549.262 7.50702 531.404 17.0111 517.22 32.0574C504.223 45.8441 494.37 65.3101 489.818 86.1917C487.92 94.895 487.576 100.228 487.155 127.419L486.671 158.65L484.141 156.66C480.639 153.906 476.736 154.132 473.807 157.257C471.447 159.775 471.385 160.257 471.46 175.501C471.549 193.497 473.504 203.636 479.305 216.191M574.358 1.64883C549.262 7.50702 531.404 17.0111 517.22 32.0574C504.223 45.8441 494.37 65.3101 489.818 86.1917C487.92 94.895 487.576 100.228 487.155 127.419L486.671 158.65L484.141 156.66C480.639 153.906 476.736 154.132 473.807 157.257M574.358 1.64883C549.262 7.50702 531.404 17.0111 517.22 32.0574C504.223 45.8441 494.37 65.3101 489.818 86.1917C487.92 94.895 487.576 100.228 487.155 127.419L486.671 158.65L484.141 156.66C480.639 153.906 476.736 154.132 473.807 157.257C471.447 159.775 471.385 160.257 471.46 175.501M574.358 1.64883C549.262 7.50702 531.404 17.0111 517.22 32.0574C504.223 45.8441 494.37 65.3101 489.818 86.1917C487.92 94.895 487.576 100.228 487.155 127.419L486.671 158.65L484.141 156.66C480.639 153.906 476.736 154.132 473.807 157.257C471.447 159.775 471.385 160.257 471.46 175.501C471.549 193.497 473.504 203.636 479.305 216.191M574.358 1.64883C549.262 7.50702 531.404 17.0111 517.22 32.0574C504.223 45.8441 494.37 65.3101 489.818 86.1917C487.92 94.895 487.576 100.228 487.155 127.419L486.671 158.65L484.141 156.66C480.639 153.906 476.736 154.132 473.807 157.257C471.447 159.775 471.385 160.257 471.46 175.501C471.549 193.497 473.504 203.636 479.305 216.191M574.358 1.64883C549.262 7.50702 531.404 17.0111 517.22 32.0574C504.223 45.8441 494.37 65.3101 489.818 86.1917C487.92 94.895 487.576 100.228 487.155 127.419L486.671 158.65L484.141 156.66C480.639 153.906 476.736 154.132 473.807 157.257C471.447 159.775 471.385 160.257 471.46 175.501C471.549 193.497 473.504 203.636 479.305 216.191M574.358 1.64883C549.262 7.50702 531.404 17.0111 517.22 32.0574C504.223 45.8441 494.37 65.3101 489.818 86.1917C487.92 94.895 487.576 100.228 487.155 127.419L486.671 158.65L484.141 156.66C480.639 153.906 476.736 154.132 473.807 157.257M574.358 1.64883C549.262 7.50702 531.404 17.0111 517.22 32.0574C504.223 45.8441 494.37 65.3101 489.818 86.1917C487.92 94.895 487.576 100.228 487.155 127.419L486.671 158.65L484.141 156.66C480.639 153.906 476.736 154.132 473.807 157.257" fill="#9F9F9F"/>
<path d="M574.358 1.64883C549.262 7.50702 531.404 17.0111 517.22 32.0574C504.223 45.8441 494.37 65.3101 489.818 86.1917C487.92 94.895 487.576 100.228 487.155 127.419L486.671 158.65L484.141 156.66C480.639 153.906 476.736 154.132 473.807 157.257C471.447 159.775 471.385 160.257 471.46 175.501C471.549 193.497 473.504 203.636 479.305 216.191C485.976 230.63 492.525 237.242 497.512 234.574C498.811 233.879 500.053 233.498 500.273 233.728C500.493 233.958 502.742 241.24 505.27 249.91C510.404 267.511 514.262 275.924 523.249 289.114C530.317 299.488 547.283 317.495 556.806 324.731C565.1 331.032 581.261 338.938 590.354 341.142C599.304 343.31 617.14 343.337 625.081 341.194C646.47 335.421 668.437 318.664 686.48 294.356C696.687 280.606 702.717 268.471 709.211 248.621C713.461 235.628 714.661 232.932 715.86 233.69C725.363 239.7 738.937 215.736 742.901 185.95C744.415 174.577 743.732 163.027 741.304 158.916C738.693 154.499 734.892 153.064 731.052 155.05L728.08 156.587L727.45 151.99C727.104 149.462 726.82 138.796 726.819 128.289C726.818 104.467 725.511 90.2954 722.287 79.1718C713.1 47.4686 698.923 28.0247 675.763 15.3566C667.133 10.636 653.947 5.41966 643.727 2.68251C636.236 0.67613 632.522 0.402214 608.849 0.109305C585.74 -0.176606 581.334 0.0203327 574.358 1.64883Z" fill="#9F9F9F"/>
</g>
<path id="cuellolateralant_der" d="M526.867 367.491C532.631 356.416 533.836 350.014 533.853 330.366C533.87 311.494 534.164 310.887 540.11 317.467C542.753 320.392 544.46 324.095 547.248 332.946C551.343 345.945 552.652 351.643 556.365 372.603C557.776 380.576 561.849 399.83 565.416 415.391C571.171 440.499 574.1 455.541 573.392 456.345C573.262 456.492 570.503 455.939 567.259 455.117C564.016 454.296 548.989 452.015 533.868 450.051C460.384 440.505 417.897 433.439 417.897 430.764C417.897 430.344 419.809 429.487 422.146 428.861C428.905 427.047 467.023 411.12 482.776 403.524C508.784 390.986 518.971 382.661 526.867 367.491Z" fill="#9F9F9F"/>
<path id="cuellolateralant_izq" d="M657.849 372.603C663.579 339.973 668.017 324.965 673.921 318.257C676.166 315.708 678.35 313.621 678.776 313.621C679.202 313.621 679.878 322.955 680.279 334.365L681.009 355.108L686.613 366.068C693.918 380.352 700.256 386.782 715.495 395.367C731.404 404.329 776.644 424.013 794.054 429.548C796.116 430.204 797.803 431.118 797.803 431.58C797.803 433.807 735.338 443.503 681.831 449.582C666.71 451.3 651.499 453.352 648.028 454.142C644.557 454.932 641.459 455.577 641.144 455.577C640.078 455.577 641.813 446.426 649.275 412.702C653.363 394.221 657.223 376.177 657.849 372.603Z" fill="#9F9F9F"/>
<path id="cuelloantcentral" d="M555.269 339.85C553.946 334.758 552.863 330.131 552.863 329.568C552.863 328.26 554.831 329.318 565.909 336.593C570.733 339.76 578.206 343.843 582.517 345.665C589.751 348.724 591.363 349.012 603.466 349.406C611.192 349.658 618.746 349.368 621.858 348.701C628.79 347.215 642.403 340.792 652.114 334.427C656.388 331.625 660.176 329.621 660.53 329.975C660.884 330.329 660.647 332.755 660.003 335.366C654.366 358.243 637.346 436.75 635.844 446.802C634.798 453.797 633.505 460.339 632.97 461.34C631.303 464.454 621.974 472.621 618.358 474.132C613.349 476.224 600.359 475.985 595.353 473.708C593.153 472.708 588.798 469.551 585.672 466.693C580.335 461.811 579.953 461.152 579.357 455.788C578.324 446.494 576.026 434.447 570.734 410.591C567.99 398.22 563.929 379.326 561.709 368.604C559.49 357.883 556.591 344.944 555.269 339.85Z" fill="#9F9F9F"/>
<path id="hombrovistaanterior_der" d="M353.364 445.467C360.487 442.72 379.328 437.402 385.905 436.281C394.006 434.902 404.079 435.801 423.129 439.604C434.206 441.816 443.497 443.854 443.777 444.134C444.056 444.414 442.217 448.642 439.688 453.528C423.253 485.289 398.258 519.341 374.641 542.14C359.457 556.797 330.189 579.337 312.188 590.236C298.26 598.667 279.799 608.53 277.942 608.53C275.261 608.53 279.288 567.409 284.503 541.551C287.459 526.894 293.339 508.667 298.266 498.882C311.519 472.568 330.298 454.361 353.364 445.467Z" fill="#9F9F9F"/>
<path id="hombrovistaanterior_izq" d="M784.272 441.105C792.257 439.605 800.93 437.79 803.545 437.07C818.26 433.022 849.916 439.339 871.874 450.706C898.758 464.623 919.55 496.682 928.69 538.317C934.203 563.43 938.657 608.53 935.624 608.53C934.193 608.53 916.464 599.077 903.501 591.403C884.246 580.004 852.219 555.641 837.973 541.556C816.081 519.911 790.476 485.489 776.993 459.576C768.029 442.349 767.26 444.3 784.272 441.105Z" fill="#9F9F9F"/>
<path id="pecho_der" d="M406.877 514.747C424.575 491.77 440.594 466.964 447.551 451.763C450.181 446.015 451.271 444.559 452.643 444.962C456.024 445.955 508.631 453.555 529.369 456.046C572.076 461.175 571.3 460.952 581.812 471.101C588.414 477.474 595.868 481.569 600.862 481.569C602.831 481.569 602.851 482.377 602.851 560.087C602.851 648.807 603.257 643.402 594.714 668.342C588.379 686.838 581.029 701.944 570.99 717.107C553.64 743.311 532.645 758.012 500.961 766.139C489.102 769.18 469.552 770.324 459.456 768.566C451.277 767.142 433.514 761.332 426.443 757.769C410.158 749.562 394.621 734.844 388.026 721.373C383.047 711.205 381.191 704.269 379.763 690.505C378.262 676.033 379.13 665.704 383.417 647.018C387.857 627.661 388.235 617.938 385.007 606.171C383.832 601.889 382.026 596.733 380.992 594.711C378.577 589.988 368.268 576.552 362.205 570.226L357.498 565.314L363.953 559.776C376.251 549.227 397.445 526.993 406.877 514.747Z" fill="#9F9F9F"/>
<path id="pecho_izq" d="M669.335 457.564C691.822 455.317 736.502 449.487 748.815 447.194C763.485 444.461 762.458 443.936 769.097 457.552C775.6 470.888 793.004 497.661 805.801 514.015C814.519 525.156 839.655 551.358 850.211 560.308L856.13 565.326L848.633 573.752C839.346 584.19 835.556 589.65 831.821 597.973C826.105 610.712 825.361 623.76 829.365 641.02C835.122 665.833 836.107 679.713 833.267 695.995C826.536 734.598 798.498 760.422 755.103 767.99C738.366 770.908 721.593 769.44 703.826 763.503C693.79 760.149 679.626 753.154 671.509 747.543C647.032 730.623 626.925 697.023 613.746 651.017L610.596 640.02L610.473 561.075L610.349 482.129L614.504 481.417C620.896 480.323 626.295 477.099 633.578 470.027C643.338 460.552 644.909 460.005 669.335 457.564Z" fill="#9F9F9F"/>
<path id="brazobiceps_der" d="M290.181 609.405C311.125 598.903 335.972 583.019 348.414 572.178L352.413 568.693L355.756 571.867C361.422 577.245 373.276 593.69 376.42 600.532C379.115 606.397 379.437 608.201 379.729 619.027C380.013 629.593 379.625 633.135 376.48 648.746C372.063 670.66 371.637 686.109 375.023 701.501C378.249 716.16 378.253 716.405 375.37 728.556C368.313 758.316 356.963 792.111 333.76 852.454C319.177 890.383 318.228 892.442 315.332 892.442C314.058 892.442 304.11 889.708 293.225 886.365C233.137 867.918 221.332 864.179 220.196 863.239C218.237 861.621 218.702 858.119 221.969 849.894C223.632 845.709 226.54 836.362 228.432 829.125C232.591 813.206 243.192 766.449 245.467 753.985C246.371 749.036 253.147 716.647 260.526 682.007C272.228 627.074 274.228 618.789 276.187 617.161C277.421 616.136 283.719 612.646 290.181 609.405Z" fill="#9F9F9F"/>
<path id="brazobiceps_izq" d="M837.003 601.364C840.324 594.137 846.372 585.237 853.93 576.457C857.203 572.653 860.341 569.542 860.903 569.542C861.466 569.542 865.606 572.411 870.105 575.918C883.804 586.599 904.828 599.826 921.98 608.553C930.939 613.112 938.544 617.26 938.882 617.773C940.089 619.605 954.257 684.465 965.178 738.154C979.209 807.125 985.933 835.646 991.8 851.074C993.974 856.792 995.754 861.88 995.754 862.378C995.754 863.5 989.031 865.716 947.266 878.365C929.12 883.86 910.934 889.5 906.851 890.899C902.768 892.297 899.031 893.442 898.546 893.442C897.238 893.442 892.12 881.721 877.612 845.505C855.822 791.109 836.793 730.214 836.793 714.881C836.793 712.847 837.746 706.204 838.91 700.119C841.962 684.167 841.252 665.566 836.807 645.032C833.937 631.771 833.612 628.726 833.982 618.54C834.336 608.808 834.803 606.155 837.003 601.364Z" fill="#9F9F9F"/>
<path id="abdomenaltoanterior_der" d="M575.96 721.201C583.109 710.385 595.645 685.78 599.493 675.009L602.351 667.012L603.144 695.003C603.925 722.593 603.722 758.945 602.782 759.886C602.516 760.151 598.22 761.258 593.233 762.346C580.805 765.059 574.698 767.793 550.063 781.669C538.351 788.267 524.66 795.448 519.64 797.625C508.936 802.267 495.031 806.469 490.37 806.469C487.121 806.469 487.074 806.401 485.988 800.17C484.301 790.487 482.628 777.398 483.025 777.002C483.221 776.807 488.744 775.444 495.301 773.974C531.224 765.919 557.968 748.422 575.96 721.201Z" fill="#9F9F9F"/>
<path id="abdomenaltoanterior_izq" d="M612.721 760.483C610.919 760.483 610.849 758.765 610.849 714.438C610.849 689.114 611.234 668.631 611.704 668.921C612.174 669.212 613.578 672.275 614.824 675.728C618.033 684.618 631.857 711.727 637.959 721.094C645.109 732.069 651.718 739.45 661.211 747.058C678.718 761.09 697.61 769.633 723.071 775.035C729.348 776.367 730.819 777.03 730.819 778.526C730.819 781.306 727.843 803.698 727.193 805.812C726.471 808.159 723.264 807.641 708.825 802.846C695.496 798.42 684.078 793.003 664.855 781.987C642.519 769.188 634.999 765.659 624.236 762.929C618.931 761.584 613.749 760.483 612.721 760.483Z" fill="#9F9F9F"/>
<path id="cinturaaltaanterior_der" d="M400.901 768.104C398.701 757.878 396.902 749.056 396.902 748.499C396.902 746.485 399.555 747.574 405.42 751.994C413.717 758.247 428.777 765.829 441.051 769.932C451.101 773.292 466.183 776.478 472.035 776.478C474.087 776.478 475.199 777.131 475.866 778.727C477.065 781.593 479.881 800.013 479.881 804.988V808.768L466.635 808.181C446.029 807.27 428.469 802.005 412.148 791.845C408.161 789.363 404.9 787.19 404.9 787.014C404.9 786.839 403.1 778.329 400.901 768.104Z" fill="#9F9F9F"/>
<path id="cinturaaltaanterior_izq" d="M750.039 775.56C769.177 773.078 787.252 766.218 802.878 755.509C809.159 751.203 814.636 747.636 815.049 747.583C815.461 747.53 815.798 748.834 815.798 750.479C815.798 754.199 811.329 777.332 809.272 784.257L807.749 789.386L795.527 795.347C788.806 798.626 780.607 802.201 777.308 803.292C768.536 806.192 753.729 808.468 743.64 808.468H734.818V802.912C734.818 799.855 735.346 793.062 735.991 787.816C737.352 776.744 736.729 777.287 750.039 775.56Z" fill="#9F9F9F"/>
<path id="abdomen_der" d="M552.946 786.762C574.164 774.126 581.834 770.614 593.853 768.035C597.427 767.268 600.914 766.604 601.601 766.56C602.592 766.497 602.851 784.031 602.851 851.11V935.74L562.611 935.102C525.538 934.514 503.448 933.332 501.97 931.859C501.643 931.533 501.076 920.393 500.709 907.106C499.91 878.165 498.593 867.237 491.319 829.205C489.977 822.191 488.879 815.83 488.879 815.068C488.879 814.172 491.323 813.132 495.801 812.12C511.594 808.554 530.278 800.263 552.946 786.762Z" fill="#9F9F9F"/>
<path id="abdomen_izq" d="M610.849 936.476V851.478V766.481H613.118C621.287 766.481 640.549 774.482 659.597 785.788C681.327 798.686 700.877 807.568 715.89 811.365C720.476 812.524 724.568 813.813 724.985 814.23C725.402 814.647 724.604 820.381 723.213 826.973C714.914 866.3 712.827 883.392 712.825 912.039L712.824 933.135L702.576 933.765C696.94 934.112 677.483 934.638 659.337 934.933C641.191 935.228 622.859 935.696 618.597 935.973L610.849 936.476Z" fill="#9F9F9F"/>
<path id="cinturaanterior_der" d="M411.438 824.666C408.942 811.913 406.899 800.076 406.899 798.36C406.899 795.358 406.982 795.296 409.149 796.712C419.807 803.673 436.111 810.619 447.097 812.881C451.893 813.867 459.875 814.466 468.233 814.466C481.333 814.466 481.678 814.521 482.21 816.716C483.914 823.743 490.064 858.791 491.463 869.449C492.407 876.649 493.318 892.681 493.612 907.275L494.121 932.604L488.75 932.029C485.797 931.713 477.532 930.975 470.384 930.389C456.943 929.289 428.387 925.845 424.392 924.842C422.125 924.273 422.119 924.219 421.632 900.11C421.101 873.894 421.163 874.353 411.438 824.666Z" fill="#9F9F9F"/>
<path id="cinturaanterior_izq" d="M778.971 808.852C786.769 806.05 799.978 799.662 803.301 797.086C804.401 796.233 805.638 795.521 806.051 795.504C807.798 795.43 806.499 805.627 801.897 828.098C793.858 867.351 791.804 883.159 791.804 905.794V925.227L785.556 926.287C769.931 928.937 721.248 933.189 720.065 932.006C719.752 931.694 719.287 924.53 719.03 916.088C718.354 893.836 720.68 873.341 728.436 833.21L732.059 814.466L742.686 814.462C755.66 814.457 769.191 812.365 778.971 808.852Z" fill="#9F9F9F"/>
<path id="antebrazoanterior_der" d="M202.457 891.942C203.691 889.743 207.227 883.383 210.316 877.81L215.932 867.677L222.188 870.212C225.628 871.607 247.968 878.745 271.83 886.074C295.693 893.404 315.394 899.579 315.612 899.797C315.829 900.014 315.081 903.509 313.949 907.563C312.817 911.618 309.856 924.002 307.371 935.085C297.304 979.968 290.39 1001.56 278.478 1025.31C261.936 1058.29 209.677 1148.77 207.575 1148.07C207.035 1147.89 205.973 1144.62 205.216 1140.81C201.045 1119.76 186.892 1105.78 168.581 1104.6C160.069 1104.06 147.646 1106.27 138.605 1109.94C135.315 1111.28 132.417 1112.37 132.167 1112.37C131.916 1112.37 131.998 1110.58 132.348 1108.4C133.691 1100 165.066 975.047 168.538 964.271C174.382 946.133 186.208 920.916 202.457 891.942Z" fill="#9F9F9F"/>
<path id="antebrazoanterior_izq" d="M942.083 886.031C965.076 879.081 986.446 872.321 989.571 871.009C992.697 869.697 995.989 868.584 996.886 868.536C998.03 868.475 1002.87 876.584 1013.09 895.691C1041.71 949.224 1045.91 960.264 1059.25 1017.01C1062.75 1031.91 1069.24 1058.33 1073.68 1075.72C1078.11 1093.1 1081.73 1108.51 1081.73 1109.97C1081.73 1112.96 1082.1 1113 1071.24 1108.79C1065.41 1106.53 1062.2 1106 1052.03 1105.61C1036.75 1105.02 1034.3 1105.49 1026.86 1110.46C1016.76 1117.2 1009.7 1129.42 1008.11 1142.92C1007.76 1145.95 1007.1 1148.65 1006.65 1148.92C1006.2 1149.2 1005.08 1147.95 1004.15 1146.15C1003.22 1144.34 998.633 1136.57 993.962 1128.87C984.303 1112.95 949.094 1050.7 939.97 1033.4C932.465 1019.17 926.726 1006.23 921.573 991.911C917.462 980.489 907.339 940.962 904.29 924.432C903.328 919.209 901.711 911.565 900.699 907.446C899.687 903.329 899.178 899.668 899.569 899.313C899.959 898.958 919.09 892.981 942.083 886.031Z" fill="#9F9F9F"/>
<path id="cinturabajaanterior_der" d="M403.429 966.919C407.661 958.122 413.301 946.313 415.961 940.677C418.735 934.803 421.402 930.43 422.211 930.43C422.987 930.43 426 930.881 428.905 931.432C434.28 932.452 472.037 936.746 486.13 937.941C493.374 938.556 493.878 938.749 493.878 940.913C493.878 945.51 489.721 967.444 483.928 993.411C477.101 1024.02 474.756 1036.29 471.9 1056.33C470.77 1064.27 469.625 1070.98 469.358 1071.25C467.427 1073.18 380.719 1025.68 379.267 1021.9C378.728 1020.5 390.044 994.746 403.429 966.919Z" fill="#9F9F9F"/>
<path id="cinturabajaanterior_izq" d="M739.817 937.41C756.141 936.144 781.132 933.386 781.766 932.783C782.018 932.542 784.896 932.477 788.16 932.638C792.172 932.835 794.361 933.415 794.913 934.429C801.51 946.541 834.794 1019.02 834.794 1021.28C834.794 1022.54 830.2 1025.8 819.547 1032.12C791.016 1049.05 750.277 1070.39 746.503 1070.39C744.201 1070.39 744.017 1069.89 742.385 1059.14C739.603 1040.83 734.071 1012.38 728.824 989.412C724.074 968.616 721.387 954.017 720.5 944.198C719.994 938.607 718.747 939.045 739.817 937.41Z" fill="#9F9F9F"/>
<path id="abdomenbajo_der" d="M640.092 941.338C656.175 941.289 678.782 940.683 690.329 939.991C701.876 939.3 711.641 938.665 712.029 938.581C712.794 938.415 713.147 940.289 714.914 953.923C715.556 958.872 718.065 971.243 720.488 981.415C728.917 1016.79 737.818 1063.14 737.818 1071.65C737.818 1074.36 737.027 1074.9 724.337 1080.93C684.475 1099.87 637.803 1114.37 616.717 1114.37H610.849V1027.9V941.427L640.092 941.338Z" fill="#9F9F9F"/>
<path id="abdomenbajo_izq" d="M491.753 987.913C496.615 967.324 498.47 957.433 499.417 947.043L500.136 939.164L512.253 939.791C518.918 940.136 542.029 940.712 563.611 941.071L602.851 941.722V1028.05V1114.37H598.045C592.859 1114.37 576.837 1111.63 563.472 1108.46C543.821 1103.79 512.994 1092.46 490.629 1081.67L476.882 1075.04V1071.27C476.882 1060.2 483.679 1022.1 491.753 987.913Z" fill="#9F9F9F"/>
<path id="pelvisanterior_der" d="M362.43 1070.12C363.461 1061.11 366.203 1051.05 370.921 1038.98C373.197 1033.16 375.411 1028.4 375.842 1028.4C376.273 1028.4 384.9 1033.4 395.012 1039.51C405.124 1045.61 425.657 1056.63 440.641 1063.99C465.753 1076.32 467.884 1077.56 467.884 1079.93C467.884 1084.13 451.691 1130.37 450.219 1130.37C449.378 1130.37 444.157 1126.56 431.893 1117C411.67 1101.24 390.054 1088.39 368.062 1079.05L361.718 1076.36L362.43 1070.12Z" fill="#9F9F9F"/>
<path id="pelvisanterior_izq" d="M771.809 1064.67C800.103 1050.2 817.507 1040.62 828.793 1033.3C832.918 1030.63 836.871 1028.43 837.579 1028.42C840.117 1028.38 849.161 1053.82 851.142 1066.56L852.488 1075.23L832.393 1085.24C810.334 1096.23 799.668 1102.96 780.812 1117.8C767.426 1128.34 764.281 1130.27 762.882 1128.79C760.484 1126.26 744.657 1079.07 745.873 1078.07C746.117 1077.87 757.788 1071.84 771.809 1064.67Z" fill="#9F9F9F"/>
<path id="caderalateralanterior_izq" d="M787.805 1119.75C803.584 1107.28 815.249 1099.74 835.356 1089.03C844.119 1084.36 851.734 1080.65 852.278 1080.79C852.822 1080.93 853.904 1082.81 854.682 1084.96C855.461 1087.12 860.027 1098.78 864.83 1110.87C874.646 1135.6 881.469 1155.28 885.206 1169.67C888.045 1180.59 893.538 1217.85 894.456 1232.41L895.06 1241.98L887.171 1241.14C882.833 1240.68 875.825 1239.36 871.599 1238.22C860.886 1235.34 839.921 1224.85 829.795 1217.31C818.214 1208.7 800.22 1190.92 791.29 1179.27C779.544 1163.95 767.843 1143.78 767.82 1138.82C767.808 1136.25 772.036 1132.22 787.805 1119.75Z" fill="#9F9F9F"/>
<path id="caderalateralanterior_der" d="M335.902 1146.36C340.697 1132.02 358.649 1085.23 360.521 1082.21C360.801 1081.75 361.234 1081.38 361.484 1081.38C362.655 1081.38 389.498 1095.25 398.402 1100.46C413.201 1109.11 446.89 1135.2 446.89 1138.01C446.89 1140.25 437.522 1157.7 431.531 1166.61C410.418 1198.01 379.9 1224.16 351.413 1235.25C341.349 1239.17 335.257 1240.67 324.67 1241.84C317.93 1242.59 318.3 1243.74 319.959 1227.19C323.288 1194 328.051 1169.85 335.902 1146.36Z" fill="#9F9F9F"/>
<path id="pubiscentral" d="M500.216 1118.49C489.582 1100.64 480.881 1085.67 480.881 1085.21C480.881 1083.71 482.824 1084.33 490.989 1088.44C509.835 1097.91 540.444 1108.83 566.86 1115.51C594.497 1122.49 616.225 1122.86 642.841 1116.79C664.421 1111.87 698.682 1099.8 723.047 1088.53C728.201 1086.15 732.022 1084.9 732.384 1085.49C732.72 1086.03 731.446 1089.04 729.553 1092.18C727.659 1095.31 720.261 1107.55 713.112 1119.37C688.762 1159.63 669.818 1193.79 648.715 1235.5C637.122 1258.4 626.383 1278.65 624.85 1280.48L622.061 1283.82H607.037C592.477 1283.82 591.934 1283.75 589.411 1281.38C587.981 1280.03 581.131 1267.66 574.193 1253.88C544.351 1194.64 530.603 1169.48 500.216 1118.49Z" fill="#9F9F9F"/>
<path id="ramapubica_der" d="M468.977 1097.75C470.695 1092.87 472.545 1088.04 473.09 1087.01C473.949 1085.39 474.548 1085.99 477.604 1091.51C479.542 1095.01 489.341 1111.62 499.379 1128.42C509.417 1145.21 521.767 1166.36 526.823 1175.4C538.657 1196.58 570.859 1261.17 570.859 1263.74C570.859 1265.48 570.511 1265.37 567.742 1262.76C566.027 1261.15 560.545 1254.45 555.562 1247.88C519.798 1200.73 483.919 1160.35 459.924 1140.25L454.464 1135.67L460.159 1121.15C463.291 1113.16 467.259 1102.63 468.977 1097.75Z" fill="#9F9F9F"/>
<path id="ramapubica_izq" d="M672.442 1201.95C687.858 1173.1 708.995 1136.7 734.412 1095.25C737.66 1089.95 740.619 1085.79 740.987 1086.01C741.356 1086.23 743.549 1092.13 745.861 1099.14C748.173 1106.14 752.063 1117.18 754.505 1123.66L758.946 1135.44L753.631 1140.04C742.882 1149.33 707.009 1186.26 696.518 1198.83C690.573 1205.95 677.891 1221.91 668.336 1234.3C649.949 1258.14 643.841 1265.04 643.841 1261.95C643.841 1259.41 661.22 1222.95 672.442 1201.95Z" fill="#9F9F9F"/>
<path id="mu&#195;&#177;ecaanterior_der" d="M130.091 1123.84C133.267 1118.83 138.82 1114.83 146.278 1112.18C150.4 1110.71 153.825 1110.39 162.985 1110.61C173.9 1110.86 174.874 1111.06 181.48 1114.37C187.447 1117.37 188.927 1118.67 191.735 1123.37C197.182 1132.5 198.951 1139.89 198.951 1153.52V1165.47L190.531 1181.16C182.815 1195.54 176.979 1208.31 172.517 1220.59C171.569 1223.2 170.338 1225.34 169.783 1225.34C168.764 1225.34 103.99 1195.7 103.131 1194.84C102.876 1194.58 104.063 1191.33 105.771 1187.61C109.117 1180.33 116.043 1161.59 122.988 1141.03C125.371 1133.98 128.567 1126.24 130.091 1123.84Z" fill="#9F9F9F"/>
<path id="mu&#195;&#177;ecaanterior_izq" d="M1022.86 1121.87C1026.31 1117.05 1030.6 1113.91 1036.63 1111.76C1042.37 1109.7 1058.4 1110.03 1065.92 1112.35C1073.22 1114.6 1080.82 1119.29 1083.67 1123.28C1084.73 1124.77 1089.5 1137.44 1094.27 1151.42C1099.04 1165.41 1104.76 1180.8 1106.98 1185.62C1109.21 1190.43 1110.85 1194.56 1110.63 1194.77C1110.41 1194.99 1102.58 1198.77 1093.23 1203.16C1083.88 1207.56 1069.05 1214.56 1060.27 1218.73C1051.49 1222.9 1044.01 1225.98 1043.64 1225.57C1043.27 1225.17 1041.3 1220.57 1039.26 1215.34C1037.22 1210.12 1030.82 1196.25 1025.04 1184.52L1014.52 1163.2L1014.97 1150.53C1015.48 1136.25 1017.32 1129.58 1022.86 1121.87Z" fill="#9F9F9F"/>
<path id="musloanterior_der" d="M409.635 1201.5C426.511 1184.49 441.821 1163.07 449.459 1145.8L451.938 1140.19L460.661 1148.19C487.073 1172.4 516.906 1206.12 544.848 1243.33C556.417 1258.74 567.482 1271.72 575.1 1278.82L582.607 1285.82L585.209 1296.82C592.329 1326.9 594.219 1345.78 593.587 1380.49C593.196 1401.96 592.434 1413.55 590.016 1434.77C581.764 1507.21 580.287 1535.57 581.473 1598.72C582.539 1655.45 582.372 1741.2 581.186 1746.53L580.329 1750.38L576.484 1744.8C571.777 1737.96 561.16 1727.82 552.706 1722.08C539.504 1713.11 526.108 1709.23 508.255 1709.21C488.248 1709.18 472.848 1713.27 458.667 1722.38C451.001 1727.31 438.46 1740.03 434.393 1747C432.743 1749.82 431.086 1752.15 430.712 1752.16C430.337 1752.17 429.291 1748.69 428.388 1744.43C423.351 1720.67 409.387 1673.8 388.395 1610.22C364.761 1538.63 358.218 1515.96 343.539 1454.77C329.031 1394.29 322.772 1358.43 318.942 1313.81C317.732 1299.72 317.036 1249.9 318.034 1248.89C318.371 1248.55 322.42 1247.84 327.032 1247.32C344.305 1245.36 356.192 1241 374.907 1229.77C387.404 1222.28 395.85 1215.4 409.635 1201.5Z" fill="#9F9F9F"/>
<path id="musloanterior_izq" d="M677.485 1231.78C697.81 1205.12 710.192 1190.93 735.206 1165.61C748.379 1152.27 759.719 1141.37 760.407 1141.37C761.094 1141.37 764.155 1146.02 767.209 1151.72C787.642 1189.81 817.086 1219.79 850.29 1236.31C863.739 1243 873.075 1245.88 886.23 1247.38C891.151 1247.94 895.392 1248.61 895.656 1248.87C895.919 1249.14 896.084 1260.71 896.023 1274.58C895.733 1340.2 884.125 1408.67 855.666 1512.67C848.212 1539.91 844.14 1553.13 827.321 1604.72C803.75 1677.02 794.457 1707.84 787.358 1737.25C785.484 1745.01 783.761 1751.55 783.53 1751.79C783.298 1752.02 781.531 1749.84 779.602 1746.94C757.865 1714.32 717.263 1700.78 679.05 1713.4C663.83 1718.42 648.291 1730.11 636.708 1745.24C635.259 1747.13 633.729 1748.35 633.309 1747.94C631.133 1745.86 630.257 1682.85 631.867 1644.21C633.637 1601.7 634.088 1559.18 632.969 1540.24C630.978 1506.57 624.536 1434.48 621.8 1415.28C621.212 1411.16 620.485 1394.96 620.182 1379.29C619.693 1353.97 619.869 1348.96 621.762 1334.31C624.006 1316.94 628.007 1295.94 630.324 1289.38C631.218 1286.84 634.8 1282.39 640.553 1276.65C649.71 1267.52 656.746 1258.97 677.485 1231.78Z" fill="#9F9F9F"/>
<path id="manoanterior_der" d="M72.4891 1222.4C79.0835 1217.75 87.8533 1210.53 91.9773 1206.35C96.5541 1201.7 100.059 1198.92 100.975 1199.2C103.835 1200.09 156.444 1225.44 162.836 1229.01L169.26 1232.6L168.688 1257.21C167.997 1286.97 166.928 1293.02 156.972 1323.57L149.984 1345L141.616 1345.59C137.014 1345.92 129.249 1346.94 124.36 1347.86C117.67 1349.12 112.257 1349.4 102.475 1349C84.5781 1348.28 76.1172 1345.46 63.7553 1336.1C60.605 1333.72 55.0944 1330.21 51.5083 1328.32C46.6905 1325.77 45.0009 1324.34 45.0359 1322.84C45.0619 1321.72 47.4663 1314.51 50.3786 1306.81L55.6743 1292.82L63.4933 1292.1C71.8583 1291.33 81.5529 1287.46 90.4706 1281.33C100.641 1274.33 114.431 1258.45 116.516 1251.33C117.018 1249.62 115.89 1250.56 112.919 1254.33C106.976 1261.88 93.06 1275.33 86.5886 1279.79C77.3039 1286.19 57.0379 1291.94 56.9549 1288.21C56.839 1282.97 54.7545 1271.78 53.0509 1267.24C51.9322 1264.27 49.0109 1259.39 46.5585 1256.4L42.0996 1250.98L45.2938 1246.91C51.5703 1238.92 60.684 1230.71 72.4891 1222.4Z" fill="#9F9F9F"/>
<path id="manoanterior_izq" d="M1044.43 1232.38L1077.83 1215.95C1096.2 1206.91 1111.85 1199.48 1112.61 1199.43C1113.38 1199.38 1117.43 1202.61 1121.61 1206.61C1125.8 1210.6 1133.04 1216.52 1137.72 1219.77C1151.8 1229.56 1158.9 1235.65 1165.4 1243.52L1171.59 1251.02L1167.5 1255.92C1161.26 1263.42 1158.96 1269.37 1158.15 1280.17L1157.44 1289.51L1152.83 1288.86C1145.75 1287.87 1137.9 1285.44 1131.72 1282.32C1121.24 1277.03 1107.83 1264.97 1101.02 1254.71C1097.07 1248.77 1095.82 1248.26 1098.03 1253.47C1100.42 1259.12 1108.63 1269.15 1115.76 1275.14C1128.34 1285.7 1139.24 1290.88 1151.2 1292L1157.45 1292.58L1163.74 1308.96C1167.19 1317.96 1169.84 1325.5 1169.62 1325.7C1169.39 1325.9 1166.29 1327.53 1162.71 1329.31C1159.14 1331.09 1153.21 1334.76 1149.54 1337.46C1139.81 1344.64 1120.06 1352.05 1113.44 1351.01C1111.67 1350.74 1106.48 1350.92 1101.91 1351.42C1094.39 1352.25 1093.16 1352.13 1088.92 1350.18C1085.61 1348.67 1081.32 1347.85 1074.33 1347.42L1064.42 1346.8L1056.55 1322.31C1047.27 1293.42 1046.11 1286.52 1045.12 1254.6L1044.43 1232.38Z" fill="#9F9F9F"/>
<path id="pulgarant_der" d="M20.9948 1290.14C20.9948 1289.59 25.1568 1281.54 30.2425 1272.27C35.3283 1263 39.9401 1255.4 40.49 1255.37C41.9996 1255.31 46.7604 1263.35 48.9049 1269.59C49.9497 1272.62 51.1174 1278.02 51.4983 1281.58L52.1921 1288.06L43.9621 1297.23C39.4353 1302.27 35.4262 1306.26 35.0523 1306.1C33.6687 1305.51 20.9948 1291.12 20.9948 1290.14Z" fill="#9F9F9F"/>
<path id="pulgarant_izq" d="M1162.69 1280.08C1163.63 1270.98 1166.03 1264.22 1170.36 1258.54C1172.52 1255.72 1173.17 1255.37 1174.25 1256.49C1176.21 1258.52 1192.71 1287.78 1192.71 1289.23C1192.71 1290.5 1177.91 1305.97 1177.42 1305.22C1177.27 1305 1173.69 1301.2 1169.47 1296.79L1161.79 1288.76L1162.69 1280.08Z" fill="#9F9F9F"/>
<path id="pulgarant_izq_2" d="M1181.71 1312.33C1181.71 1309.71 1187.01 1300.93 1191.53 1296.07C1195.44 1291.86 1194.3 1290.84 1206.27 1309.23C1213.86 1320.9 1214.89 1323.97 1212.13 1326.74C1210 1328.86 1199.67 1328.84 1195.4 1326.7C1190.1 1324.04 1181.71 1315.24 1181.71 1312.33Z" fill="#9F9F9F"/>
<path id="pulgarant_der_2" d="M0 1324.06C0 1322.8 3.91403 1315.59 8.69885 1308.04C13.4827 1300.49 17.9466 1294.32 18.6194 1294.32C20.129 1294.32 25.3927 1299.51 29.1668 1304.71C33.1238 1310.17 32.8249 1313.21 27.7101 1319.52C22.3475 1326.14 18.1885 1328.3 10.8123 1328.31C3.31318 1328.31 0 1327.01 0 1324.06Z" fill="#9F9F9F"/>
<path id="dedosmanoanterior_der" d="M32.1811 1362.03C32.0101 1360.59 34.1666 1352.19 36.9739 1343.36L42.0776 1327.3L45.2828 1328.95C53.2729 1333.04 63.9822 1340.61 63.9562 1342.15C63.9182 1344.45 54.4856 1369.2 53.1319 1370.55C52.3261 1371.35 51.4093 1371.32 49.7387 1370.43C48.479 1369.75 44.0841 1368.18 39.9711 1366.93C33.3488 1364.91 32.456 1364.35 32.1811 1362.03Z" fill="#9F9F9F"/>
<path id="dedosmanoanterior_izq" d="M1150.72 1343.24C1150.72 1341.9 1153.54 1339.48 1159.96 1335.33C1165.05 1332.04 1169.75 1329.34 1170.4 1329.33C1171.79 1329.3 1183.08 1362.87 1182.34 1364.8C1182.07 1365.51 1180.06 1366.4 1177.88 1366.77C1175.7 1367.13 1171.1 1368.77 1167.65 1370.4C1164.2 1372.03 1161.07 1373.01 1160.68 1372.58C1159.53 1371.3 1150.72 1345.34 1150.72 1343.24Z" fill="#9F9F9F"/>
<path id="dedosmanoanterior_der_2" d="M65.8447 1365.18C68.0292 1358.37 70.1147 1351.34 70.4796 1349.55C70.8435 1347.76 71.4423 1346.3 71.8092 1346.3C72.1762 1346.3 76.69 1347.71 81.8388 1349.42L91.2005 1352.54L90.6896 1355.67C90.2367 1358.44 81.2639 1384.27 80.4551 1385.13C79.8023 1385.82 62.7145 1379.75 62.3016 1378.68C62.0647 1378.06 63.6593 1371.98 65.8447 1365.18Z" fill="#9F9F9F"/>
<path id="dedosmanoanterior_izq_2" d="M1122.93 1354.45C1123.1 1353.59 1126.6 1351.8 1131.22 1350.21C1140.29 1347.09 1142.62 1346.77 1143.16 1348.55C1148.29 1365.3 1152.82 1381.52 1152.48 1381.86C1151.44 1382.9 1134.39 1388.2 1133.62 1387.73C1132.45 1387 1122.58 1356.27 1122.93 1354.45Z" fill="#9F9F9F"/>
<path id="dedosmanoanterior_der_3" d="M129.828 1351.7C131.28 1351.39 132.917 1350.98 133.467 1350.79C135.564 1350.09 147.963 1350.34 147.963 1351.08C147.963 1352.86 142.69 1367.97 141.33 1370.09C140.43 1371.49 139.193 1372.21 138.16 1371.92C137.228 1371.66 133.205 1370.92 129.218 1370.28C120.711 1368.91 120.62 1368.69 124.579 1358.8C126.69 1353.53 127.692 1352.17 129.828 1351.7Z" fill="#9F9F9F"/>
<path id="dedosmanoanterior_izq_3" d="M1072.7 1372.61C1071.88 1371.73 1065.74 1352.93 1065.74 1351.29C1065.74 1350.07 1067.4 1350.07 1075.9 1351.3C1085.74 1352.73 1087.39 1353.76 1089.72 1359.99C1090.82 1362.95 1091.73 1366.48 1091.73 1367.83C1091.73 1369.92 1091.26 1370.29 1088.62 1370.29C1086.92 1370.29 1082.81 1371 1079.49 1371.86C1076.17 1372.72 1073.12 1373.05 1072.7 1372.61Z" fill="#9F9F9F"/>
<path id="dedosmanoanterior_der_4" d="M94.9205 1368.97C96.1412 1362.82 97.3399 1356.77 97.5859 1355.51C98.0188 1353.3 98.3207 1353.24 107.739 1353.51C116.264 1353.76 117.491 1354.03 117.802 1355.65C118.184 1357.65 112.214 1385.28 110.964 1387.3C109.983 1388.89 94.0997 1383.78 93.2669 1381.6C92.956 1380.8 93.7008 1375.11 94.9205 1368.97Z" fill="#9F9F9F"/>
<path id="dedosmanoanterior_izq_4" d="M1103.97 1389.86C1103.14 1389.03 1095.74 1359.99 1095.73 1357.55C1095.73 1355.37 1096.03 1355.3 1105.64 1355.3H1115.54L1118.63 1368.08C1120.33 1375.1 1121.72 1381.58 1121.72 1382.47C1121.72 1383.6 1120.15 1384.45 1116.47 1385.3C1113.59 1385.97 1109.71 1387.38 1107.85 1388.44C1105.99 1389.5 1104.25 1390.14 1103.97 1389.86Z" fill="#9F9F9F"/>
<path id="dedosmanoanterior_der_5" d="M20.9948 1393.91C20.9948 1392.58 25.6287 1377.15 28.0151 1370.54C29.4667 1366.52 30.3215 1366.51 41.5797 1370.28C46.4795 1371.92 50.5995 1373.27 50.7375 1373.28C52.2931 1373.36 42.3855 1397.13 39.5722 1400.08C38.5705 1401.12 36.9179 1400.79 30.7504 1398.33C26.5764 1396.65 22.6734 1395.29 22.0775 1395.29C21.4827 1395.29 20.9948 1394.67 20.9948 1393.91Z" fill="#9F9F9F"/>
<path id="dedosmanoanterior_izq_5" d="M1162.71 1376.68C1162.71 1375.05 1165.15 1373.72 1173.61 1370.73C1184.43 1366.91 1184.43 1366.91 1188.97 1380.57C1192.97 1392.57 1193.15 1395.29 1189.99 1395.29C1189.01 1395.29 1185.35 1396.64 1181.86 1398.29C1178.38 1399.94 1175.08 1401.01 1174.53 1400.68C1173.28 1399.9 1162.71 1378.45 1162.71 1376.68Z" fill="#9F9F9F"/>
<path id="dedosmanoanterior_der_6" d="M116.185 1394.83C115.596 1394.25 117.524 1383.75 119.53 1376.61L120.987 1371.43L128.227 1373.48L128.631 1373.59C132.481 1374.68 136.33 1375.77 137.308 1376.05C139.267 1376.61 139.181 1379.27 136.852 1390.29C135.271 1397.78 135.353 1397.73 125.42 1396.45C120.608 1395.83 116.452 1395.1 116.185 1394.83Z" fill="#9F9F9F"/>
<path id="dedosmanoanterior_izq_6" d="M1083.97 1374.34C1087.12 1373.69 1089.96 1372.74 1090.27 1372.23C1091.26 1370.62 1092.75 1371.2 1093.62 1373.54C1094.99 1377.24 1098.18 1394.17 1097.61 1394.74C1097.32 1395.03 1093.97 1395.9 1090.16 1396.69C1086.35 1397.47 1082.32 1398.4 1081.19 1398.76C1079.34 1399.35 1078.96 1398.58 1076.93 1390.1C1075.7 1384.98 1074.71 1380.02 1074.72 1379.08C1074.74 1376.88 1076.85 1375.8 1083.97 1374.34Z" fill="#9F9F9F"/>
<path id="dedosmanoanterior_der_7" d="M50.9874 1413.31C50.9874 1408.52 57.0189 1388.37 59.3294 1385.44C60.74 1383.65 65.5348 1384.48 72.6471 1387.74C78.2057 1390.28 78.2377 1390.32 77.6458 1393.96C77.3189 1395.98 75.6163 1402.54 73.8618 1408.54C70.7375 1419.23 70.6196 1419.44 68.0782 1418.83C66.6516 1418.49 62.2217 1417.69 58.2356 1417.05C51.4193 1415.95 50.9874 1415.73 50.9874 1413.31Z" fill="#9F9F9F"/>
<path id="dedosmanoanterior_izq_7" d="M1136.01 1392.97C1136.34 1392.1 1139.45 1390.49 1142.92 1389.4C1146.38 1388.3 1150.67 1387.38 1152.44 1387.35C1155.96 1387.28 1155.49 1386.28 1161.17 1406.22C1164.1 1416.53 1163.89 1416.78 1151.19 1417.91C1145.85 1418.39 1143.9 1418.21 1143.03 1417.16C1141.22 1414.97 1135.34 1394.72 1136.01 1392.97Z" fill="#9F9F9F"/>
<path id="dedosmanoanterior_der_8" d="M83.9792 1413.43C83.9792 1411.64 87.1955 1398.51 89.098 1392.54C90.0767 1389.46 90.3867 1389.29 94.8046 1389.37C102.424 1389.5 108.424 1391.44 108.774 1393.9C109.064 1395.93 102.849 1416.43 101.144 1419.07C99.8553 1421.06 83.9792 1415.84 83.9792 1413.43Z" fill="#9F9F9F"/>
<path id="dedosmanoanterior_izq_8" d="M1104.73 1395.25C1104.73 1393 1105.68 1392.37 1111.6 1390.74C1114.14 1390.04 1117.9 1389.43 1119.95 1389.38C1123.6 1389.29 1123.69 1389.38 1125.16 1394.54C1128.39 1405.93 1129.93 1413.31 1129.37 1414.76C1129.05 1415.6 1127.86 1416.28 1126.73 1416.28C1125.6 1416.28 1122.19 1417.15 1119.15 1418.22L1113.63 1420.16L1112.71 1417.97C1109.35 1409.95 1104.73 1396.79 1104.73 1395.25Z" fill="#9F9F9F"/>
<path id="dedosmanoanterior_der_9" d="M114.535 1410.83C114.923 1404.76 115.643 1399.53 116.136 1399.21C117.064 1398.61 125.391 1399.55 130.218 1400.79C133.632 1401.67 133.667 1403.02 130.519 1412.33C126.692 1423.64 119.738 1429.18 115.671 1424.16C114.024 1422.12 113.904 1420.71 114.535 1410.83Z" fill="#9F9F9F"/>
<path id="dedosmanoanterior_izq_9" d="M1082.17 1406.64C1081.43 1401.97 1081.74 1401.63 1088.6 1399.74C1091.15 1399.04 1094.47 1398.42 1095.98 1398.37L1098.73 1398.29V1409.85C1098.73 1416.21 1098.26 1422.28 1097.69 1423.34C1096.47 1425.63 1093 1425.86 1090.12 1423.83C1087.61 1422.08 1083.07 1412.26 1082.17 1406.64Z" fill="#9F9F9F"/>
<path id="dedosmanoanterior_izq_10" d="M1181.23 1411.76C1177.61 1405.04 1178.13 1403.77 1185.8 1400.6C1194.2 1397.15 1194.28 1397.19 1197.23 1406.53C1198.65 1411.07 1200.07 1417.25 1200.38 1420.28C1200.85 1425.04 1200.64 1426.04 1198.79 1427.71C1194.44 1431.63 1189.54 1427.17 1181.23 1411.76Z" fill="#9F9F9F"/>
<path id="dedosmanoanterior_der_10" d="M17.2068 1429.23C13.0108 1426.88 13.1228 1419.32 17.5777 1404.32C18.4195 1401.48 19.6652 1399.29 20.428 1399.29C23.4782 1399.29 35.1353 1403.49 35.6262 1404.77C36.424 1406.85 27.4852 1423.41 23.4562 1427.31C20.0521 1430.61 19.8151 1430.69 17.2068 1429.23Z" fill="#9F9F9F"/>
<path id="dedosmanoanterior_der_11" d="M44.9959 1445.87C45.0019 1440 47.4873 1426.02 49.5188 1420.41C49.9087 1419.34 51.6532 1419.19 57.7487 1419.73C68.924 1420.71 68.941 1420.71 68.2881 1425.07C66.2006 1439.03 56.2261 1456.27 50.2396 1456.27C46.5085 1456.27 44.9889 1453.25 44.9959 1445.87Z" fill="#9F9F9F"/>
<path id="dedosmanoanterior_der_12" d="M78.2616 1438.49C78.5666 1433.7 79.5403 1427.43 80.4271 1424.56C82.0077 1419.44 82.1007 1419.35 85.2589 1419.97C87.0295 1420.32 90.7276 1421.37 93.4769 1422.3C98.3707 1423.97 98.4737 1424.09 98.4027 1427.96C98.3227 1432.27 93.4179 1443.69 89.3749 1448.99C86.1847 1453.18 81.8318 1453.5 79.3664 1449.74C78.0147 1447.67 77.8098 1445.59 78.2616 1438.49Z" fill="#9F9F9F"/>
<path id="dedosmanoanterior_izq_11" d="M1115.03 1424.64C1115.39 1424.28 1118.06 1423.15 1120.95 1422.14C1128.96 1419.34 1131.73 1419.92 1133.44 1424.78C1134.22 1426.98 1135.11 1432.95 1135.43 1438.05C1135.98 1446.79 1135.88 1447.47 1133.69 1449.8C1130.7 1452.99 1128.7 1452.92 1125.52 1449.52C1121.01 1444.72 1113.28 1426.39 1115.03 1424.64Z" fill="#9F9F9F"/>
<path id="dedosmanoanterior_izq_12" d="M1145.95 1427.33C1145.51 1422.76 1145.68 1422.22 1147.84 1421.34C1149.15 1420.8 1153.36 1420.46 1157.21 1420.57L1164.21 1420.78L1166.4 1429.28C1168.84 1438.74 1169.44 1452.14 1167.51 1454.07C1165.28 1456.3 1161.1 1455.42 1157.76 1452.02C1153.21 1447.38 1146.53 1433.43 1145.95 1427.33Z" fill="#9F9F9F"/>
<path id="rodillaanterior_der" d="M455.962 1732.1C464.097 1725.51 474.549 1720.51 488.37 1716.61C495.49 1714.59 522.45 1715.27 529.369 1717.64C550.742 1724.95 565.953 1737.53 576.382 1756.51L580.137 1763.35L578.915 1782C577.305 1806.56 575.542 1821.42 571.363 1845.65C569.466 1856.64 567.443 1869.84 566.868 1874.98C566.292 1880.11 565.184 1885.54 564.406 1887.05C561.885 1891.92 550.505 1901.57 542.165 1905.91C520.637 1917.11 494.874 1916.76 472.741 1904.97C460.165 1898.27 450.549 1886.55 439.56 1864.53L434.018 1853.43L433.811 1808.31L433.605 1763.2L436.828 1756.65C440.693 1748.8 449.857 1737.04 455.962 1732.1Z" fill="#9F9F9F"/>
<path id="rodillaanterior_izq" d="M648.169 1741.11C655.955 1731.29 671.847 1721.02 685.331 1717.08C693.253 1714.77 716.531 1714.56 725.692 1716.72C748.631 1722.13 766.034 1735.39 776.151 1755.18L780.843 1764.36L780.185 1808L779.527 1851.65L776.655 1858.95C765.672 1886.89 751.026 1902.42 727.784 1910.79C721.04 1913.21 718.927 1913.48 705.826 1913.55C694.442 1913.61 690.041 1913.23 685.331 1911.79C672.077 1907.74 660.379 1900.39 651.638 1890.63C648.098 1886.68 648.039 1886.47 646.888 1873.64C646.246 1866.49 644.637 1855.02 643.311 1848.15C639.257 1827.14 638.007 1817.97 636.812 1800.47C636.18 1791.23 635.323 1778.94 634.907 1773.17L634.149 1762.67L638.951 1754.68C641.591 1750.28 645.739 1744.17 648.169 1741.11Z" fill="#9F9F9F"/>
<path id="pierna_izq" d="M723.821 1918.74C746.313 1912.93 765.64 1896.28 777.737 1872.29C779.497 1868.8 781.122 1866.12 781.347 1866.35C781.866 1866.87 788.05 1905.9 790.739 1925.62C794.775 1955.24 796.016 1997.39 793.741 2027.59C791.341 2059.45 781.216 2106.41 762.734 2171.38C759.424 2183.02 753.786 2203.79 750.206 2217.53C746.625 2231.28 740.571 2254.36 736.751 2268.83C732.931 2283.3 728.938 2300.54 727.878 2307.14C725.809 2320.04 724.505 2322.99 719.518 2326.07C712.363 2330.49 703.087 2332.48 690.329 2332.35C676.919 2332.2 670.657 2330.61 658.587 2324.29C650.86 2320.24 651.086 2321 653.452 2307C654.623 2300.08 655.034 2291.41 654.968 2275.01C654.861 2248.04 654.631 2244.31 650.306 2199.54C643.708 2131.22 641.821 2112.28 639.256 2088.57C637.346 2070.92 636.52 2056.9 636.129 2035.52C635.506 2001.53 636.452 1986.59 641.408 1952.11C643.346 1938.64 645.526 1920.74 646.256 1912.34C646.985 1903.93 647.858 1896.78 648.196 1896.44C648.533 1896.11 650.953 1897.83 653.573 1900.27C662.503 1908.6 674.378 1915.47 685.383 1918.69C693.476 1921.06 714.72 1921.09 723.821 1918.74Z" fill="#9F9F9F"/>
<path id="pierna_der" d="M425.981 1906.13C429.236 1883.6 431.722 1869.23 432.618 1867.78C433.324 1866.63 434.167 1867.85 439.762 1878.06C448.605 1894.2 459.545 1904.83 475.382 1912.67C488.912 1919.37 494.314 1920.41 512.792 1919.89C527.448 1919.47 528.791 1919.27 535.504 1916.39C544.595 1912.49 552.176 1907.64 559.468 1901.03C564.64 1896.35 565.316 1896.01 566.004 1897.72C566.427 1898.77 567.482 1906.83 568.349 1915.63C569.217 1924.42 571.236 1940.84 572.836 1952.11C577.769 1986.87 578.085 1992.07 577.589 2030.62C577.149 2064.9 576.889 2068.92 572.023 2116.57C558.197 2251.96 556.349 2282.22 560.346 2307.79C562.458 2321.29 562.653 2320.9 551.013 2326.37C532.543 2335.03 512.281 2335.28 495.943 2327.03C492.688 2325.39 489.741 2323.58 489.394 2323.02C489.047 2322.46 487.864 2316.72 486.767 2310.26C483.532 2291.23 472.949 2250.27 446.528 2154.55C433.124 2105.99 425.702 2072.46 421.745 2042.59C419.771 2027.69 419.493 2021.22 419.494 1990.1C419.494 1952.21 419.688 1949.7 425.981 1906.13Z" fill="#9F9F9F"/>
<path id="tobillonanterior_der" d="M544.951 2335.17C549.123 2333.4 554.972 2330.41 557.948 2328.53C560.925 2326.65 563.635 2325.42 563.971 2325.81C564.772 2326.72 570.455 2351.55 571.907 2360.49C572.812 2366.06 572.744 2369.78 571.572 2378.78C570.762 2384.99 569.828 2390.34 569.495 2390.68C569.163 2391.01 565.623 2390.33 561.627 2389.17C549.83 2385.75 542.113 2384.7 528.869 2384.71C518.089 2384.72 515.274 2385.08 508.374 2387.35C503.975 2388.8 497.909 2391.35 494.894 2393.02C489.972 2395.75 489.291 2395.89 488.236 2394.45C484.898 2389.89 483.898 2368.35 486.301 2352.73C487.083 2347.65 488.018 2340.46 488.38 2336.75C488.742 2333.03 489.234 2330 489.474 2330C489.713 2330 492.267 2331.33 495.151 2332.96C503.644 2337.75 511.389 2339.25 525.279 2338.8C536.189 2338.44 538.106 2338.09 544.951 2335.17Z" fill="#9F9F9F"/>
<path id="tobillonanterior_izq" d="M644.779 2347.14C646.394 2339.64 647.99 2331.81 648.324 2329.75C649.003 2325.55 650.398 2325.08 653.953 2327.86C662.233 2334.33 673.937 2338.08 687.83 2338.72C701.027 2339.32 707.907 2338 717.936 2332.94C724.766 2329.49 725.778 2329.85 725.806 2335.72C725.814 2337.49 726.544 2343.78 727.428 2349.71C729.063 2360.66 729.016 2388.36 727.356 2392.23C726.414 2394.43 722.691 2394.48 718.581 2392.35C701.679 2383.61 681.035 2382.37 655.997 2388.57C650.311 2389.98 645.423 2390.9 645.137 2390.61C644.85 2390.32 644.007 2387.25 643.263 2383.78C641.046 2373.45 641.504 2362.36 644.779 2347.14Z" fill="#9F9F9F"/>
<path id="mediopie_der" d="M491.684 2398.85C492.998 2397.67 506.073 2392.84 513.215 2390.9C523.168 2388.19 540.44 2388.82 554.256 2392.38C559.696 2393.79 565.195 2395.62 566.477 2396.46C569.115 2398.19 571.286 2404.69 572.821 2415.47C573.911 2423.12 574.23 2449.25 573.246 2450.24C572.91 2450.57 568.974 2448.88 564.498 2446.48C553.288 2440.46 546.285 2438.58 535.368 2438.63C521.65 2438.71 500.106 2444.35 482.567 2452.47C479.37 2453.95 476.493 2454.9 476.175 2454.58C475.856 2454.27 477.855 2447.81 480.615 2440.24C485.987 2425.5 488.156 2417.61 489.897 2406.47C490.499 2402.62 491.303 2399.19 491.684 2398.85Z" fill="#9F9F9F"/>
<path id="mediopie_izq" d="M642.699 2409.17C645.915 2396.35 647.004 2395.29 660.429 2391.86C673.163 2388.61 682.415 2388.26 695.447 2390.53C706.78 2392.5 714.336 2394.66 719.085 2397.28C723.228 2399.57 723.099 2399.23 726.531 2416.97C727.648 2422.74 730.469 2432.42 732.8 2438.46C739.327 2455.4 739.643 2454.52 728.705 2449.8C716.737 2444.64 697.253 2439.31 687.198 2438.44C673.24 2437.23 657.884 2440.9 646.552 2448.15C643.92 2449.84 641.445 2450.9 641.054 2450.51C640.662 2450.11 640.347 2442.75 640.354 2434.13C640.363 2421.07 640.753 2416.93 642.699 2409.17Z" fill="#9F9F9F"/>
<path id="antepie_izq" d="M643.417 2457.05C646.3 2453.62 657.638 2447.53 664.96 2445.47C682.092 2440.66 720.753 2448.77 737.948 2460.78C742.345 2463.85 744.081 2466.04 748.026 2473.47C754.072 2484.86 758.812 2496.97 758.812 2501.02C758.812 2504.05 758.689 2504.14 755.436 2503.53C751.246 2502.75 748.055 2503.92 743.517 2507.9C740.176 2510.83 739.768 2510.94 735.467 2509.97C730.093 2508.77 728.352 2509.26 724.191 2513.17L721.061 2516.1L716.322 2514.49C711.21 2512.76 708.877 2513.1 704.655 2516.22C702.251 2518 701.352 2518.11 696.696 2517.19C689.757 2515.82 682.838 2517.57 678.464 2521.81C676.69 2523.53 674.984 2524.94 674.673 2524.94C674.362 2524.94 672.41 2523.59 670.334 2521.94C666.965 2519.26 665.821 2518.94 659.667 2518.94C655.705 2518.94 651.194 2519.6 649.058 2520.49C644.143 2522.54 639.146 2527.48 637.766 2531.66C636.349 2535.96 634.548 2535.38 633.654 2530.35C631.914 2520.56 632.803 2506.52 636.249 2489.38C638.121 2480.07 639.968 2469.62 640.352 2466.16C640.844 2461.71 641.743 2459.04 643.417 2457.05Z" fill="#9F9F9F"/>
<path id="antepie_der" d="M477.18 2460.95C484.363 2456.81 500.656 2450.53 511.942 2447.55C522.299 2444.81 536.405 2444.17 547.365 2445.94C554.427 2447.08 569.252 2454.1 571.345 2457.3C572.148 2458.52 573.273 2462.88 573.846 2466.99C574.419 2471.09 576.506 2482.33 578.482 2491.95C581.699 2507.61 582.024 2510.59 581.586 2520.44C581.317 2526.49 580.526 2532.66 579.828 2534.16L578.559 2536.88L576.317 2532.04C570.873 2520.29 556.535 2515.72 544.382 2521.85L538.617 2524.75L535.33 2521.47C530.608 2516.75 523.337 2515.11 517.309 2517.41L512.863 2519.11L509.689 2516.44C506.912 2514.1 505.96 2513.85 502.066 2514.43C499.619 2514.8 496.548 2515.59 495.244 2516.18C493.131 2517.15 492.504 2516.84 489.537 2513.41C486.755 2510.19 485.555 2509.54 482.292 2509.5C480.141 2509.47 477.153 2509.79 475.652 2510.21C473.367 2510.85 472.284 2510.4 469.032 2507.46C465.533 2504.3 464.564 2503.94 459.391 2503.94H453.638L454.216 2501.06C455.026 2497 463.329 2478.77 468.038 2470.7C471.168 2465.33 473.053 2463.32 477.18 2460.95Z" fill="#9F9F9F"/>
<path id="dedospie_der" d="M453.113 2519.81C452.692 2511.88 452.838 2510.99 454.884 2508.95C456.643 2507.19 457.848 2506.84 460.604 2507.28C465.606 2508.1 468.884 2510.53 468.884 2513.44C468.884 2519 461.059 2535.93 458.491 2535.93C456.019 2535.93 453.58 2528.62 453.113 2519.81Z" fill="#9F9F9F"/>
<path id="dedospie_izq" d="M745.211 2512.5C745.558 2511.12 747.072 2509.32 748.578 2508.51C752.742 2506.25 757.414 2506.54 759.255 2509.16C761.086 2511.78 761.392 2524.31 759.769 2530.15C758.751 2533.81 756.477 2536.93 754.823 2536.93C752.126 2536.93 744.161 2516.69 745.211 2512.5Z" fill="#9F9F9F"/>
<path id="dedospie_der_2" d="M467.149 2538.62C467.752 2530.27 470.973 2519.37 473.953 2515.58C475.607 2513.48 476.879 2512.94 480.231 2512.94C482.544 2512.94 485.491 2513.68 486.782 2514.58C488.94 2516.1 489.088 2516.75 488.635 2522.83C488.146 2529.38 483.582 2543.07 480.346 2547.68C478.353 2550.52 474.481 2550.59 470.007 2547.86L466.63 2545.8L467.149 2538.62Z" fill="#9F9F9F"/>
<path id="dedospie_izq_2" d="M727.797 2532.65C722.966 2518.19 723.126 2515.78 729.031 2514.06C732.011 2513.19 737.136 2513.48 739.081 2514.63C741.741 2516.19 747.815 2534.55 747.815 2541.01C747.815 2542.53 746.65 2545.16 745.227 2546.85C743.154 2549.32 741.865 2549.93 738.751 2549.93C733.825 2549.93 733.278 2549.07 727.797 2532.65Z" fill="#9F9F9F"/>
<path id="dedospie_der_3" d="M487.749 2540.13C493.125 2525.4 495.9 2520.1 498.744 2519.14C501.182 2518.31 505.394 2518.91 507.841 2520.42C509.755 2521.6 508.893 2529.83 505.932 2538.66C504.313 2543.48 502.489 2549.98 501.878 2553.1C500.648 2559.38 499.837 2560.38 495.228 2561.37C492.596 2561.93 491.488 2561.52 488.479 2558.88C483.904 2554.86 483.756 2551.07 487.749 2540.13Z" fill="#9F9F9F"/>
<path id="dedospie_izq_3" d="M706.828 2533.94C704.354 2527.67 704.257 2522.22 706.572 2519.67C707.943 2518.15 709.237 2517.84 712.571 2518.21C714.909 2518.48 717.57 2519.31 718.483 2520.07C722.384 2523.29 730.182 2547.58 729.112 2553.18C728.823 2554.69 727 2557.32 725.06 2559.02C722.173 2561.56 720.971 2562.01 718.431 2561.5C713.342 2560.48 711.926 2558.16 710.312 2548.18C709.498 2543.14 707.93 2536.74 706.828 2533.94Z" fill="#9F9F9F"/>
<path id="dedospie_der_4" d="M512.967 2534.02C514.397 2527.64 516.628 2523.36 519.175 2522.13C522.639 2520.46 527.087 2520.77 530.639 2522.94C536.231 2526.35 536.516 2528.36 533.063 2540.09C531.39 2545.78 529.735 2552.9 529.385 2555.93C529.035 2558.95 528.117 2562.4 527.346 2563.59C524.412 2568.1 513.005 2569.21 507.389 2565.53C503.852 2563.21 504.104 2558.85 508.417 2547.68C510.366 2542.63 512.413 2536.49 512.967 2534.02Z" fill="#9F9F9F"/>
<path id="dedospie_izq_4" d="M678.233 2527.47C678.936 2524.67 681.696 2522.88 686.83 2521.89C695.552 2520.21 698.763 2523.14 702.228 2535.93C703.643 2541.16 705.774 2548.62 706.963 2552.51C708.298 2556.87 708.872 2560.6 708.462 2562.24C707.23 2567.14 699.866 2569.17 691.613 2566.88C686.443 2565.45 685.126 2563.78 684.364 2557.7C683.999 2554.8 682.33 2547.37 680.656 2541.19C678.846 2534.52 677.863 2528.95 678.233 2527.47Z" fill="#9F9F9F"/>
<path id="dedospie_izq_5" d="M642.439 2531.88C644.692 2528.03 649.507 2524.89 654.743 2523.87C663.554 2522.16 670.114 2525.11 673.367 2532.26C676.672 2539.52 680.832 2554.42 680.832 2558.99C680.832 2567.74 675.62 2572.17 665.34 2572.17C654.551 2572.17 646.199 2566.51 641.58 2556.07C638.977 2550.19 639.445 2537.01 642.439 2531.88Z" fill="#9F9F9F"/>
<path id="dedospie_der_5" d="M534.317 2564.83C530.159 2556.79 536.589 2534.77 545.341 2527.09C548.486 2524.33 549.646 2523.94 554.648 2523.96C560.768 2523.98 567.177 2526.32 570.083 2529.59C572.796 2532.65 574.858 2539.67 574.858 2545.86C574.858 2561.29 558.815 2575.41 545.184 2571.98C539.45 2570.54 536.146 2568.36 534.317 2564.83Z" fill="#9F9F9F"/>
</g>
</svg>
