<svg width="1214" height="2570" viewBox="0 0 1214 2570" fill="none" xmlns="http://www.w3.org/2000/svg">
<g id="vistacompletaposterior">
<g id="cabeza">
<path fill-rule="evenodd" clip-rule="evenodd" d="M590.32 0.563595C568.071 2.9556 545.915 10.9656 530.085 22.3386C508.801 37.6316 494.5 50.5636 490.286 83.9906L483.427 121.564V158.093C483.092 158.428 484.685 158.974 483.427 158.093C476.617 153.323 469.585 160.267 469.585 171.762C469.585 177.865 472.448 196.126 474.717 204.491C477.56 214.978 483.279 226.212 488.375 231.322C492.289 235.247 493.085 235.621 496.867 235.322L501.041 234.991L504.882 249.491C509.644 267.467 512.693 274.803 520.743 287.665L527.063 297.762L528.213 293.793C530.633 285.433 539.944 271.279 548.092 263.573C558.971 253.284 569.426 251.061 583.085 256.132C589.085 258.36 592.013 258.778 603.585 259.058C616.202 259.364 617.739 259.189 627.085 256.386C643.939 251.331 655.01 253.39 666.14 263.648C672.998 269.97 682.918 286.127 685.052 294.452L686.196 298.913L691.277 290.452C701.337 273.7 706.159 262.366 710.082 246.252C711.386 240.896 712.708 236.101 713.019 235.597C713.331 235.094 715.301 234.912 717.398 235.193C720.809 235.65 721.63 235.289 725.182 231.773C733.215 223.82 739.6 207.925 742 189.907C745.254 165.47 741.262 152.314 732.043 157.097C732.043 158 737.012 184.69 732.043 157.097C732.032 130.53 726.877 99.2046 724.785 90.3146C715.709 51.7486 700.292 29.8446 671.945 15.2426C661.561 9.8936 643.792 3.89859 632.244 1.84759C622.314 0.0845916 600.884 -0.571405 590.32 0.563595ZM590.32 0.563595C568.071 2.9556 545.915 10.9656 530.085 22.3386C508.801 37.6316 494.5 50.5636 490.286 83.9906L483.427 121.564V158.093C483.092 158.428 484.685 158.974 483.427 158.093C476.617 153.323 469.585 160.267 469.585 171.762C469.585 177.865 472.448 196.126 474.717 204.491C477.56 214.978 483.279 226.212 488.375 231.322C492.289 235.247 493.085 235.621 496.867 235.322L501.041 234.991L504.882 249.491C509.644 267.467 512.693 274.803 520.743 287.665L527.063 297.762L528.213 293.793C530.633 285.433 539.944 271.279 548.092 263.573M590.32 0.563595C568.071 2.9556 545.915 10.9656 530.085 22.3386C508.801 37.6316 494.5 50.5636 490.286 83.9906L483.427 121.564V158.093C483.092 158.428 484.685 158.974 483.427 158.093C476.617 153.323 469.585 160.267 469.585 171.762C469.585 177.865 472.448 196.126 474.717 204.491C477.56 214.978 483.279 226.212 488.375 231.322C492.289 235.247 493.085 235.621 496.867 235.322L501.041 234.991L504.882 249.491C509.644 267.467 512.693 274.803 520.743 287.665L527.063 297.762L528.213 293.793C530.633 285.433 539.944 271.279 548.092 263.573C558.971 253.284 569.426 251.061 583.085 256.132C589.085 258.36 592.013 258.778 603.585 259.058C616.202 259.364 617.739 259.189 627.085 256.386C643.939 251.331 655.01 253.39 666.14 263.648C672.998 269.97 682.918 286.127 685.052 294.452M590.32 0.563595C568.071 2.9556 545.915 10.9656 530.085 22.3386C508.801 37.6316 494.5 50.5636 490.286 83.9906L483.427 121.564V158.093C483.092 158.428 484.685 158.974 483.427 158.093C476.617 153.323 469.585 160.267 469.585 171.762C469.585 177.865 472.448 196.126 474.717 204.491C477.56 214.978 483.279 226.212 488.375 231.322C492.289 235.247 493.085 235.621 496.867 235.322L501.041 234.991M590.32 0.563595C568.071 2.9556 545.915 10.9656 530.085 22.3386C508.801 37.6316 494.5 50.5636 490.286 83.9906L483.427 121.564V158.093C483.092 158.428 484.685 158.974 483.427 158.093C476.617 153.323 469.585 160.267 469.585 171.762C469.585 177.865 472.448 196.126 474.717 204.491C477.56 214.978 483.279 226.212 488.375 231.322C492.289 235.247 493.085 235.621 496.867 235.322L501.041 234.991L504.882 249.491M590.32 0.563595C568.071 2.9556 545.915 10.9656 530.085 22.3386C508.801 37.6316 494.5 50.5636 490.286 83.9906L483.427 121.564V158.093C483.092 158.428 484.685 158.974 483.427 158.093C476.617 153.323 469.585 160.267 469.585 171.762C469.585 177.865 472.448 196.126 474.717 204.491C477.56 214.978 483.279 226.212 488.375 231.322C492.289 235.247 493.085 235.621 496.867 235.322L501.041 234.991L504.882 249.491C509.644 267.467 512.693 274.803 520.743 287.665M590.32 0.563595C568.071 2.9556 545.915 10.9656 530.085 22.3386C508.801 37.6316 494.5 50.5636 490.286 83.9906L483.427 121.564V158.093C483.092 158.428 484.685 158.974 483.427 158.093C476.617 153.323 469.585 160.267 469.585 171.762C469.585 177.865 472.448 196.126 474.717 204.491C477.56 214.978 483.279 226.212 488.375 231.322C492.289 235.247 493.085 235.621 496.867 235.322L501.041 234.991L504.882 249.491M590.32 0.563595C568.071 2.9556 545.915 10.9656 530.085 22.3386C508.801 37.6316 494.5 50.5636 490.286 83.9906L483.427 121.564V158.093C483.092 158.428 484.685 158.974 483.427 158.093C476.617 153.323 469.585 160.267 469.585 171.762C469.585 177.865 472.448 196.126 474.717 204.491C477.56 214.978 483.279 226.212 488.375 231.322C492.289 235.247 493.085 235.621 496.867 235.322L501.041 234.991L504.882 249.491C509.644 267.467 512.693 274.803 520.743 287.665L527.063 297.762L528.213 293.793M590.32 0.563595C568.071 2.9556 545.915 10.9656 530.085 22.3386C508.801 37.6316 494.5 50.5636 490.286 83.9906L483.427 121.564V158.093C483.092 158.428 484.685 158.974 483.427 158.093C476.617 153.323 469.585 160.267 469.585 171.762C469.585 177.865 472.448 196.126 474.717 204.491C477.56 214.978 483.279 226.212 488.375 231.322C492.289 235.247 493.085 235.621 496.867 235.322L501.041 234.991L504.882 249.491C509.644 267.467 512.693 274.803 520.743 287.665L527.063 297.762L528.213 293.793M590.32 0.563595C568.071 2.9556 545.915 10.9656 530.085 22.3386C508.801 37.6316 494.5 50.5636 490.286 83.9906L483.427 121.564V158.093C483.092 158.428 484.685 158.974 483.427 158.093C476.617 153.323 469.585 160.267 469.585 171.762C469.585 177.865 472.448 196.126 474.717 204.491C477.56 214.978 483.279 226.212 488.375 231.322C492.289 235.247 493.085 235.621 496.867 235.322L501.041 234.991L504.882 249.491C509.644 267.467 512.693 274.803 520.743 287.665M590.32 0.563595C568.071 2.9556 545.915 10.9656 530.085 22.3386C508.801 37.6316 494.5 50.5636 490.286 83.9906L483.427 121.564V158.093C483.092 158.428 484.685 158.974 483.427 158.093C476.617 153.323 469.585 160.267 469.585 171.762C469.585 177.865 472.448 196.126 474.717 204.491C477.56 214.978 483.279 226.212 488.375 231.322C492.289 235.247 493.085 235.621 496.867 235.322L501.041 234.991L504.882 249.491C509.644 267.467 512.693 274.803 520.743 287.665L527.063 297.762M590.32 0.563595C568.071 2.9556 545.915 10.9656 530.085 22.3386C508.801 37.6316 494.5 50.5636 490.286 83.9906L483.427 121.564V158.093C483.092 158.428 484.685 158.974 483.427 158.093C476.617 153.323 469.585 160.267 469.585 171.762C469.585 177.865 472.448 196.126 474.717 204.491C477.56 214.978 483.279 226.212 488.375 231.322C492.289 235.247 493.085 235.621 496.867 235.322L501.041 234.991L504.882 249.491C509.644 267.467 512.693 274.803 520.743 287.665L527.063 297.762L528.213 293.793C530.633 285.433 539.944 271.279 548.092 263.573C558.971 253.284 569.426 251.061 583.085 256.132C589.085 258.36 592.013 258.778 603.585 259.058C616.202 259.364 617.739 259.189 627.085 256.386C643.939 251.331 655.01 253.39 666.14 263.648C672.998 269.97 682.918 286.127 685.052 294.452M590.32 0.563595C568.071 2.9556 545.915 10.9656 530.085 22.3386C508.801 37.6316 494.5 50.5636 490.286 83.9906L483.427 121.564V158.093C483.092 158.428 484.685 158.974 483.427 158.093C476.617 153.323 469.585 160.267 469.585 171.762C469.585 177.865 472.448 196.126 474.717 204.491C477.56 214.978 483.279 226.212 488.375 231.322C492.289 235.247 493.085 235.621 496.867 235.322L501.041 234.991L504.882 249.491C509.644 267.467 512.693 274.803 520.743 287.665L527.063 297.762L528.213 293.793C530.633 285.433 539.944 271.279 548.092 263.573C558.971 253.284 569.426 251.061 583.085 256.132C589.085 258.36 592.013 258.778 603.585 259.058C616.202 259.364 617.739 259.189 627.085 256.386M590.32 0.563595C568.071 2.9556 545.915 10.9656 530.085 22.3386C508.801 37.6316 494.5 50.5636 490.286 83.9906L483.427 121.564V158.093C483.092 158.428 484.685 158.974 483.427 158.093C476.617 153.323 469.585 160.267 469.585 171.762C469.585 177.865 472.448 196.126 474.717 204.491C477.56 214.978 483.279 226.212 488.375 231.322C492.289 235.247 493.085 235.621 496.867 235.322L501.041 234.991L504.882 249.491C509.644 267.467 512.693 274.803 520.743 287.665L527.063 297.762L528.213 293.793C530.633 285.433 539.944 271.279 548.092 263.573C558.971 253.284 569.426 251.061 583.085 256.132M590.32 0.563595C568.071 2.9556 545.915 10.9656 530.085 22.3386C508.801 37.6316 494.5 50.5636 490.286 83.9906L483.427 121.564V158.093C483.092 158.428 484.685 158.974 483.427 158.093C476.617 153.323 469.585 160.267 469.585 171.762C469.585 177.865 472.448 196.126 474.717 204.491C477.56 214.978 483.279 226.212 488.375 231.322C492.289 235.247 493.085 235.621 496.867 235.322L501.041 234.991L504.882 249.491C509.644 267.467 512.693 274.803 520.743 287.665L527.063 297.762L528.213 293.793C530.633 285.433 539.944 271.279 548.092 263.573C558.971 253.284 569.426 251.061 583.085 256.132C589.085 258.36 592.013 258.778 603.585 259.058M590.32 0.563595C568.071 2.9556 545.915 10.9656 530.085 22.3386C508.801 37.6316 494.5 50.5636 490.286 83.9906L483.427 121.564V158.093C483.092 158.428 484.685 158.974 483.427 158.093C476.617 153.323 469.585 160.267 469.585 171.762C469.585 177.865 472.448 196.126 474.717 204.491C477.56 214.978 483.279 226.212 488.375 231.322C492.289 235.247 493.085 235.621 496.867 235.322L501.041 234.991L504.882 249.491C509.644 267.467 512.693 274.803 520.743 287.665L527.063 297.762L528.213 293.793C530.633 285.433 539.944 271.279 548.092 263.573C558.971 253.284 569.426 251.061 583.085 256.132C589.085 258.36 592.013 258.778 603.585 259.058C616.202 259.364 617.739 259.189 627.085 256.386C643.939 251.331 655.01 253.39 666.14 263.648C672.998 269.97 682.918 286.127 685.052 294.452L686.196 298.913M590.32 0.563595C568.071 2.9556 545.915 10.9656 530.085 22.3386C508.801 37.6316 494.5 50.5636 490.286 83.9906L483.427 121.564V158.093C483.092 158.428 484.685 158.974 483.427 158.093C476.617 153.323 469.585 160.267 469.585 171.762C469.585 177.865 472.448 196.126 474.717 204.491C477.56 214.978 483.279 226.212 488.375 231.322C492.289 235.247 493.085 235.621 496.867 235.322L501.041 234.991L504.882 249.491C509.644 267.467 512.693 274.803 520.743 287.665L527.063 297.762L528.213 293.793C530.633 285.433 539.944 271.279 548.092 263.573C558.971 253.284 569.426 251.061 583.085 256.132C589.085 258.36 592.013 258.778 603.585 259.058C616.202 259.364 617.739 259.189 627.085 256.386C643.939 251.331 655.01 253.39 666.14 263.648C672.998 269.97 682.918 286.127 685.052 294.452L686.196 298.913M590.32 0.563595C568.071 2.9556 545.915 10.9656 530.085 22.3386C508.801 37.6316 494.5 50.5636 490.286 83.9906L483.427 121.564V158.093C483.092 158.428 484.685 158.974 483.427 158.093C476.617 153.323 469.585 160.267 469.585 171.762C469.585 177.865 472.448 196.126 474.717 204.491C477.56 214.978 483.279 226.212 488.375 231.322C492.289 235.247 493.085 235.621 496.867 235.322L501.041 234.991L504.882 249.491C509.644 267.467 512.693 274.803 520.743 287.665L527.063 297.762L528.213 293.793C530.633 285.433 539.944 271.279 548.092 263.573M590.32 0.563595C568.071 2.9556 545.915 10.9656 530.085 22.3386C508.801 37.6316 494.5 50.5636 490.286 83.9906L483.427 121.564V158.093C483.092 158.428 484.685 158.974 483.427 158.093C476.617 153.323 469.585 160.267 469.585 171.762C469.585 177.865 472.448 196.126 474.717 204.491C477.56 214.978 483.279 226.212 488.375 231.322C492.289 235.247 493.085 235.621 496.867 235.322L501.041 234.991L504.882 249.491C509.644 267.467 512.693 274.803 520.743 287.665L527.063 297.762M590.32 0.563595C568.071 2.9556 545.915 10.9656 530.085 22.3386C508.801 37.6316 494.5 50.5636 490.286 83.9906L483.427 121.564V158.093C483.092 158.428 484.685 158.974 483.427 158.093C476.617 153.323 469.585 160.267 469.585 171.762C469.585 177.865 472.448 196.126 474.717 204.491C477.56 214.978 483.279 226.212 488.375 231.322C492.289 235.247 493.085 235.621 496.867 235.322L501.041 234.991L504.882 249.491M590.32 0.563595C568.071 2.9556 545.915 10.9656 530.085 22.3386C508.801 37.6316 494.5 50.5636 490.286 83.9906L483.427 121.564V158.093C483.092 158.428 484.685 158.974 483.427 158.093C476.617 153.323 469.585 160.267 469.585 171.762C469.585 177.865 472.448 196.126 474.717 204.491C477.56 214.978 483.279 226.212 488.375 231.322C492.289 235.247 493.085 235.621 496.867 235.322L501.041 234.991L504.882 249.491M590.32 0.563595C568.071 2.9556 545.915 10.9656 530.085 22.3386C508.801 37.6316 494.5 50.5636 490.286 83.9906L483.427 121.564V158.093C483.092 158.428 484.685 158.974 483.427 158.093C476.617 153.323 469.585 160.267 469.585 171.762C469.585 177.865 472.448 196.126 474.717 204.491C477.56 214.978 483.279 226.212 488.375 231.322C492.289 235.247 493.085 235.621 496.867 235.322L501.041 234.991L504.882 249.491C509.644 267.467 512.693 274.803 520.743 287.665L527.063 297.762L528.213 293.793C530.633 285.433 539.944 271.279 548.092 263.573M590.32 0.563595C568.071 2.9556 545.915 10.9656 530.085 22.3386C508.801 37.6316 494.5 50.5636 490.286 83.9906L483.427 121.564V158.093C483.092 158.428 484.685 158.974 483.427 158.093C476.617 153.323 469.585 160.267 469.585 171.762C469.585 177.865 472.448 196.126 474.717 204.491C477.56 214.978 483.279 226.212 488.375 231.322C492.289 235.247 493.085 235.621 496.867 235.322L501.041 234.991L504.882 249.491M590.32 0.563595C568.071 2.9556 545.915 10.9656 530.085 22.3386C508.801 37.6316 494.5 50.5636 490.286 83.9906L483.427 121.564V158.093C483.092 158.428 484.685 158.974 483.427 158.093C476.617 153.323 469.585 160.267 469.585 171.762C469.585 177.865 472.448 196.126 474.717 204.491C477.56 214.978 483.279 226.212 488.375 231.322C492.289 235.247 493.085 235.621 496.867 235.322L501.041 234.991L504.882 249.491C509.644 267.467 512.693 274.803 520.743 287.665L527.063 297.762L528.213 293.793C530.633 285.433 539.944 271.279 548.092 263.573C558.971 253.284 569.426 251.061 583.085 256.132M590.32 0.563595C568.071 2.9556 545.915 10.9656 530.085 22.3386C508.801 37.6316 494.5 50.5636 490.286 83.9906L483.427 121.564V158.093C483.092 158.428 484.685 158.974 483.427 158.093C476.617 153.323 469.585 160.267 469.585 171.762C469.585 177.865 472.448 196.126 474.717 204.491C477.56 214.978 483.279 226.212 488.375 231.322C492.289 235.247 493.085 235.621 496.867 235.322L501.041 234.991L504.882 249.491C509.644 267.467 512.693 274.803 520.743 287.665L527.063 297.762M590.32 0.563595C568.071 2.9556 545.915 10.9656 530.085 22.3386C508.801 37.6316 494.5 50.5636 490.286 83.9906L483.427 121.564V158.093C483.092 158.428 484.685 158.974 483.427 158.093C476.617 153.323 469.585 160.267 469.585 171.762C469.585 177.865 472.448 196.126 474.717 204.491C477.56 214.978 483.279 226.212 488.375 231.322C492.289 235.247 493.085 235.621 496.867 235.322L501.041 234.991L504.882 249.491C509.644 267.467 512.693 274.803 520.743 287.665L527.063 297.762L528.213 293.793C530.633 285.433 539.944 271.279 548.092 263.573C558.971 253.284 569.426 251.061 583.085 256.132M590.32 0.563595C568.071 2.9556 545.915 10.9656 530.085 22.3386C508.801 37.6316 494.5 50.5636 490.286 83.9906L483.427 121.564V158.093C483.092 158.428 484.685 158.974 483.427 158.093C476.617 153.323 469.585 160.267 469.585 171.762C469.585 177.865 472.448 196.126 474.717 204.491C477.56 214.978 483.279 226.212 488.375 231.322C492.289 235.247 493.085 235.621 496.867 235.322L501.041 234.991L504.882 249.491C509.644 267.467 512.693 274.803 520.743 287.665L527.063 297.762M590.32 0.563595C568.071 2.9556 545.915 10.9656 530.085 22.3386C508.801 37.6316 494.5 50.5636 490.286 83.9906L483.427 121.564V158.093C483.092 158.428 484.685 158.974 483.427 158.093C476.617 153.323 469.585 160.267 469.585 171.762C469.585 177.865 472.448 196.126 474.717 204.491C477.56 214.978 483.279 226.212 488.375 231.322C492.289 235.247 493.085 235.621 496.867 235.322L501.041 234.991L504.882 249.491C509.644 267.467 512.693 274.803 520.743 287.665L527.063 297.762L528.213 293.793C530.633 285.433 539.944 271.279 548.092 263.573M590.32 0.563595C568.071 2.9556 545.915 10.9656 530.085 22.3386C508.801 37.6316 494.5 50.5636 490.286 83.9906L483.427 121.564V158.093C483.092 158.428 484.685 158.974 483.427 158.093C476.617 153.323 469.585 160.267 469.585 171.762C469.585 177.865 472.448 196.126 474.717 204.491C477.56 214.978 483.279 226.212 488.375 231.322C492.289 235.247 493.085 235.621 496.867 235.322L501.041 234.991L504.882 249.491C509.644 267.467 512.693 274.803 520.743 287.665L527.063 297.762L528.213 293.793M590.32 0.563595C568.071 2.9556 545.915 10.9656 530.085 22.3386C508.801 37.6316 494.5 50.5636 490.286 83.9906L483.427 121.564V158.093C483.092 158.428 484.685 158.974 483.427 158.093C476.617 153.323 469.585 160.267 469.585 171.762C469.585 177.865 472.448 196.126 474.717 204.491C477.56 214.978 483.279 226.212 488.375 231.322C492.289 235.247 493.085 235.621 496.867 235.322L501.041 234.991L504.882 249.491C509.644 267.467 512.693 274.803 520.743 287.665L527.063 297.762L528.213 293.793C530.633 285.433 539.944 271.279 548.092 263.573M590.32 0.563595C568.071 2.9556 545.915 10.9656 530.085 22.3386C508.801 37.6316 494.5 50.5636 490.286 83.9906L483.427 121.564V158.093C483.092 158.428 484.685 158.974 483.427 158.093C476.617 153.323 469.585 160.267 469.585 171.762C469.585 177.865 472.448 196.126 474.717 204.491C477.56 214.978 483.279 226.212 488.375 231.322C492.289 235.247 493.085 235.621 496.867 235.322L501.041 234.991L504.882 249.491C509.644 267.467 512.693 274.803 520.743 287.665L527.063 297.762L528.213 293.793C530.633 285.433 539.944 271.279 548.092 263.573C558.971 253.284 569.426 251.061 583.085 256.132M590.32 0.563595C568.071 2.9556 545.915 10.9656 530.085 22.3386C508.801 37.6316 494.5 50.5636 490.286 83.9906L483.427 121.564V158.093C483.092 158.428 484.685 158.974 483.427 158.093C476.617 153.323 469.585 160.267 469.585 171.762C469.585 177.865 472.448 196.126 474.717 204.491C477.56 214.978 483.279 226.212 488.375 231.322C492.289 235.247 493.085 235.621 496.867 235.322L501.041 234.991L504.882 249.491C509.644 267.467 512.693 274.803 520.743 287.665L527.063 297.762L528.213 293.793M590.32 0.563595C568.071 2.9556 545.915 10.9656 530.085 22.3386C508.801 37.6316 494.5 50.5636 490.286 83.9906L483.427 121.564V158.093C483.092 158.428 484.685 158.974 483.427 158.093C476.617 153.323 469.585 160.267 469.585 171.762C469.585 177.865 472.448 196.126 474.717 204.491C477.56 214.978 483.279 226.212 488.375 231.322C492.289 235.247 493.085 235.621 496.867 235.322L501.041 234.991L504.882 249.491C509.644 267.467 512.693 274.803 520.743 287.665L527.063 297.762L528.213 293.793M590.32 0.563595C568.071 2.9556 545.915 10.9656 530.085 22.3386C508.801 37.6316 494.5 50.5636 490.286 83.9906L483.427 121.564V158.093C483.092 158.428 484.685 158.974 483.427 158.093C476.617 153.323 469.585 160.267 469.585 171.762C469.585 177.865 472.448 196.126 474.717 204.491C477.56 214.978 483.279 226.212 488.375 231.322C492.289 235.247 493.085 235.621 496.867 235.322L501.041 234.991L504.882 249.491C509.644 267.467 512.693 274.803 520.743 287.665L527.063 297.762L528.213 293.793M590.32 0.563595C568.071 2.9556 545.915 10.9656 530.085 22.3386C508.801 37.6316 494.5 50.5636 490.286 83.9906L483.427 121.564V158.093C483.092 158.428 484.685 158.974 483.427 158.093C476.617 153.323 469.585 160.267 469.585 171.762C469.585 177.865 472.448 196.126 474.717 204.491C477.56 214.978 483.279 226.212 488.375 231.322C492.289 235.247 493.085 235.621 496.867 235.322L501.041 234.991L504.882 249.491C509.644 267.467 512.693 274.803 520.743 287.665L527.063 297.762M590.32 0.563595C568.071 2.9556 545.915 10.9656 530.085 22.3386C508.801 37.6316 494.5 50.5636 490.286 83.9906L483.427 121.564V158.093C483.092 158.428 484.685 158.974 483.427 158.093C476.617 153.323 469.585 160.267 469.585 171.762C469.585 177.865 472.448 196.126 474.717 204.491C477.56 214.978 483.279 226.212 488.375 231.322C492.289 235.247 493.085 235.621 496.867 235.322L501.041 234.991L504.882 249.491C509.644 267.467 512.693 274.803 520.743 287.665L527.063 297.762L528.213 293.793C530.633 285.433 539.944 271.279 548.092 263.573C558.971 253.284 569.426 251.061 583.085 256.132C589.085 258.36 592.013 258.778 603.585 259.058C616.202 259.364 617.739 259.189 627.085 256.386C643.939 251.331 655.01 253.39 666.14 263.648C672.998 269.97 682.918 286.127 685.052 294.452L686.196 298.913M590.32 0.563595C568.071 2.9556 545.915 10.9656 530.085 22.3386C508.801 37.6316 494.5 50.5636 490.286 83.9906L483.427 121.564V158.093C483.092 158.428 484.685 158.974 483.427 158.093C476.617 153.323 469.585 160.267 469.585 171.762C469.585 177.865 472.448 196.126 474.717 204.491C477.56 214.978 483.279 226.212 488.375 231.322C492.289 235.247 493.085 235.621 496.867 235.322L501.041 234.991L504.882 249.491C509.644 267.467 512.693 274.803 520.743 287.665L527.063 297.762L528.213 293.793C530.633 285.433 539.944 271.279 548.092 263.573C558.971 253.284 569.426 251.061 583.085 256.132C589.085 258.36 592.013 258.778 603.585 259.058C616.202 259.364 617.739 259.189 627.085 256.386C643.939 251.331 655.01 253.39 666.14 263.648C672.998 269.97 682.918 286.127 685.052 294.452L686.196 298.913M590.32 0.563595C568.071 2.9556 545.915 10.9656 530.085 22.3386C508.801 37.6316 494.5 50.5636 490.286 83.9906L483.427 121.564V158.093C483.092 158.428 484.685 158.974 483.427 158.093C476.617 153.323 469.585 160.267 469.585 171.762C469.585 177.865 472.448 196.126 474.717 204.491C477.56 214.978 483.279 226.212 488.375 231.322C492.289 235.247 493.085 235.621 496.867 235.322L501.041 234.991L504.882 249.491C509.644 267.467 512.693 274.803 520.743 287.665L527.063 297.762L528.213 293.793C530.633 285.433 539.944 271.279 548.092 263.573C558.971 253.284 569.426 251.061 583.085 256.132C589.085 258.36 592.013 258.778 603.585 259.058C616.202 259.364 617.739 259.189 627.085 256.386C643.939 251.331 655.01 253.39 666.14 263.648C672.998 269.97 682.918 286.127 685.052 294.452L686.196 298.913M590.32 0.563595C568.071 2.9556 545.915 10.9656 530.085 22.3386C508.801 37.6316 494.5 50.5636 490.286 83.9906L483.427 121.564V158.093C483.092 158.428 484.685 158.974 483.427 158.093C476.617 153.323 469.585 160.267 469.585 171.762C469.585 177.865 472.448 196.126 474.717 204.491C477.56 214.978 483.279 226.212 488.375 231.322C492.289 235.247 493.085 235.621 496.867 235.322M590.32 0.563595C568.071 2.9556 545.915 10.9656 530.085 22.3386C508.801 37.6316 494.5 50.5636 490.286 83.9906L483.427 121.564V158.093C483.092 158.428 484.685 158.974 483.427 158.093C476.617 153.323 469.585 160.267 469.585 171.762C469.585 177.865 472.448 196.126 474.717 204.491C477.56 214.978 483.279 226.212 488.375 231.322M590.32 0.563595C568.071 2.9556 545.915 10.9656 530.085 22.3386C508.801 37.6316 494.5 50.5636 490.286 83.9906L483.427 121.564V158.093C483.092 158.428 484.685 158.974 483.427 158.093C476.617 153.323 469.585 160.267 469.585 171.762C469.585 177.865 472.448 196.126 474.717 204.491C477.56 214.978 483.279 226.212 488.375 231.322C492.289 235.247 493.085 235.621 496.867 235.322L501.041 234.991L504.882 249.491C509.644 267.467 512.693 274.803 520.743 287.665L527.063 297.762L528.213 293.793C530.633 285.433 539.944 271.279 548.092 263.573C558.971 253.284 569.426 251.061 583.085 256.132C589.085 258.36 592.013 258.778 603.585 259.058C616.202 259.364 617.739 259.189 627.085 256.386C643.939 251.331 655.01 253.39 666.14 263.648C672.998 269.97 682.918 286.127 685.052 294.452L686.196 298.913L691.277 290.452C701.337 273.7 706.159 262.366 710.082 246.252C711.386 240.896 712.708 236.101 713.019 235.597C713.331 235.094 715.301 234.912 717.398 235.193C720.809 235.65 721.63 235.289 725.182 231.773M590.32 0.563595C568.071 2.9556 545.915 10.9656 530.085 22.3386C508.801 37.6316 494.5 50.5636 490.286 83.9906L483.427 121.564V158.093C483.092 158.428 484.685 158.974 483.427 158.093C476.617 153.323 469.585 160.267 469.585 171.762C469.585 177.865 472.448 196.126 474.717 204.491C477.56 214.978 483.279 226.212 488.375 231.322C492.289 235.247 493.085 235.621 496.867 235.322L501.041 234.991L504.882 249.491C509.644 267.467 512.693 274.803 520.743 287.665L527.063 297.762L528.213 293.793C530.633 285.433 539.944 271.279 548.092 263.573C558.971 253.284 569.426 251.061 583.085 256.132C589.085 258.36 592.013 258.778 603.585 259.058C616.202 259.364 617.739 259.189 627.085 256.386C643.939 251.331 655.01 253.39 666.14 263.648C672.998 269.97 682.918 286.127 685.052 294.452L686.196 298.913L691.277 290.452C701.337 273.7 706.159 262.366 710.082 246.252C711.386 240.896 712.708 236.101 713.019 235.597C713.331 235.094 715.301 234.912 717.398 235.193C720.809 235.65 721.63 235.289 725.182 231.773C733.215 223.82 739.6 207.925 742 189.907C745.254 165.47 741.262 152.314 732.043 157.097M590.32 0.563595C568.071 2.9556 545.915 10.9656 530.085 22.3386C508.801 37.6316 494.5 50.5636 490.286 83.9906L483.427 121.564V158.093C483.092 158.428 484.685 158.974 483.427 158.093M590.32 0.563595C568.071 2.9556 545.915 10.9656 530.085 22.3386C508.801 37.6316 494.5 50.5636 490.286 83.9906L483.427 121.564V158.093C483.092 158.428 484.685 158.974 483.427 158.093C476.617 153.323 469.585 160.267 469.585 171.762M590.32 0.563595C568.071 2.9556 545.915 10.9656 530.085 22.3386C508.801 37.6316 494.5 50.5636 490.286 83.9906L483.427 121.564V158.093C483.092 158.428 484.685 158.974 483.427 158.093C476.617 153.323 469.585 160.267 469.585 171.762C469.585 177.865 472.448 196.126 474.717 204.491C477.56 214.978 483.279 226.212 488.375 231.322C492.289 235.247 493.085 235.621 496.867 235.322L501.041 234.991L504.882 249.491C509.644 267.467 512.693 274.803 520.743 287.665L527.063 297.762M590.32 0.563595C568.071 2.9556 545.915 10.9656 530.085 22.3386C508.801 37.6316 494.5 50.5636 490.286 83.9906L483.427 121.564V158.093C483.092 158.428 484.685 158.974 483.427 158.093C476.617 153.323 469.585 160.267 469.585 171.762C469.585 177.865 472.448 196.126 474.717 204.491C477.56 214.978 483.279 226.212 488.375 231.322C492.289 235.247 493.085 235.621 496.867 235.322L501.041 234.991L504.882 249.491C509.644 267.467 512.693 274.803 520.743 287.665L527.063 297.762L528.213 293.793M590.32 0.563595C568.071 2.9556 545.915 10.9656 530.085 22.3386C508.801 37.6316 494.5 50.5636 490.286 83.9906L483.427 121.564V158.093C483.092 158.428 484.685 158.974 483.427 158.093C476.617 153.323 469.585 160.267 469.585 171.762M590.32 0.563595C568.071 2.9556 545.915 10.9656 530.085 22.3386C508.801 37.6316 494.5 50.5636 490.286 83.9906L483.427 121.564V158.093C483.092 158.428 484.685 158.974 483.427 158.093C476.617 153.323 469.585 160.267 469.585 171.762M590.32 0.563595C568.071 2.9556 545.915 10.9656 530.085 22.3386C508.801 37.6316 494.5 50.5636 490.286 83.9906L483.427 121.564V158.093C483.092 158.428 484.685 158.974 483.427 158.093C476.617 153.323 469.585 160.267 469.585 171.762M590.32 0.563595C568.071 2.9556 545.915 10.9656 530.085 22.3386C508.801 37.6316 494.5 50.5636 490.286 83.9906L483.427 121.564V158.093C483.092 158.428 484.685 158.974 483.427 158.093M590.32 0.563595C568.071 2.9556 545.915 10.9656 530.085 22.3386C508.801 37.6316 494.5 50.5636 490.286 83.9906L483.427 121.564V158.093M590.32 0.563595C568.071 2.9556 545.915 10.9656 530.085 22.3386C508.801 37.6316 494.5 50.5636 490.286 83.9906L483.427 121.564V158.093C483.092 158.428 484.685 158.974 483.427 158.093C476.617 153.323 469.585 160.267 469.585 171.762C469.585 177.865 472.448 196.126 474.717 204.491C477.56 214.978 483.279 226.212 488.375 231.322M590.32 0.563595C568.071 2.9556 545.915 10.9656 530.085 22.3386C508.801 37.6316 494.5 50.5636 490.286 83.9906L483.427 121.564V158.093M590.32 0.563595C568.071 2.9556 545.915 10.9656 530.085 22.3386C508.801 37.6316 494.5 50.5636 490.286 83.9906L483.427 121.564V158.093C483.092 158.428 484.685 158.974 483.427 158.093C476.617 153.323 469.585 160.267 469.585 171.762M590.32 0.563595C568.071 2.9556 545.915 10.9656 530.085 22.3386C508.801 37.6316 494.5 50.5636 490.286 83.9906L483.427 121.564V158.093C483.092 158.428 484.685 158.974 483.427 158.093C476.617 153.323 469.585 160.267 469.585 171.762M590.32 0.563595C568.071 2.9556 545.915 10.9656 530.085 22.3386C508.801 37.6316 494.5 50.5636 490.286 83.9906L483.427 121.564V158.093C483.092 158.428 484.685 158.974 483.427 158.093M590.32 0.563595C568.071 2.9556 545.915 10.9656 530.085 22.3386C508.801 37.6316 494.5 50.5636 490.286 83.9906L483.427 121.564V158.093C483.092 158.428 484.685 158.974 483.427 158.093C476.617 153.323 469.585 160.267 469.585 171.762C469.585 177.865 472.448 196.126 474.717 204.491M590.32 0.563595C568.071 2.9556 545.915 10.9656 530.085 22.3386C508.801 37.6316 494.5 50.5636 490.286 83.9906L483.427 121.564V158.093C483.092 158.428 484.685 158.974 483.427 158.093C476.617 153.323 469.585 160.267 469.585 171.762M590.32 0.563595C568.071 2.9556 545.915 10.9656 530.085 22.3386C508.801 37.6316 494.5 50.5636 490.286 83.9906L483.427 121.564V158.093C483.092 158.428 484.685 158.974 483.427 158.093M590.32 0.563595C568.071 2.9556 545.915 10.9656 530.085 22.3386C508.801 37.6316 494.5 50.5636 490.286 83.9906L483.427 121.564V158.093C483.092 158.428 484.685 158.974 483.427 158.093C476.617 153.323 469.585 160.267 469.585 171.762C469.585 177.865 472.448 196.126 474.717 204.491M590.32 0.563595C568.071 2.9556 545.915 10.9656 530.085 22.3386C508.801 37.6316 494.5 50.5636 490.286 83.9906L483.427 121.564V158.093C483.092 158.428 484.685 158.974 483.427 158.093C476.617 153.323 469.585 160.267 469.585 171.762C469.585 177.865 472.448 196.126 474.717 204.491M590.32 0.563595C568.071 2.9556 545.915 10.9656 530.085 22.3386C508.801 37.6316 494.5 50.5636 490.286 83.9906L483.427 121.564V158.093M590.32 0.563595C568.071 2.9556 545.915 10.9656 530.085 22.3386C508.801 37.6316 494.5 50.5636 490.286 83.9906L483.427 121.564V158.093C483.092 158.428 484.685 158.974 483.427 158.093C476.617 153.323 469.585 160.267 469.585 171.762M590.32 0.563595C568.071 2.9556 545.915 10.9656 530.085 22.3386C508.801 37.6316 494.5 50.5636 490.286 83.9906L483.427 121.564V158.093C483.092 158.428 484.685 158.974 483.427 158.093M590.32 0.563595C568.071 2.9556 545.915 10.9656 530.085 22.3386C508.801 37.6316 494.5 50.5636 490.286 83.9906L483.427 121.564V158.093M590.32 0.563595C568.071 2.9556 545.915 10.9656 530.085 22.3386C508.801 37.6316 494.5 50.5636 490.286 83.9906L483.427 121.564V158.093C483.092 158.428 484.685 158.974 483.427 158.093M590.32 0.563595C568.071 2.9556 545.915 10.9656 530.085 22.3386C508.801 37.6316 494.5 50.5636 490.286 83.9906L483.427 121.564V158.093C483.092 158.428 484.685 158.974 483.427 158.093M590.32 0.563595C568.071 2.9556 545.915 10.9656 530.085 22.3386C508.801 37.6316 494.5 50.5636 490.286 83.9906L483.427 121.564V158.093C483.092 158.428 484.685 158.974 483.427 158.093M590.32 0.563595C568.071 2.9556 545.915 10.9656 530.085 22.3386C508.801 37.6316 494.5 50.5636 490.286 83.9906L483.427 121.564V158.093M590.32 0.563595C568.071 2.9556 545.915 10.9656 530.085 22.3386C508.801 37.6316 494.5 50.5636 490.286 83.9906L483.427 121.564V158.093C483.092 158.428 484.685 158.974 483.427 158.093M590.32 0.563595C568.071 2.9556 545.915 10.9656 530.085 22.3386C508.801 37.6316 494.5 50.5636 490.286 83.9906L483.427 121.564V158.093C483.092 158.428 484.685 158.974 483.427 158.093C476.617 153.323 469.585 160.267 469.585 171.762C469.585 177.865 472.448 196.126 474.717 204.491C477.56 214.978 483.279 226.212 488.375 231.322C492.289 235.247 493.085 235.621 496.867 235.322L501.041 234.991L504.882 249.491C509.644 267.467 512.693 274.803 520.743 287.665L527.063 297.762L528.213 293.793C530.633 285.433 539.944 271.279 548.092 263.573C558.971 253.284 569.426 251.061 583.085 256.132C589.085 258.36 592.013 258.778 603.585 259.058C616.202 259.364 617.739 259.189 627.085 256.386C643.939 251.331 655.01 253.39 666.14 263.648C672.998 269.97 682.918 286.127 685.052 294.452M590.32 0.563595C568.071 2.9556 545.915 10.9656 530.085 22.3386C508.801 37.6316 494.5 50.5636 490.286 83.9906L483.427 121.564V158.093C483.092 158.428 484.685 158.974 483.427 158.093C476.617 153.323 469.585 160.267 469.585 171.762C469.585 177.865 472.448 196.126 474.717 204.491C477.56 214.978 483.279 226.212 488.375 231.322C492.289 235.247 493.085 235.621 496.867 235.322L501.041 234.991L504.882 249.491C509.644 267.467 512.693 274.803 520.743 287.665L527.063 297.762L528.213 293.793C530.633 285.433 539.944 271.279 548.092 263.573C558.971 253.284 569.426 251.061 583.085 256.132C589.085 258.36 592.013 258.778 603.585 259.058C616.202 259.364 617.739 259.189 627.085 256.386C643.939 251.331 655.01 253.39 666.14 263.648C672.998 269.97 682.918 286.127 685.052 294.452L686.196 298.913L691.277 290.452M590.32 0.563595C568.071 2.9556 545.915 10.9656 530.085 22.3386C508.801 37.6316 494.5 50.5636 490.286 83.9906L483.427 121.564V158.093C483.092 158.428 484.685 158.974 483.427 158.093C476.617 153.323 469.585 160.267 469.585 171.762C469.585 177.865 472.448 196.126 474.717 204.491C477.56 214.978 483.279 226.212 488.375 231.322C492.289 235.247 493.085 235.621 496.867 235.322L501.041 234.991L504.882 249.491M590.32 0.563595C568.071 2.9556 545.915 10.9656 530.085 22.3386C508.801 37.6316 494.5 50.5636 490.286 83.9906L483.427 121.564V158.093C483.092 158.428 484.685 158.974 483.427 158.093C476.617 153.323 469.585 160.267 469.585 171.762C469.585 177.865 472.448 196.126 474.717 204.491C477.56 214.978 483.279 226.212 488.375 231.322C492.289 235.247 493.085 235.621 496.867 235.322L501.041 234.991L504.882 249.491C509.644 267.467 512.693 274.803 520.743 287.665L527.063 297.762L528.213 293.793C530.633 285.433 539.944 271.279 548.092 263.573M590.32 0.563595C568.071 2.9556 545.915 10.9656 530.085 22.3386C508.801 37.6316 494.5 50.5636 490.286 83.9906L483.427 121.564V158.093C483.092 158.428 484.685 158.974 483.427 158.093C476.617 153.323 469.585 160.267 469.585 171.762C469.585 177.865 472.448 196.126 474.717 204.491C477.56 214.978 483.279 226.212 488.375 231.322C492.289 235.247 493.085 235.621 496.867 235.322L501.041 234.991M590.32 0.563595C568.071 2.9556 545.915 10.9656 530.085 22.3386C508.801 37.6316 494.5 50.5636 490.286 83.9906L483.427 121.564V158.093C483.092 158.428 484.685 158.974 483.427 158.093C476.617 153.323 469.585 160.267 469.585 171.762C469.585 177.865 472.448 196.126 474.717 204.491C477.56 214.978 483.279 226.212 488.375 231.322C492.289 235.247 493.085 235.621 496.867 235.322M590.32 0.563595C568.071 2.9556 545.915 10.9656 530.085 22.3386C508.801 37.6316 494.5 50.5636 490.286 83.9906L483.427 121.564V158.093C483.092 158.428 484.685 158.974 483.427 158.093C476.617 153.323 469.585 160.267 469.585 171.762C469.585 177.865 472.448 196.126 474.717 204.491C477.56 214.978 483.279 226.212 488.375 231.322M590.32 0.563595C568.071 2.9556 545.915 10.9656 530.085 22.3386C508.801 37.6316 494.5 50.5636 490.286 83.9906L483.427 121.564V158.093C483.092 158.428 484.685 158.974 483.427 158.093C476.617 153.323 469.585 160.267 469.585 171.762C469.585 177.865 472.448 196.126 474.717 204.491M590.32 0.563595C568.071 2.9556 545.915 10.9656 530.085 22.3386C508.801 37.6316 494.5 50.5636 490.286 83.9906L483.427 121.564V158.093C483.092 158.428 484.685 158.974 483.427 158.093C476.617 153.323 469.585 160.267 469.585 171.762C469.585 177.865 472.448 196.126 474.717 204.491C477.56 214.978 483.279 226.212 488.375 231.322C492.289 235.247 493.085 235.621 496.867 235.322M590.32 0.563595C568.071 2.9556 545.915 10.9656 530.085 22.3386C508.801 37.6316 494.5 50.5636 490.286 83.9906L483.427 121.564V158.093C483.092 158.428 484.685 158.974 483.427 158.093C476.617 153.323 469.585 160.267 469.585 171.762C469.585 177.865 472.448 196.126 474.717 204.491C477.56 214.978 483.279 226.212 488.375 231.322C492.289 235.247 493.085 235.621 496.867 235.322M590.32 0.563595C568.071 2.9556 545.915 10.9656 530.085 22.3386C508.801 37.6316 494.5 50.5636 490.286 83.9906L483.427 121.564V158.093C483.092 158.428 484.685 158.974 483.427 158.093C476.617 153.323 469.585 160.267 469.585 171.762C469.585 177.865 472.448 196.126 474.717 204.491C477.56 214.978 483.279 226.212 488.375 231.322C492.289 235.247 493.085 235.621 496.867 235.322L501.041 234.991L504.882 249.491C509.644 267.467 512.693 274.803 520.743 287.665M590.32 0.563595C568.071 2.9556 545.915 10.9656 530.085 22.3386C508.801 37.6316 494.5 50.5636 490.286 83.9906L483.427 121.564V158.093C483.092 158.428 484.685 158.974 483.427 158.093C476.617 153.323 469.585 160.267 469.585 171.762C469.585 177.865 472.448 196.126 474.717 204.491C477.56 214.978 483.279 226.212 488.375 231.322C492.289 235.247 493.085 235.621 496.867 235.322M590.32 0.563595C568.071 2.9556 545.915 10.9656 530.085 22.3386C508.801 37.6316 494.5 50.5636 490.286 83.9906L483.427 121.564V158.093C483.092 158.428 484.685 158.974 483.427 158.093C476.617 153.323 469.585 160.267 469.585 171.762C469.585 177.865 472.448 196.126 474.717 204.491C477.56 214.978 483.279 226.212 488.375 231.322C492.289 235.247 493.085 235.621 496.867 235.322M590.32 0.563595C568.071 2.9556 545.915 10.9656 530.085 22.3386C508.801 37.6316 494.5 50.5636 490.286 83.9906L483.427 121.564V158.093C483.092 158.428 484.685 158.974 483.427 158.093C476.617 153.323 469.585 160.267 469.585 171.762C469.585 177.865 472.448 196.126 474.717 204.491C477.56 214.978 483.279 226.212 488.375 231.322C492.289 235.247 493.085 235.621 496.867 235.322L501.041 234.991M590.32 0.563595C568.071 2.9556 545.915 10.9656 530.085 22.3386C508.801 37.6316 494.5 50.5636 490.286 83.9906L483.427 121.564V158.093C483.092 158.428 484.685 158.974 483.427 158.093C476.617 153.323 469.585 160.267 469.585 171.762C469.585 177.865 472.448 196.126 474.717 204.491C477.56 214.978 483.279 226.212 488.375 231.322C492.289 235.247 493.085 235.621 496.867 235.322L501.041 234.991L504.882 249.491C509.644 267.467 512.693 274.803 520.743 287.665L527.063 297.762L528.213 293.793M590.32 0.563595C568.071 2.9556 545.915 10.9656 530.085 22.3386C508.801 37.6316 494.5 50.5636 490.286 83.9906L483.427 121.564V158.093C483.092 158.428 484.685 158.974 483.427 158.093C476.617 153.323 469.585 160.267 469.585 171.762C469.585 177.865 472.448 196.126 474.717 204.491C477.56 214.978 483.279 226.212 488.375 231.322C492.289 235.247 493.085 235.621 496.867 235.322L501.041 234.991L504.882 249.491C509.644 267.467 512.693 274.803 520.743 287.665L527.063 297.762L528.213 293.793M590.32 0.563595C568.071 2.9556 545.915 10.9656 530.085 22.3386C508.801 37.6316 494.5 50.5636 490.286 83.9906L483.427 121.564V158.093C483.092 158.428 484.685 158.974 483.427 158.093C476.617 153.323 469.585 160.267 469.585 171.762C469.585 177.865 472.448 196.126 474.717 204.491C477.56 214.978 483.279 226.212 488.375 231.322C492.289 235.247 493.085 235.621 496.867 235.322L501.041 234.991M590.32 0.563595C568.071 2.9556 545.915 10.9656 530.085 22.3386C508.801 37.6316 494.5 50.5636 490.286 83.9906L483.427 121.564V158.093C483.092 158.428 484.685 158.974 483.427 158.093C476.617 153.323 469.585 160.267 469.585 171.762C469.585 177.865 472.448 196.126 474.717 204.491C477.56 214.978 483.279 226.212 488.375 231.322C492.289 235.247 493.085 235.621 496.867 235.322L501.041 234.991" fill="#9F9F9F"/>
<path d="M590.32 0.563595C568.071 2.9556 545.915 10.9656 530.085 22.3386C508.801 37.6316 494.5 50.5636 490.286 83.9906L483.427 121.564V158.093C483.092 158.428 484.685 158.974 483.427 158.093C476.617 153.323 469.585 160.267 469.585 171.762C469.585 177.865 472.448 196.126 474.717 204.491C477.56 214.978 483.279 226.212 488.375 231.322C492.289 235.247 493.085 235.621 496.867 235.322L501.041 234.991L504.882 249.491C509.644 267.467 512.693 274.803 520.743 287.665L527.063 297.762L528.213 293.793C530.633 285.433 539.944 271.279 548.092 263.573C558.971 253.284 569.426 251.061 583.085 256.132C589.085 258.36 592.013 258.778 603.585 259.058C616.202 259.364 617.739 259.189 627.085 256.386C643.939 251.331 655.01 253.39 666.14 263.648C672.998 269.97 682.918 286.127 685.052 294.452L686.196 298.913L691.277 290.452C701.337 273.7 706.159 262.366 710.082 246.252C711.386 240.896 712.708 236.101 713.019 235.597C713.331 235.094 715.301 234.912 717.398 235.193C720.809 235.65 721.63 235.289 725.182 231.773C733.215 223.82 739.6 207.925 742 189.907C745.254 165.47 741.262 152.314 732.043 157.097C732.043 158 737.012 184.69 732.043 157.097C732.032 130.53 726.877 99.2046 724.785 90.3146C715.709 51.7486 700.292 29.8446 671.945 15.2426C661.561 9.8936 643.792 3.89859 632.244 1.84759C622.314 0.0845916 600.884 -0.571405 590.32 0.563595Z" fill="#9F9F9F"/>
</g>
<path id="cuello_izq" d="M544.681 278.403C552.742 267.03 559.656 261.429 567.308 260.072C572.27 259.191 576.698 259.937 584.306 262.936C587.164 264.063 592.612 265.303 596.412 265.694L603.321 266.403L603.38 371.403C603.413 429.153 603.391 476.84 603.331 477.374C603.271 477.908 600.41 475.576 596.972 472.191C583.55 458.975 566.075 453.039 532.767 450.38C521.792 449.504 509.192 448.124 504.767 447.315C500.342 446.505 489.072 444.721 479.722 443.351C444.031 438.119 427.781 435.042 420.222 432.082C417.366 430.964 416.613 431.357 430.222 426.856C446.424 421.496 461.997 415.061 480.849 405.934C509.15 392.234 518.321 385.622 525.294 373.893C534.281 358.777 536.245 345.243 535.239 305.37C534.918 292.675 535.263 291.689 544.681 278.403Z" fill="#9F9F9F"/>
<path id="cuello_der" d="M617.255 265.658C620.812 265.248 627.772 263.557 632.722 261.901C639.227 259.724 642.815 259.042 645.665 259.439C655.596 260.823 666.789 270.755 674.606 285.122L679.35 293.841L679.663 321.122C679.896 341.461 680.375 350.12 681.546 355.149C686.183 375.07 698.224 388.188 723.192 400.518C752.742 415.111 769.242 422.066 787.22 427.506C791.896 428.921 796.082 430.421 796.521 430.84C797.603 431.87 780.632 436.515 770.722 437.902C766.322 438.518 759.572 439.644 755.722 440.405C751.872 441.166 744.672 442.291 739.722 442.905C734.772 443.519 724.647 445.099 717.222 446.416C709.797 447.733 697.647 449.284 690.222 449.861C682.797 450.439 673.596 451.163 669.775 451.471C647.384 453.272 626.079 462.307 615.274 474.581L611.222 479.185L611.231 463.794C611.236 455.329 611.139 407.453 611.014 357.403L610.787 266.403L617.255 265.658Z" fill="#9F9F9F"/>
<path id="supra_der" d="M739.222 449.911C766.763 446.766 791.824 441.518 805.722 435.987C808.472 434.892 810.779 433.976 810.85 433.95C810.92 433.924 816.32 435.037 822.85 436.424C847.236 441.602 847.874 441.996 840.551 447.352C830.659 454.587 812.556 463.367 792.222 470.792C766.34 480.242 746.419 487.043 736.222 489.909C724.062 493.328 709.214 499.742 701.659 504.841C699.164 506.525 696.867 507.903 696.557 507.903C695.728 507.903 697.131 497.324 698.87 490.461C703.094 473.795 713.93 458.212 724.722 453.28C727.73 451.906 733.508 450.563 739.222 449.911Z" fill="#9F9F9F"/>
<path id="supra_izq" d="M379.972 439.053C385.334 437.862 391.522 436.486 393.722 435.996C401 434.373 405.187 434.864 418.221 438.865C431.916 443.07 451.378 446.848 472.713 449.443C491.797 451.764 496.91 454.672 506.123 468.446C513.365 479.275 518.701 495.253 518.023 504.079L517.722 508.002L514.222 505.331C508.791 501.186 493.796 494.452 482.222 490.96C463.553 485.327 457.074 483.158 436.222 475.561C409.838 465.949 397.958 460.954 386.296 454.566C377.978 450.01 370.222 443.902 370.222 441.908C370.222 441.529 374.609 440.245 379.972 439.053Z" fill="#9F9F9F"/>
<path id="hombroposterior_izq" d="M314.617 474.466C324.498 462.976 339.323 452.751 354.722 446.805C358.572 445.319 361.973 444.058 362.279 444.003C362.586 443.948 364.2 445.816 365.865 448.153C371.64 456.259 389.589 465.274 430.222 480.473C443.147 485.308 453.947 489.469 454.222 489.72C454.497 489.971 454.123 490.39 453.391 490.65C451.396 491.36 438.156 500.423 434.722 503.429C433.072 504.873 430.147 507.503 428.222 509.272C422.54 514.494 400.504 532.922 389.785 541.416C381.347 548.102 364.575 559.732 333.222 580.637C321.863 588.211 279.045 609.059 277.671 607.685C276.784 606.798 281.036 567.159 283.712 551.362C289.742 515.767 299.078 492.538 314.617 474.466Z" fill="#9F9F9F"/>
<path id="hombroposterior_der" d="M776.942 483.394C818.127 468.629 838.629 458.522 848.675 448.031C850.849 445.761 852.776 443.903 852.957 443.903C853.138 443.903 856.76 445.245 861.004 446.885C883.101 455.421 900.967 471.465 912.522 493.148C925.379 517.272 933.867 554.159 936.805 598.678L937.483 608.953L935.103 608.027C929.299 605.771 904.723 593.712 895.341 588.518C882.081 581.176 844.179 556.179 828.722 544.581C815.986 535.025 809.169 529.286 792.112 513.761C779.458 502.245 770.501 495.465 763.78 492.315C758.037 489.625 756.326 490.785 776.942 483.394Z" fill="#9F9F9F"/>
<path id="espaldamediaalta_izq" d="M516.682 471.814C515.177 468.838 512.191 463.816 510.046 460.653C507.902 457.49 506.532 454.903 507.001 454.903C507.471 454.903 510.3 455.324 513.288 455.839C516.277 456.354 524.122 457.044 530.722 457.371C548.407 458.25 555.195 459.32 567.222 463.125C582.179 467.856 594.024 476.311 599.143 485.909C603.386 493.864 603.365 493.2 603.547 620.538C603.643 687.839 603.482 742.903 603.188 742.903C602.894 742.903 601.921 741.666 601.025 740.153C598.898 736.559 591.24 726.262 583.723 716.885C563.649 691.847 552.892 676.833 536.45 650.903C528.338 638.111 515.025 614.449 512.836 608.932C510.795 603.789 510.829 603.429 515.753 578.233C519.433 559.402 524.867 526.287 525.572 518.403C526.617 506.695 521.948 482.226 516.682 471.814Z" fill="#9F9F9F"/>
<path id="espaldamediaalta_der" d="M687.426 457.403C694.412 457.046 701.387 456.377 702.926 455.915C709.197 454.031 709.315 454.609 704.176 462.068C691.704 480.172 686.318 508.459 690.784 532.403C691.604 536.803 693.864 549.853 695.805 561.403C697.746 572.953 700.242 586.453 701.351 591.403C702.597 596.963 703.136 601.891 702.76 604.297C701.54 612.113 683.655 644.082 665.777 670.403C655.865 684.995 650.263 692.534 632.707 714.903C626.016 723.428 618.557 733.328 616.132 736.903L611.722 743.403L611.222 636.903C610.947 578.328 610.957 521.853 611.244 511.403C611.742 493.272 611.888 492.17 614.43 487.311C619.702 477.239 635.635 466.22 650.282 462.517C660.1 460.035 674.384 458.068 687.426 457.403Z" fill="#9F9F9F"/>
<path id="escapula_izq" d="M425.072 521.436C444.531 504.235 453.549 498.067 462.503 495.835C472.474 493.351 492.01 499.773 509.843 511.396L518.485 517.03L517.851 523.216C515.062 550.397 503.449 605.868 494.781 633.403C487.468 656.635 484.739 662.515 478.285 668.942C467.284 679.896 458.216 679.683 434.495 667.913C415.713 658.593 400.853 649.477 389.904 640.559C376.542 629.675 375.645 628.538 373.216 619.403C368.447 601.466 363.391 589.216 356.755 579.516C355.293 577.378 354.462 575.301 354.909 574.899C355.356 574.498 359.772 571.474 364.722 568.178C383.735 555.521 406.181 538.136 425.072 521.436Z" fill="#9F9F9F"/>
<path id="escapula_der" d="M719.732 502.783C723.576 501.016 730.772 498.55 735.722 497.303C747.018 494.456 749.822 494.407 756.58 496.936C764.207 499.789 772.257 505.312 782.722 514.872C806.03 536.163 826.16 552.168 847.972 566.752C854.709 571.257 860.222 575.19 860.222 575.493C860.222 575.795 858.934 577.924 857.359 580.223C851.461 588.834 845.963 602.251 842.739 615.903C840.61 624.915 838.563 628.541 832.958 633.226C830.628 635.173 827.372 637.978 825.722 639.459C809.805 653.751 770.291 675.201 757.426 676.534C743.323 677.996 732.813 669.79 726.22 652.168C717.587 629.095 709.921 599.7 704.376 568.403C697.933 532.046 696.106 518.988 697.18 516.981C698.461 514.588 710.4 507.072 719.732 502.783Z" fill="#9F9F9F"/>
<path id="tricepsmedial_izq" d="M340.036 587.917C340.889 586.534 342.714 584.166 344.091 582.653C345.469 581.14 346.938 579.903 347.356 579.903C348.595 579.903 354.969 590.069 358.205 597.205C364.783 611.712 369.184 633.17 375.268 680.403C376.969 693.603 379.003 707.24 379.789 710.706C381.035 716.205 381.031 717.371 379.757 719.835C378.954 721.389 377.425 725.752 376.361 729.531C371.511 746.751 357.865 790.802 354.646 799.629C352.685 805.005 348.926 815.479 346.292 822.904C343.658 830.33 339.592 841.13 337.256 846.904C334.921 852.679 331.299 862.128 329.208 867.903C327.116 873.678 323.76 882.302 321.75 887.067C318.24 895.384 317.885 895.833 312.878 898.283C310.009 899.687 305.803 902.425 303.533 904.369C301.262 906.313 299.196 907.903 298.942 907.903C297.458 907.903 302.497 889.397 312.83 856.903C322.073 827.835 325.156 813.557 325.917 796.298C326.753 777.322 324.808 766.161 315.739 737.903C312.54 727.937 311.98 724.736 311.539 713.903C310.946 699.323 312.025 691.525 318.872 660.903C326.465 626.949 335.784 594.81 340.036 587.917Z" fill="#9F9F9F"/>
<path id="tricepsmedial_der" d="M840.701 669.903C847.559 617.923 851.693 602.212 862.985 585.204C864.921 582.289 866.834 579.903 867.236 579.903C867.638 579.903 869.747 581.834 871.922 584.194C875.214 587.765 876.577 590.686 880.058 601.623C886.266 621.136 890.333 636.541 896.762 664.903C902.268 689.191 902.563 691.188 902.973 706.903L903.404 723.403L897.901 740.499C890.443 763.666 888.826 773.891 889.478 793.763C890.195 815.601 893.119 828.667 907.527 874.435C912.911 891.534 916.748 906.71 915.902 907.556C915.556 907.902 913.349 906.285 910.997 903.963C908.646 901.64 904.487 898.513 901.756 897.013C897.122 894.468 896.562 893.723 893.37 885.845C887.391 871.09 877.664 845.719 862.53 805.403C858.271 794.055 851.683 773.292 841.59 739.403C839.133 731.153 836.476 722.639 835.686 720.482C834.389 716.945 834.484 714.89 836.65 699.482C837.971 690.089 839.794 676.778 840.701 669.903Z" fill="#9F9F9F"/>
<path id="tricepslateral_der" d="M888.649 606.903C886.095 598.928 883.777 591.615 883.497 590.653C883.218 589.691 883.219 588.903 883.5 588.903C883.781 588.903 889.064 591.893 895.241 595.547C901.417 599.201 912.794 605.047 920.524 608.539C928.253 612.031 935.568 615.819 936.778 616.955C939.715 619.715 946.856 646.209 950.241 666.903C952.501 680.721 961.014 721.271 973.258 776.543C979.061 802.735 979.065 803.016 974.226 834.403C971.587 851.516 969.856 866.589 969.499 875.566C968.859 891.621 968.305 892.306 963.414 883.086C959.43 875.576 957.713 869.154 955.344 852.903C952.827 835.638 952.449 831.798 950.763 806.362C949.532 787.795 949.022 784.321 946.425 776.826C941.342 762.158 937.187 755.324 922.756 737.903C910.776 723.441 910.608 723.035 909.92 706.903C909.315 692.735 908.346 686.564 902.614 660.403C897.54 637.24 893.906 623.32 888.649 606.903Z" fill="#9F9F9F"/>
<path id="tricepslateral_izq" d="M304.222 603.623C311.647 600.081 320.422 595.561 323.722 593.58C330.462 589.534 331.716 589.174 330.805 591.546C330.458 592.45 328.336 599.313 326.088 606.796C312.496 652.053 304.254 692.32 304.23 713.588C304.226 717.54 303.815 721.815 303.317 723.088C302.819 724.361 298.06 730.541 292.74 736.821C277.956 754.275 271.091 766.19 267.343 780.903C265.65 787.55 263.407 808.689 261.72 833.903C260.594 850.732 256.848 871.336 253.549 878.852C251.136 884.347 246.714 890.904 245.421 890.902C245.037 890.902 244.657 883.589 244.577 874.652C244.434 858.621 243.89 853.905 238.723 823.903C235.541 805.426 235.584 802.15 239.2 786.933C247.017 754.035 258.811 698.395 264.69 666.677C266.191 658.577 269.303 644.177 271.604 634.677L275.789 617.403L283.255 613.734C287.362 611.716 296.797 607.166 304.222 603.623Z" fill="#9F9F9F"/>
<path id="espaldamediatoracica_izq" d="M500.251 638.177C503.012 628.951 505.787 620.11 506.419 618.529C507.508 615.802 507.638 615.751 508.944 617.529C509.702 618.56 512.387 623.228 514.911 627.903C530.395 656.582 545.975 679.869 570.675 711.251C593.422 740.153 594.117 741.101 597.672 748.14C602.801 758.295 603.288 762.344 602.99 792.319L602.722 819.236L599.722 819.552C590.027 820.576 587.694 821.123 582.001 823.708C576.901 826.024 553.992 843.2 536.722 857.656C508.192 881.537 489.137 891.903 473.765 891.903C464.109 891.903 454.85 885.645 434.643 865.463C417.207 848.048 414.821 844.51 413.696 834.403C412.195 820.92 403.825 782.955 390.218 727.903C386.724 713.769 383.095 692.08 380.764 671.403C379.896 663.703 378.738 654.703 378.191 651.403C377.644 648.103 376.944 643.871 376.635 641.998L376.073 638.592L380.898 642.603C401.001 659.317 438.032 679.855 454.511 683.431C464.043 685.499 469.164 684.549 476.913 679.274C487.398 672.137 493.086 662.12 500.251 638.177Z" fill="#9F9F9F"/>
<path id="espaldamediatoracica_der" d="M637.114 720.081C658.639 693.948 680.631 662.069 696.722 633.677C702.222 623.972 707.07 616.372 707.494 616.789C707.919 617.206 710.992 626.515 714.323 637.475C721.215 660.15 724.851 667.535 732.616 674.632C740.702 682.022 744.143 683.412 754.222 683.356C761.685 683.316 763.881 682.844 772.222 679.492C793.129 671.089 821.282 653.804 833.972 641.58C838.041 637.661 838.222 637.591 838.218 639.945C838.216 641.297 837.571 646.453 836.785 651.403C835.999 656.353 834.849 664.903 834.23 670.403C831.238 696.978 827.869 714.478 818.058 754.403C814.006 770.897 805.82 809.167 801.772 830.545C800.508 837.223 799.113 843.298 798.672 844.045C793.943 852.053 766.956 879.303 757.242 885.877C748.545 891.763 745.801 892.436 736.062 891.072C721.71 889.063 706.545 880.594 681.222 860.445C635.797 824.302 635.154 823.85 625.762 821.435C622.484 820.593 617.871 819.903 615.512 819.903H611.222L611.239 793.153C611.258 764.65 612.126 756.933 616.212 748.922C619.178 743.11 626.728 732.691 637.114 720.081Z" fill="#9F9F9F"/>
<path id="tendontricepsycodo_izq" d="M293.456 747.093C299.491 739.082 304.655 731.937 304.932 731.215C305.971 728.51 307.196 730.102 309.115 736.653C315.261 757.627 316.429 762.257 317.754 770.903C321.676 796.49 318.484 816.953 302.848 866.464C294.161 893.971 293.055 899.078 292.683 913.403C292.511 920.003 292.338 926.137 292.297 927.035C292.181 929.566 285.521 937.065 276.722 944.57C264.789 954.748 257.637 961.697 254.635 966.028C253.158 968.159 251.561 969.903 251.086 969.903C250.611 969.903 250.222 966.607 250.222 962.579C250.222 954.087 247.817 939.025 245.105 930.538C243.123 924.333 242.809 918.091 243.856 905.706C244.48 898.32 244.54 898.19 247.828 897.001C258.386 893.183 264.925 873.104 268.651 833.066C269.453 824.451 270.609 811.285 271.221 803.807C273.306 778.32 276.969 768.976 293.456 747.093Z" fill="#9F9F9F"/>
<path id="tendontricepsycodo_der" d="M913.191 869.798C892.853 807.175 891.281 786.052 903.792 743.497C905.829 736.57 907.771 730.912 908.109 730.922C909.166 730.955 927.541 754.696 931.415 761.034C936.646 769.593 940.948 780.428 942.182 788.15C942.764 791.793 943.685 802.543 944.23 812.04C946.183 846.093 950.795 873.711 956.361 884.676C959.631 891.12 965.284 896.903 968.311 896.903C972.04 896.903 972.326 920.037 968.76 933.268C966.046 943.337 964.222 956.177 964.222 965.217V971.083L960.038 965.743C954.827 959.091 949.453 953.869 937.342 943.685C922.179 930.937 920.963 928.656 921.881 914.686C922.637 903.182 920.575 892.53 913.191 869.798Z" fill="#9F9F9F"/>
<path id="codolateral_izq" d="M216.485 869.403C221.029 859.227 226.615 842.275 228.85 831.875C229.804 827.434 230.891 824.386 231.265 825.101C231.639 825.817 233.239 832.928 234.82 840.903C237.355 853.694 237.69 857.524 237.661 873.403C237.633 888.914 237.313 892.578 235.35 899.903C230.903 916.496 229.305 918.837 207.494 940.73C199.643 948.61 191.257 957.61 188.859 960.73C177.14 975.973 162.913 1000.97 157.074 1016.57C153.304 1026.64 153.957 1020.82 158.786 1001.31C164.588 977.856 170.658 959.104 177.267 944.205C182.43 932.567 184.942 927.789 202.92 895.403C208.416 885.503 214.52 873.803 216.485 869.403Z" fill="#9F9F9F"/>
<path id="lumbar_izq" d="M538.355 865.727C577.506 833.644 585.518 828.266 596.222 826.888C599.247 826.498 602.086 826.238 602.531 826.311C603.221 826.423 603.609 1054.85 602.921 1055.54C602.422 1056.04 581.08 1044.92 563.364 1034.93C536.577 1019.82 516.871 1011.61 492.088 1005.23C488.312 1004.26 485.222 1003.18 485.222 1002.84C485.222 1002.5 486.613 998.214 488.314 993.313C492.87 980.184 494.224 971.514 494.209 955.565C494.188 933.576 490.347 918.21 481.612 905.185C479.182 901.562 477.313 898.52 477.458 898.425C477.603 898.331 480.647 897.741 484.222 897.114C497.041 894.866 516.722 883.455 538.355 865.727Z" fill="#9F9F9F"/>
<path id="lumbar_der" d="M611.819 1055.17C611.491 1054.84 611.222 1003.11 611.222 940.217V825.865L613.472 826.321C614.709 826.572 617.733 827.051 620.19 827.387C629.117 828.605 636.204 833.226 666.222 857.403C687.289 874.37 698.328 882.444 707.736 887.763C717.629 893.357 729.495 897.903 734.203 897.903C735.864 897.903 737.222 898.083 737.222 898.303C737.222 898.522 735.708 900.952 733.857 903.702C729.552 910.1 724.485 922.269 722.589 930.765C720.483 940.208 719.721 962.582 721.144 973.254C721.792 978.122 723.875 986.447 725.772 991.754C727.669 997.061 729.222 1001.87 729.222 1002.44C729.222 1003.01 726.635 1004.2 723.472 1005.08C689.249 1014.59 674.555 1020.94 641.722 1040.37C626.031 1049.65 612.836 1056.18 611.819 1055.17Z" fill="#9F9F9F"/>
<path id="epicondilo_der" d="M976.467 872.436C976.9 860.402 980.812 832.73 982.903 826.903C983.199 826.078 984.481 829.249 985.752 833.95C989.024 846.05 996.777 867.059 1001.27 875.99C1006.19 885.785 1020.31 911.504 1023.81 917.044C1029.94 926.759 1042.34 953.869 1046.62 966.914C1050.93 980.047 1059.18 1010.79 1060.67 1019.25C1061.13 1021.87 1061.01 1022.89 1060.29 1022.44C1059.7 1022.08 1059.22 1021.33 1059.22 1020.77C1059.22 1018.82 1051.73 1002.33 1045.89 991.403C1035.61 972.194 1026.43 960.195 1005.72 938.902C984.333 916.909 983.068 914.967 978.696 897.436C976.18 887.345 976.001 885.347 976.467 872.436Z" fill="#9F9F9F"/>
<path id="cintura_izq" d="M423.595 906.403C423.556 891.917 421.312 872.016 418.606 862.153C417.49 858.084 419.885 859.771 428.277 868.963C438.228 879.863 449.094 888.73 461.238 895.858C471.192 901.7 474.753 905.51 479.18 915.056C485.241 928.121 486.697 936.364 486.662 957.403C486.632 975.451 486.492 976.82 483.861 984.724C482.337 989.3 480.226 995.061 479.169 997.527L477.247 1002.01L468.985 1001.34C459.289 1000.55 442.46 1002.17 431.463 1004.94C415.108 1009.06 394.531 1019.37 381.308 1030.07C378.023 1032.73 375.13 1034.9 374.881 1034.9C374.309 1034.9 380.044 1019.49 383.81 1010.9C385.378 1007.33 393.132 991.378 401.041 975.459C409.738 957.953 417.044 941.75 419.529 934.459L423.638 922.403L423.595 906.403Z" fill="#9F9F9F"/>
<path id="cintura_der" d="M748.105 899.319C757.273 895.045 768.652 886.37 781.722 873.689C789.422 866.219 795.86 860.699 796.029 861.422C796.199 862.146 795.671 866.038 794.858 870.071C791.592 886.261 791.016 892.801 791.434 908.964C791.993 930.536 790.915 927.571 821.21 990.903C832.324 1014.14 838.206 1027.69 839.605 1033.28L840.326 1036.16L835.763 1032.15C823.667 1021.5 805.31 1011.41 789.123 1006.52C776.657 1002.75 768.37 1001.64 751.788 1001.52L736.853 1001.4L734.952 997.045C728.773 982.874 725.818 959.04 728.108 941.835C730.692 922.418 739.717 903.228 748.105 899.319Z" fill="#9F9F9F"/>
<path id="antebrazomedial_izq" d="M299.198 920.827C299.225 915.717 300.024 914.7 309.222 908.068C312.247 905.887 314.852 904.225 315.011 904.375C315.17 904.525 314.631 908.418 313.813 913.025C312.995 917.633 311.657 925.906 310.84 931.409C309.233 942.231 307.165 949.924 298.609 976.903C287.514 1011.89 281.584 1024.64 256.761 1066.9C254.985 1069.93 250.929 1077.35 247.748 1083.4C244.568 1089.45 236.232 1104.08 229.223 1115.9C207.35 1152.81 203.484 1159.5 202.804 1161.64C202.441 1162.79 201.403 1164.33 200.496 1165.06C199.044 1166.24 198.941 1166.17 199.634 1164.4C201.152 1160.55 211.446 1132.25 216.916 1116.9C227.65 1086.78 238.053 1054.26 240.588 1042.9C242 1036.58 244.756 1021.95 246.712 1010.4C248.668 998.853 250.971 987.603 251.829 985.403C256.231 974.123 266.657 961.867 284.461 947.047C296.036 937.412 299.14 931.889 299.198 920.827Z" fill="#9F9F9F"/>
<path id="antebrazomedial_der" d="M902.724 921.903C901.891 915.028 900.921 908.092 900.568 906.491C899.947 903.671 900.155 903.763 907.086 909.363C914.377 915.254 914.674 915.77 915.651 924.244C916.562 932.155 919.327 936.951 926.712 943.437C941.491 956.415 949.395 964.532 955.195 972.685C962.313 982.692 964.146 988.043 967.684 1009.13C971.14 1029.73 974.634 1044.81 980.264 1063.42C986.329 1083.46 1009.14 1149.52 1013.7 1160.26C1016.4 1166.61 1014.59 1165.58 1011.18 1158.82C1009.44 1155.37 1003.49 1145.08 997.969 1135.97C984.542 1113.82 975.38 1097.98 967.255 1082.9C959.214 1067.98 956.029 1062.23 951.728 1054.9C949.954 1051.88 946.658 1046.25 944.404 1042.4C926.637 1012.05 906.642 954.245 902.724 921.903Z" fill="#9F9F9F"/>
<path id="antebrazoposterior_izq" d="M213.8 943.907C221.543 935.93 229.349 927.234 231.146 924.583C232.944 921.932 234.588 919.936 234.8 920.148C235.012 920.359 236.791 926.797 238.753 934.454C243.325 952.293 244.943 971.27 243.263 987.342C239.552 1022.83 229.192 1062.55 209.204 1117.9C206.92 1124.23 202.198 1137.5 198.71 1147.4C195.223 1157.3 189.159 1174.4 185.236 1185.4C181.313 1196.4 176.526 1209.98 174.599 1215.58L171.094 1225.76L167.408 1225.22C147.486 1222.35 117.598 1209.49 105.472 1198.58C102.556 1195.96 102.631 1194.9 106.143 1189.17C110.123 1182.67 113.477 1173.85 123.534 1143.4C136.551 1104 144.687 1078 149.192 1061.4C154.971 1040.12 161.323 1022.73 169.691 1005.29C181.442 980.81 191.309 967.077 213.8 943.907Z" fill="#9F9F9F"/>
<path id="antebrazoposterior_der" d="M971.479 975.604C970.933 954.983 971.749 948.788 978.327 923.622L979.316 919.842L983.43 925.122C985.693 928.027 993.895 936.928 1001.66 944.903C1023.36 967.201 1033.09 980.982 1045.79 1007.4C1054.51 1025.54 1060.95 1042.83 1065.71 1060.9C1073.14 1089.1 1100.45 1172.07 1106.8 1185.76C1112.33 1197.67 1112.56 1196.98 1100.72 1204.68C1086.17 1214.15 1060.09 1224.24 1047.85 1225.12L1043.98 1225.4L1040.5 1215.9C1038.58 1210.68 1031.7 1191.33 1025.22 1172.9C1018.73 1154.48 1010.64 1131.75 1007.23 1122.4C989.579 1073.94 981.918 1047.42 975.164 1011.4C972.545 997.433 971.888 991.053 971.479 975.604Z" fill="#9F9F9F"/>
<path id="caderaposterioralta_izq" d="M422.318 1015.07C428.739 1012.53 432.055 1011.63 442.722 1009.53C446.971 1008.69 474.067 1008.99 480.691 1009.95C491.091 1011.45 497.429 1014.81 505.644 1023.17C513.32 1030.98 523.814 1045.76 522.519 1046.93C522.08 1047.33 517.222 1048.43 511.722 1049.38C490.751 1052.98 455.456 1066.36 435.722 1078.18C407.368 1095.17 386.027 1117.16 370.087 1145.81C359.658 1164.56 351.208 1185.51 347.708 1201.29C346.618 1206.21 345.671 1208.66 345.194 1207.79C343.247 1204.25 338.949 1174.42 338.463 1161.07C337.968 1147.49 338.088 1146.23 340.759 1137.07C342.309 1131.75 345.34 1123.13 347.495 1117.9C354.131 1101.82 359.666 1085.21 364.802 1065.98L369.722 1047.56L377.222 1041.62C392.938 1029.16 405.678 1021.66 422.318 1015.07Z" fill="#9F9F9F"/>
<path id="caderaposterioralta_der" d="M695.828 1039.88C708.714 1020.3 718.881 1012.37 734.222 1009.91C737.247 1009.43 747.597 1009.17 757.222 1009.35C770.851 1009.6 776.385 1010.12 782.242 1011.69C791.862 1014.27 808.215 1021.46 816.931 1026.95C828.903 1034.48 843.282 1046.11 844.639 1049.36C845.943 1052.48 851.42 1071.15 855.212 1085.4C856.383 1089.8 860.037 1099.89 863.332 1107.81C866.628 1115.74 870.467 1126.09 871.864 1130.81C873.261 1135.54 874.837 1140.75 875.366 1142.4C877.427 1148.83 876.415 1169.58 873.039 1190.11C871.257 1200.95 869.642 1209.66 869.45 1209.47C869.259 1209.27 868.057 1204.91 866.779 1199.76C861.803 1179.72 848.291 1149.74 835.624 1130.64C827.082 1117.76 804.947 1095.32 791.222 1085.63C778.432 1076.59 752.889 1063.98 736.041 1058.39C722.541 1053.91 698.848 1047.94 694.472 1047.92C691.362 1047.9 691.641 1046.24 695.828 1039.88Z" fill="#9F9F9F"/>
<path id="sacro" d="M515.247 1024.41C514.031 1023.32 512.613 1021.63 512.094 1020.66C510.809 1018.26 511.665 1018.38 521.404 1021.96C529.895 1025.08 550.928 1035.72 561.722 1042.36C569.004 1046.84 605.403 1064.9 607.144 1064.9C610.825 1064.9 636.764 1052.09 654.55 1041.49C661.606 1037.29 670.831 1032.12 675.05 1030C682.812 1026.11 701.156 1018.9 703.3 1018.9C703.942 1018.9 701.983 1021.73 698.947 1025.19C693.524 1031.37 685.627 1042.33 682.262 1048.35C674.673 1061.92 664.369 1080.56 658.438 1091.44C649.726 1107.42 636.916 1125.97 630.203 1132.32C624.344 1137.87 615.31 1143.53 610.064 1144.95C606.944 1145.79 605.534 1145.57 601.044 1143.53C585.066 1136.3 571.602 1119.83 552.732 1084.4C539.112 1058.84 520.631 1029.26 515.247 1024.41Z" fill="#9F9F9F"/>
<path id="gluteomayor_der" d="M677.197 1072.4C682.315 1063.05 686.953 1054.83 687.503 1054.13C688.054 1053.43 689.228 1053.08 690.113 1053.36C690.998 1053.63 697.572 1055.18 704.722 1056.8C750.215 1067.09 785.375 1085.71 812.773 1114.02C835.876 1137.89 854.445 1175.16 862.212 1213.26C863.317 1218.69 864.222 1224.43 864.222 1226.03C864.222 1230.39 856.96 1251.48 852.177 1261.01C837.557 1290.15 820.826 1306.84 792.466 1320.59C756.162 1338.18 704.986 1338.68 663.502 1321.84C645.885 1314.69 625.853 1302.22 616.216 1292.4L611.722 1287.82L611.452 1219.92L611.181 1152.02L620.433 1147.24C638.463 1137.93 648.772 1124.34 677.197 1072.4Z" fill="#9F9F9F"/>
<path id="gluteomayor_izq" d="M418.876 1098.35C438.938 1081.68 473.055 1065.89 508.377 1056.92C514.617 1055.33 521.483 1054.12 523.635 1054.22C527.539 1054.4 527.563 1054.43 534.013 1065.9C569.402 1128.85 576.425 1138.4 594.319 1147.93L602.722 1152.4L602.979 1220.03L603.236 1287.66L596.483 1293.98C578.973 1310.36 549.085 1325.23 522.006 1331.04C503.017 1335.11 469.812 1334.57 449.5 1329.86C426.662 1324.57 401.373 1310.96 386.237 1295.82C371.752 1281.34 357.849 1255.86 352.266 1233.58C350.276 1225.64 350.256 1224.94 351.772 1216.85C356.042 1194.06 360.568 1180.21 369.737 1161.9C384.842 1131.74 395.909 1117.42 418.876 1098.35Z" fill="#9F9F9F"/>
<path id="musloposteriorlateral_izq" d="M327.311 1191.9C328.933 1183.93 330.518 1176.58 330.832 1175.58C331.147 1174.57 331.575 1173.92 331.783 1174.13C331.991 1174.34 332.866 1179.21 333.728 1184.96C334.589 1190.7 337.07 1203.65 339.24 1213.72C341.41 1223.8 343.876 1237.97 344.719 1245.22C345.563 1252.47 346.884 1262.23 347.655 1266.9C348.427 1271.58 349.357 1277.65 349.724 1280.4C353.801 1311.02 372.823 1387.61 391.702 1449.4C408.097 1503.07 425.807 1590.78 430.673 1642.4C432.579 1662.62 432.137 1710.13 429.939 1721.4C427.385 1734.5 425.969 1735.97 424.712 1726.83C423.976 1721.48 417.534 1700.08 404.717 1660.4C361.753 1527.41 351.863 1492.46 336.337 1418.8C315.269 1318.83 313.016 1262.19 327.311 1191.9Z" fill="#9F9F9F"/>
<path id="musloposteriorlateral_der" d="M878.201 1201.4C879.298 1196.45 880.714 1188.44 881.348 1183.59C881.981 1178.75 882.848 1175.15 883.273 1175.59C884.647 1177.03 892.116 1219.84 894.32 1238.9C896.41 1256.98 897.307 1295.82 895.879 1306.4C895.582 1308.6 895.096 1313.1 894.799 1316.4C893.435 1331.57 892.967 1336.15 891.683 1346.9C889.067 1368.81 886.097 1386.5 881.609 1406.9C879.129 1418.18 875.981 1432.58 874.614 1438.9C870.707 1456.98 857.964 1506.2 850.798 1530.9C839.368 1570.3 838.236 1574.01 831.247 1594.9C827.477 1606.18 822.966 1620.13 821.224 1625.9C816.332 1642.12 806.562 1672.85 801.197 1688.9C795.464 1706.06 792.978 1714.64 790.7 1725.15C789.777 1729.42 788.651 1732.9 788.199 1732.9C787.747 1732.9 786.922 1731.44 786.365 1729.65C783.157 1719.35 782.722 1713.75 782.735 1682.9C782.75 1648.51 784.113 1632.87 790.301 1596.05C800.194 1537.18 809.533 1496.17 825.515 1441.4C829.688 1427.1 835.829 1405.5 839.162 1393.4C842.495 1381.3 846.135 1368.13 847.252 1364.14C854.75 1337.3 867.472 1271.33 870.246 1244.9C871.292 1234.93 873.763 1221.42 878.201 1201.4Z" fill="#9F9F9F"/>
<path id="manoposterior_izq" d="M66.561 1228.49C77.612 1221.12 89.495 1211.55 94.722 1205.8L98.722 1201.39L105.593 1206.66C121.65 1218.97 145.574 1229.13 164.129 1231.51L169.535 1232.2L168.881 1257.8C168.017 1291.63 168.495 1289.09 155.292 1329.86L149.639 1347.32L140.68 1347.04C134.484 1346.84 130.285 1347.24 127.061 1348.34C123.367 1349.59 121.813 1349.69 119.561 1348.78C118 1348.16 112.222 1347.67 106.722 1347.71C97.727 1347.76 96.119 1347.48 90.722 1344.92C87.084 1343.19 82.163 1341.81 78.222 1341.42C72.461 1340.85 71.267 1340.34 67.722 1336.94C65.522 1334.84 59.692 1331.02 54.767 1328.47C49.842 1325.92 45.661 1323.68 45.477 1323.49C45.293 1323.31 46.516 1319.7 48.194 1315.47C53.776 1301.42 55.295 1294.35 55.272 1282.52C55.248 1270.16 53.423 1264.65 46.613 1256.34C43.277 1252.26 43.044 1251.6 44.188 1249.47C46.711 1244.75 57.918 1234.24 66.561 1228.49Z" fill="#9F9F9F"/>
<path id="manoposterior_der" d="M1050.92 1231.91C1073.17 1227.49 1095 1217.95 1109.38 1206.34C1112.32 1203.98 1115.12 1202.01 1115.62 1201.97C1116.11 1201.93 1120.19 1205.44 1124.7 1209.76C1129.2 1214.09 1137.12 1220.46 1142.3 1223.92C1155.85 1232.98 1158.74 1235.4 1165.83 1243.71L1172.17 1251.15L1168.29 1255.56C1156.24 1269.25 1155.74 1285.08 1166.38 1315.19C1168.09 1320.02 1169.32 1324.1 1169.11 1324.26C1168.9 1324.42 1163.95 1326.86 1158.12 1329.67C1151.6 1332.82 1146.88 1335.77 1145.85 1337.35C1144.4 1339.56 1143.46 1339.9 1138.88 1339.9C1132.81 1339.9 1123.89 1342.3 1120.21 1344.92C1118.32 1346.26 1114.92 1346.86 1106.71 1347.32C1094.9 1347.99 1093.37 1348 1076.88 1347.62L1066.04 1347.37L1064.56 1343.89C1062.63 1339.34 1053.22 1310.57 1053.22 1309.21C1053.22 1308.63 1052.14 1304.84 1050.82 1300.78C1047.43 1290.35 1046.44 1281.6 1045.74 1255.73L1045.12 1233.07L1050.92 1231.91Z" fill="#9F9F9F"/>
<path id="pulgar_izq" d="M25.432 1281.62C28.189 1276.55 32.224 1268.87 34.4 1264.54L38.356 1256.68L40.696 1258.88C45.227 1263.14 49.475 1272.71 49.984 1279.82C50.573 1288.05 49.365 1291.09 41.685 1300.71L35.854 1308.01L33.527 1305.03C32.247 1303.4 28.774 1299.54 25.809 1296.45L20.419 1290.84L25.432 1281.62Z" fill="#9F9F9F"/>
<path id="pulgar_der" d="M1165.15 1274.27C1165.81 1271.66 1168.21 1266.69 1170.5 1263.22C1172.78 1259.74 1175.14 1256.9 1175.74 1256.9C1176.35 1256.9 1180.56 1264.51 1185.12 1273.81L1193.4 1290.71L1189.24 1295.06C1186.95 1297.45 1183.74 1301.32 1182.1 1303.65C1180.47 1305.99 1179 1307.9 1178.85 1307.9C1178.15 1307.9 1168.28 1294.92 1166.79 1292.04C1164.45 1287.5 1163.74 1279.87 1165.15 1274.27Z" fill="#9F9F9F"/>
<path id="isquios_der" d="M841.657 1291.4C849.342 1281.45 853.205 1275.32 857.279 1266.6C859.027 1262.86 860.692 1260.04 860.981 1260.33C862.405 1261.75 850.588 1321.16 842.862 1351.4C836.781 1375.21 822.744 1426.04 815.246 1451.4C805.083 1485.78 795.808 1525.09 788.817 1563.4C777.861 1623.46 774.97 1649.38 775.324 1684.4C775.579 1709.71 776.599 1719.54 780.463 1733.9C784.105 1747.45 784.267 1751.77 781.831 1770.4C780.45 1780.97 780.014 1790.71 780.054 1810.14L780.107 1835.88L776.664 1834.39C774.771 1833.57 771.743 1832.26 769.935 1831.48C763.431 1828.66 742.501 1823.94 731.513 1822.82C703.476 1819.95 672.252 1829.31 650.107 1847.23C646.796 1849.91 643.892 1851.91 643.653 1851.67C642.199 1850.21 638.088 1814.31 637.229 1795.56C636.678 1783.55 636.034 1773.41 635.797 1773.02C635.561 1772.64 634.617 1763.6 633.699 1752.94C631.481 1727.16 632.032 1702.51 635.064 1691.9C640.633 1672.42 644.116 1659.17 654.644 1617.4C660.884 1592.65 668.999 1558.9 672.678 1542.4C682.235 1499.54 690.228 1468.15 697.812 1443.69C714.726 1389.14 718.449 1374.31 720.604 1352.9L721.762 1341.4L736.742 1340.78C761.182 1339.77 780.765 1334.75 801.492 1324.2C818.958 1315.3 830.441 1305.93 841.657 1291.4Z" fill="#9F9F9F"/>
<path id="isquios_izq" d="M370.585 1346.9C364.838 1325.08 359.668 1300.36 355.892 1276.65C354.599 1268.54 353.807 1261.91 354.132 1261.91C354.456 1261.91 356.223 1264.81 358.057 1268.36C371.333 1294.04 388.831 1311.57 413.722 1324.14C433.762 1334.26 454.383 1339.42 479.333 1340.57L492.944 1341.2L493.56 1349.88C493.899 1354.66 495.082 1363.25 496.19 1368.98C498.215 1379.46 508.124 1415.26 514.606 1435.52C523.047 1461.9 529.722 1488.11 545.644 1557.4C556.577 1604.98 561.032 1623.26 568.311 1650.4C573.718 1670.57 575.833 1678.03 578.799 1687.4C581.588 1696.22 581.65 1696.92 581.847 1721.9C581.958 1735.93 581.658 1751.23 581.181 1755.9C580.06 1766.89 579.464 1772.48 578.302 1782.9C577.781 1787.58 577.076 1797.25 576.735 1804.4C576.192 1815.79 573.239 1842.19 571.616 1850.18L571.052 1852.95L565.387 1848.11C538.494 1825.1 499.394 1817.1 461.112 1826.76C451.673 1829.15 443.364 1832 435.722 1835.47C435.068 1835.77 434.709 1825.96 434.683 1807.16C434.65 1782.59 434.325 1776.36 432.448 1764.4L430.252 1750.4L433.216 1738.42C438.019 1719.01 438.667 1712.5 438.696 1683.4C438.733 1645.29 437.38 1630.35 429.819 1585.4C419.476 1523.91 410.788 1487.12 392.272 1426.4C387.798 1411.74 383.643 1396.5 370.585 1346.9Z" fill="#9F9F9F"/>
<path id="pulgar_izq_2" d="M0 1324.32L7.69901 1309.61C11.933 1301.52 15.757 1294.9 16.196 1294.9C17.504 1294.9 32.222 1311.85 32.222 1313.36C32.222 1315.51 22.633 1325.48 18.828 1327.29C13.659 1329.74 5.92901 1329.42 2.66701 1326.61L0 1324.32Z" fill="#9F9F9F"/>
<path id="pulgar_der_2" d="M1182.22 1313.86C1182.22 1311.88 1193.27 1297.56 1196.05 1295.94C1196.97 1295.41 1198.17 1295.1 1198.72 1295.26C1199.27 1295.41 1201.78 1299.56 1204.29 1304.47C1206.8 1309.38 1210.09 1315.52 1211.6 1318.11C1214.56 1323.19 1214.21 1325.77 1210.27 1327.88C1207.38 1329.43 1200.46 1329.11 1196.53 1327.25C1191.69 1324.95 1182.22 1316.09 1182.22 1313.86Z" fill="#9F9F9F"/>
<path id="muslomedialposterior_izq" d="M506.268 1340.64C534.188 1336.72 559.791 1327.84 578.722 1315.51C582.572 1313 586.025 1310.94 586.394 1310.92C588.336 1310.86 592.785 1333.41 594.284 1350.9C595.707 1367.51 595.216 1376.71 590.23 1426.9C584.701 1482.58 583.405 1497.64 582.185 1520.4C580.776 1546.72 580.179 1613.95 581.209 1630.4C582.584 1652.37 583.179 1676.48 582.307 1674.9C581.852 1674.08 580.925 1670.93 580.248 1667.9C579.571 1664.88 577.747 1657.9 576.194 1652.4C568.759 1626.07 559.708 1588.52 547.722 1534.29C537.415 1487.64 531.683 1465.85 517.825 1420.61C506.12 1382.4 501.849 1363.61 501.07 1346.91L500.813 1341.41L506.268 1340.64Z" fill="#9F9F9F"/>
<path id="muslomedialposterior_der" d="M623.137 1412.9C618.666 1373.8 619.883 1337.45 626.392 1315.73C627.023 1313.62 627.913 1311.9 628.37 1311.9C628.827 1311.9 634.268 1314.81 640.461 1318.37C659.316 1329.2 682.819 1337.21 704.411 1340.15C711.045 1341.05 713.245 1341.72 713.315 1342.87C714.215 1357.71 707.528 1387.85 693.896 1430.4C684.706 1459.09 677.624 1486.11 668.207 1528.4C652.983 1596.78 644.68 1630.53 634.262 1666.4L632.229 1673.4L632.76 1654.9C633.051 1644.73 633.495 1634.6 633.746 1632.4C634.695 1624.09 634.947 1579.4 634.187 1554.4C633.323 1525.98 632.175 1507.73 629.188 1474.9L628.286 1464.99C627.445 1455.75 626.607 1446.54 626.185 1441.9C625.61 1435.58 624.238 1422.53 623.137 1412.9Z" fill="#9F9F9F"/>
<path id="dedosposterior_izq" d="M31.788 1365.01C31.312 1364.24 40.479 1331.91 41.763 1329.84C42.34 1328.9 62.404 1339.28 63.537 1341.1C64.038 1341.9 62.224 1347.94 58.819 1356.79C55.776 1364.7 53.141 1371.32 52.963 1371.5C52.786 1371.67 48.834 1370.49 44.181 1368.87C39.529 1367.26 34.961 1365.92 34.031 1365.92C33.101 1365.91 32.092 1365.5 31.788 1365.01Z" fill="#9F9F9F"/>
<path id="dedosposterior_der" d="M1154.25 1351.55C1150.43 1340 1150.03 1340.89 1161.86 1334.35C1166.19 1331.96 1170.3 1329.99 1171 1329.96C1171.7 1329.93 1172.74 1331.14 1173.32 1332.65C1175.97 1339.63 1183.06 1364.36 1182.61 1365.09C1182.33 1365.54 1181.55 1365.9 1180.88 1365.9C1179.7 1365.9 1167.59 1369.82 1163.97 1371.37C1161.89 1372.26 1159.48 1367.34 1154.25 1351.55Z" fill="#9F9F9F"/>
<path id="dedosposterior_der_2" d="M1123.25 1352.28C1123.22 1349.66 1124.68 1348.38 1129.22 1347.08C1131.15 1346.53 1135 1346.04 1137.78 1345.99L1142.85 1345.9L1147.55 1360.65C1154.14 1381.28 1154.32 1379.8 1144.77 1383.16C1140.39 1384.71 1136.15 1385.84 1135.35 1385.69C1133.84 1385.39 1123.32 1356.32 1123.25 1352.28Z" fill="#9F9F9F"/>
<path id="dedosposterior_izq_2" d="M63.593 1373.4C64.929 1370.1 67.451 1362.79 69.199 1357.15C72.76 1345.67 72.135 1346.09 82.158 1348.45C90.063 1350.31 91.398 1351.32 90.571 1354.77C89.381 1359.74 80.984 1385.4 80.304 1386.15C79.548 1386.99 65.415 1382.5 62.819 1380.6C61.298 1379.49 61.361 1378.91 63.593 1373.4Z" fill="#9F9F9F"/>
<path id="dedosposterior_izq_3" d="M125.052 1360.43C126.143 1357.17 127.589 1354.99 129.222 1354.14C131.701 1352.84 145.412 1352.76 146.691 1354.04C147.27 1354.62 142.946 1368.65 141.148 1372.03C140.364 1373.51 139.479 1373.42 131.752 1371.1C122.304 1368.27 122.38 1368.39 125.052 1360.43Z" fill="#9F9F9F"/>
<path id="dedosposterior_der_3" d="M1095.61 1357.23C1095.1 1355.34 1095.59 1354.93 1099.38 1354.07C1101.77 1353.52 1106.64 1353.15 1110.21 1353.24L1116.7 1353.4L1118.44 1363.4C1121.72 1382.19 1121.69 1381.58 1119.41 1382.8C1118.28 1383.4 1114.33 1384.6 1110.64 1385.46C1105.22 1386.72 1103.76 1386.77 1103.12 1385.74C1102.68 1385.03 1100.95 1378.82 1099.26 1371.93C1097.57 1365.04 1095.93 1358.43 1095.61 1357.23Z" fill="#9F9F9F"/>
<path id="dedosposterior_izq_4" d="M94.572 1381.37C94.082 1380.1 96.732 1358.18 97.742 1355.15C98.034 1354.28 100.816 1353.9 106.999 1353.9C119.993 1353.9 119.719 1353.32 115.375 1371.65C112.826 1382.42 111.347 1386.9 110.35 1386.9C107.124 1386.9 95.073 1382.68 94.572 1381.37Z" fill="#9F9F9F"/>
<path id="dedosposterior_der_4" d="M1074.13 1371.8C1072.8 1369.74 1069.17 1359.89 1068.51 1356.58L1067.93 1353.7L1077.49 1354.05C1082.75 1354.25 1087.37 1354.72 1087.75 1355.1C1088.85 1356.2 1091.17 1368.34 1090.41 1368.97C1090.03 1369.28 1086.42 1370.36 1082.37 1371.37C1076.14 1372.92 1074.89 1372.99 1074.13 1371.8Z" fill="#9F9F9F"/>
<path id="dedosposterior_izq_5" d="M22.027 1392.79C22.314 1390.54 27.999 1372.27 28.915 1370.65C29.149 1370.24 29.483 1369.9 29.658 1369.9C31.023 1369.9 49.88 1376.16 50.558 1376.84C51.406 1377.69 43.882 1393.13 40.431 1397.63L38.722 1399.85L30.222 1397.52C22.372 1395.36 21.745 1395 22.027 1392.79Z" fill="#9F9F9F"/>
<path id="dedosposterior_der_5" d="M1164.31 1376.53C1164.54 1376.32 1169 1374.8 1174.22 1373.14C1179.45 1371.48 1184.17 1370.22 1184.71 1370.34C1185.81 1370.59 1187.12 1373.99 1190.11 1384.4C1193.42 1395.9 1193.85 1394.96 1184.26 1397.05C1179.61 1398.06 1175.51 1398.55 1175.15 1398.15C1173.81 1396.62 1163.91 1376.88 1164.31 1376.53Z" fill="#9F9F9F"/>
<path id="dedosposterior_izq_6" d="M118.688 1382.42C119.484 1378.26 120.392 1374.44 120.705 1373.93C121.818 1372.13 139.574 1379.54 138.824 1381.5C138.549 1382.21 137.602 1386.3 136.719 1390.57C135.836 1394.85 135.025 1398.42 134.918 1398.52C134.81 1398.61 131.572 1397.86 127.722 1396.85C123.872 1395.84 119.661 1394.99 118.364 1394.96C116.365 1394.91 116.1 1394.53 116.623 1392.44C116.963 1391.09 117.893 1386.57 118.688 1382.42Z" fill="#9F9F9F"/>
<path id="dedosposterior_der_6" d="M1075.59 1380.2C1075.74 1380.05 1078.99 1378.6 1082.8 1376.99C1093.48 1372.47 1093.54 1372.49 1096.01 1382.15C1097.17 1386.69 1098.42 1391.42 1098.79 1392.65C1099.35 1394.53 1099.07 1394.91 1097.09 1394.96C1095.79 1394.99 1091.57 1395.84 1087.72 1396.85C1083.87 1397.86 1080.56 1398.54 1080.36 1398.35C1079.81 1397.84 1075.27 1380.53 1075.59 1380.2Z" fill="#9F9F9F"/>
<path id="dedosposterior_der_7" d="M1136.5 1392.3C1136.86 1391.93 1140.66 1390.37 1144.94 1388.81C1149.22 1387.26 1153.4 1386.09 1154.22 1386.2C1156.28 1386.5 1163.61 1415.04 1161.9 1416.1C1160.63 1416.89 1151.71 1418.15 1146.34 1418.31C1143.02 1418.4 1142.9 1418.26 1140.58 1411.45C1137.68 1402.92 1135.6 1393.19 1136.5 1392.3Z" fill="#9F9F9F"/>
<path id="dedosposterior_izq_7" d="M52.585 1415.6C51.807 1414.82 57.362 1391.48 58.902 1389.06C60.636 1386.33 63.515 1386.55 72.885 1390.14L78.432 1392.26L77.771 1397.33C76.985 1403.35 74.545 1412.14 72.409 1416.63C71.232 1419.1 70.391 1419.74 68.798 1419.36C67.656 1419.08 63.64 1418.22 59.872 1417.45C56.105 1416.67 52.826 1415.84 52.585 1415.6Z" fill="#9F9F9F"/>
<path id="dedosposterior_izq_8" d="M89.263 1395.7C89.819 1393.66 90.985 1391.28 91.854 1390.41C92.722 1389.55 94.173 1389.04 95.077 1389.28C95.982 1389.53 99.798 1390.31 103.557 1391.02C110.328 1392.29 110.387 1392.33 109.821 1395.16C108.503 1401.75 101.755 1418.9 100.48 1418.9C99.321 1418.9 87.983 1416.39 84.56 1415.38C83.748 1415.14 84.128 1412.69 85.825 1407.22C87.159 1402.92 88.706 1397.74 89.263 1395.7Z" fill="#9F9F9F"/>
<path id="dedosposterior_der_8" d="M1104.22 1393C1104.22 1392.53 1107.49 1391.47 1111.47 1390.64C1122.08 1388.43 1122.97 1388.5 1124.52 1391.65C1126.38 1395.46 1131.68 1414.78 1131.04 1415.42C1130.67 1415.79 1115.17 1418.89 1113.59 1418.9C1113.23 1418.91 1104.22 1394.01 1104.22 1393Z" fill="#9F9F9F"/>
<path id="dedosposterior_der_9" d="M1084.11 1403.86C1085.54 1403.18 1089.2 1401.81 1092.22 1400.82C1095.25 1399.82 1098.06 1398.99 1098.47 1398.96C1099.44 1398.89 1099.43 1422.05 1098.46 1423.5C1097.08 1425.57 1093.77 1426.68 1091.52 1425.84C1088.94 1424.86 1086.99 1421.35 1083.81 1411.97L1081.49 1405.1L1084.11 1403.86Z" fill="#9F9F9F"/>
<path id="dedosposterior_izq_9" d="M116.682 1424.87C115.426 1423.83 115.164 1421.33 115.29 1411.63L115.444 1399.67L119.083 1400.27C123.778 1401.03 131.959 1403.31 132.701 1404.05C133.726 1405.07 128.211 1420.8 125.875 1423.52C123.399 1426.4 119.257 1427.01 116.682 1424.87Z" fill="#9F9F9F"/>
<path id="dedosposterior_izq_10" d="M15.136 1416.38C16.189 1412.54 17.568 1407.45 18.201 1405.05C19.346 1400.73 19.372 1400.71 23.037 1401.37C37.362 1403.93 37.341 1403.89 31.506 1416.04C25.943 1427.63 23.642 1430.25 19.156 1430.12C12.827 1429.94 12.1 1427.46 15.136 1416.38Z" fill="#9F9F9F"/>
<path id="dedosposterior_der_10" d="M1179.87 1404.85C1180.35 1404.38 1183.21 1403.32 1186.23 1402.51C1195.04 1400.14 1194.54 1399.76 1198.16 1411.65C1199.96 1417.57 1201.63 1423.17 1201.88 1424.1C1202.51 1426.5 1198.74 1429.91 1195.47 1429.88C1193.96 1429.87 1191.75 1429.08 1190.57 1428.13C1187.85 1425.95 1178.7 1406.03 1179.87 1404.85Z" fill="#9F9F9F"/>
<path id="dedosposterior_izq_11" d="M78.222 1443.81C78.222 1438.86 80.273 1426.1 81.706 1422.15C82.257 1420.63 82.725 1420.62 89.423 1421.97C94.893 1423.07 100.222 1424.84 100.222 1425.56C100.222 1427.38 95.481 1439.48 93.033 1443.9C88.963 1451.26 87.382 1452.9 84.396 1452.9C80.006 1452.9 78.222 1450.28 78.222 1443.81Z" fill="#9F9F9F"/>
<path id="dedosposterior_der_11" d="M1115.22 1425.95C1115.22 1424.78 1117.79 1423.81 1124.72 1422.36C1128.02 1421.67 1131.15 1421.21 1131.67 1421.32C1133.24 1421.68 1135.24 1430.8 1135.89 1440.54C1136.5 1449.56 1136.47 1449.69 1133.91 1451.37C1130.21 1453.8 1127.72 1452.59 1123.8 1446.45C1120.86 1441.86 1115.22 1428.38 1115.22 1425.95Z" fill="#9F9F9F"/>
<path id="dedosposterior_izq_12" d="M45.237 1450.7C45.224 1447.42 48.492 1428.2 49.839 1423.65C50.422 1421.68 55.495 1421.37 63.052 1422.83C69.601 1424.09 69.834 1424.75 66.691 1433.07C60.027 1450.72 55.459 1457.15 49.593 1457.15C46.382 1457.15 45.257 1455.49 45.237 1450.7Z" fill="#9F9F9F"/>
<path id="dedosposterior_der_12" d="M1146.61 1429.11C1145.06 1424.08 1144.89 1424.21 1154.3 1422.97C1164.76 1421.59 1164.45 1421.41 1166.43 1429.9C1167.39 1434.03 1168.71 1440.88 1169.37 1445.14C1170.46 1452.21 1170.41 1453.04 1168.74 1454.89C1165.74 1458.2 1161.87 1457.48 1157.92 1452.87C1154.58 1448.96 1149.32 1437.91 1146.61 1429.11Z" fill="#9F9F9F"/>
<path id="pantorrillaposterior_der" d="M666.222 1844.1C679.194 1836.83 697.053 1831.29 711.442 1830.08C728.483 1828.64 747.734 1831.06 760.848 1836.28C764.079 1837.57 769.985 1839.85 773.972 1841.35L781.222 1844.08V1851.42C781.222 1859.39 784.441 1886.06 786.697 1896.78C791.809 1921.09 795.28 1960.59 795.256 1994.2C795.234 2026.25 791.738 2058.48 785.302 2085.98C777.448 2119.55 760.903 2183.99 759.597 2186.11C759.314 2186.56 755.94 2184.07 752.1 2180.57C748.259 2177.06 742.315 2172.78 738.891 2171.06C714.255 2158.68 677.033 2162.59 654.368 2179.93C651.424 2182.19 648.898 2183.89 648.754 2183.72C648.611 2183.54 648.203 2176.88 647.847 2168.9C647.492 2160.93 646.082 2144.5 644.715 2132.4C638.841 2080.43 637.001 2056.83 636.685 2029.4C636.514 2014.55 636.775 1997.68 637.266 1991.9C638.329 1979.4 642.738 1943.87 644.712 1931.9C648.288 1910.23 649.182 1881.19 646.679 1867.99C645.83 1863.51 645.383 1859.45 645.687 1858.96C646.701 1857.32 660.655 1847.22 666.222 1844.1Z" fill="#9F9F9F"/>
<path id="pantorrillaposterior_izq" d="M438.972 1842.15C449.449 1837.73 461.906 1833.59 470.09 1831.81C477.087 1830.29 481.847 1830 495.222 1830.28C515.075 1830.71 525.705 1833.1 541.559 1840.71C550.708 1845.11 565.94 1855.3 568.851 1858.98C569.7 1860.05 569.519 1862.63 568.118 1869.4C567.093 1874.35 566.245 1880.65 566.232 1883.4C566.181 1893.94 568.506 1917.43 573.605 1957.9C578.673 1998.13 579.768 2027.11 577.33 2056.4C575.401 2079.58 573.29 2103.03 570.756 2129.4C569.435 2143.15 568.069 2160.48 567.719 2167.9C567.369 2175.33 566.724 2181.77 566.286 2182.22C565.848 2182.67 562.392 2181.04 558.606 2178.6C542.223 2168.05 531.98 2164.86 512.222 2164.16C500.853 2163.76 496.318 2164 491.222 2165.28C481.472 2167.71 469.163 2174.3 461.822 2181.03L455.39 2186.93L453.857 2182.16C452.51 2177.98 446.796 2156.15 435.597 2112.4C429.572 2088.87 424.231 2060.95 421.534 2038.9C420.153 2027.61 419.762 2016.88 419.768 1990.4C419.777 1952.7 421.447 1932.5 427.187 1900.67C431.314 1877.78 434.124 1856 434.204 1846.28C434.218 1844.69 435.438 1843.64 438.972 1842.15Z" fill="#9F9F9F"/>
<path id="aquiles_izq" d="M466.226 2186.52C471.883 2180.38 486.152 2173.28 496.222 2171.59C502.291 2170.58 519.673 2171.03 526.022 2172.36C535.503 2174.36 545.462 2178.22 553.222 2182.93C564.717 2189.9 564.018 2188.08 560.429 2201.63C551.587 2235.03 544.861 2276.61 542.156 2314.61C541.538 2323.3 540.948 2342.55 540.844 2357.4C540.74 2372.25 540.307 2384.97 539.88 2385.65C538.941 2387.17 524.649 2387.4 523.733 2385.92C523.4 2385.38 522.245 2378.97 521.167 2371.67C510.558 2299.85 485.836 2220.84 466.204 2196L462.178 2190.91L466.226 2186.52Z" fill="#9F9F9F"/>
<path id="aquiles_der" d="M654.785 2187.37C662.013 2181.45 679.936 2173.77 690.722 2171.97C698.24 2170.72 715.714 2170.75 721.029 2172.03C729.273 2174.02 741.843 2180.47 747.169 2185.45C749.948 2188.05 752.222 2190.54 752.222 2190.99C752.222 2191.43 749.894 2194.86 747.049 2198.6C744.204 2202.34 739.083 2211.25 735.669 2218.4C724.929 2240.9 718.514 2260.18 707.74 2302.34C700.671 2330 697.434 2345.84 694.24 2368.4C693.072 2376.65 691.885 2384.19 691.602 2385.15C691.178 2386.6 689.904 2386.9 684.346 2386.9C680.475 2386.9 676.921 2386.37 676 2385.65C674.599 2384.56 674.332 2379.96 673.899 2349.4C673.392 2313.65 672.518 2301.94 667.706 2266.4C664.889 2245.61 661.881 2230.21 656.02 2206.59L651.847 2189.78L654.785 2187.37Z" fill="#9F9F9F"/>
<path id="pantorrillalateralbaja_der" d="M713.658 2304.87C724.773 2260.26 738.643 2223.01 751.612 2202.97C755.989 2196.2 758.222 2194.29 758.222 2197.31C758.222 2198.08 755.683 2207.2 752.58 2217.56C749.477 2227.92 745.929 2240 744.696 2244.4C743.463 2248.8 739.954 2261.02 736.898 2271.56C730.764 2292.71 728.4 2303.12 727.509 2312.9C727.184 2316.48 726.616 2319.63 726.247 2319.9C725.879 2320.18 723.462 2323.02 720.877 2326.22C715.381 2333.02 709.589 2344.15 705.683 2355.4C702.895 2363.44 701.222 2366.61 701.222 2363.85C701.222 2361.19 710.004 2319.54 713.658 2304.87Z" fill="#9F9F9F"/>
<path id="pantorrillalateralbaja_izq" d="M459.583 2208.14C458.245 2203.6 456.893 2199.21 456.579 2198.39C455.503 2195.59 458.054 2196.9 460.964 2200.65C464.15 2204.76 469.821 2214.07 473.046 2220.5C484.433 2243.17 503.535 2307.75 510.537 2347.24C513.06 2361.46 512.881 2363.1 509.756 2354.4C506.677 2345.83 500.479 2334.7 494.733 2327.4C491.699 2323.55 489.047 2319.95 488.84 2319.4C488.633 2318.85 487.754 2313.66 486.887 2307.86C485.1 2295.92 479.031 2273.24 465.759 2228.9C463.701 2222.03 460.922 2212.69 459.583 2208.14Z" fill="#9F9F9F"/>
<path id="pantorrillamaedialbaja_izq" d="M548.74 2312.4C550.961 2287.12 553.738 2267.01 558.716 2240.15C559.658 2235.07 560.846 2230.9 561.355 2230.9C562.261 2230.9 562.09 2233.88 560.152 2251.9C558.918 2263.38 558.981 2292.49 560.262 2302.93C560.834 2307.59 562.429 2316.16 563.805 2321.97L566.308 2332.53L563.329 2340.61C559.534 2350.9 549.254 2373.77 548.1 2374.48C546.662 2375.37 547.122 2330.82 548.74 2312.4Z" fill="#9F9F9F"/>
<path id="pantorrillamaedialbaja_der" d="M655.209 2299.9C656.441 2291.38 655.644 2254.2 653.95 2241.15C653.218 2235.52 652.95 2230.9 653.353 2230.9C655.449 2230.9 661.709 2265.84 664.731 2294.4C667.745 2322.9 669.445 2372.9 667.399 2372.9C666.198 2372.9 660.538 2360.38 654.13 2343.54L648.904 2329.81L651.587 2318.11C653.063 2311.67 654.693 2303.48 655.209 2299.9Z" fill="#9F9F9F"/>
<path id="maleololateral_der" d="M704.114 2376.84C710.344 2358.77 719.119 2338.76 723.591 2332.41C724.996 2330.42 725.777 2329.92 725.935 2330.91C727.128 2338.45 729.217 2364.42 729.199 2371.49C729.162 2386.03 727.413 2404.34 725.134 2414.05C723.112 2422.66 723.082 2424.23 724.765 2433.4C725.928 2439.74 729.465 2454.63 731.011 2459.72C732.902 2465.93 732.317 2466.75 725.722 2467.07C709.481 2467.86 703.458 2462.14 698.575 2441.31C695.948 2430.1 695.842 2394.7 698.425 2390.9C699.362 2389.52 701.922 2383.2 704.114 2376.84Z" fill="#9F9F9F"/>
<path id="maleololateral_izq" d="M488.746 2340.4C488.926 2339.3 489.107 2336.66 489.148 2334.53C489.213 2331.14 489.416 2330.82 490.78 2331.95C494.662 2335.17 502.178 2351.79 510.66 2375.9C513.272 2383.33 516.062 2390.43 516.859 2391.68C520.363 2397.2 519.234 2434.18 515.159 2447.37C512.763 2455.13 506.724 2463.88 502.205 2466.15C495.512 2469.51 481.07 2467.3 482.692 2463.16C483.071 2462.19 484.954 2455.33 486.876 2447.9C491.548 2429.86 491.993 2423.08 489.374 2409.9C484.623 2386 484.448 2366.64 488.746 2340.4Z" fill="#9F9F9F"/>
<path id="maleolomedial_der" d="M641.99 2361.9C642.554 2358.33 643.796 2352.72 644.75 2349.45L646.484 2343.49L649.238 2348.95C650.752 2351.95 654.121 2359.58 656.723 2365.9C659.325 2372.23 662.767 2380.01 664.372 2383.19C665.978 2386.38 667.052 2389.37 666.761 2389.84C666.469 2390.31 665.752 2394.23 665.167 2398.55C663.238 2412.8 656.468 2439.01 654.386 2440.3C654.012 2440.53 652.089 2441.02 650.112 2441.4L646.517 2442.07L645.881 2424.74C645.532 2415.2 644.572 2404.03 643.749 2399.9C641.666 2389.46 640.753 2369.74 641.99 2361.9Z" fill="#9F9F9F"/>
<path id="maleolomedial_izq" d="M549.3 2385.53C551.671 2382.52 560.609 2363.75 564.724 2353.15C566.272 2349.17 567.854 2345.9 568.241 2345.9C570.028 2345.9 572.436 2358.3 572.941 2370.1C573.351 2379.7 573.028 2385.8 571.616 2395.1C570.347 2403.46 569.744 2412.93 569.735 2424.65C569.721 2443.62 570.101 2442.63 563.374 2441.28C560.71 2440.75 559.981 2439.88 558.173 2435.04C555.467 2427.81 552.781 2416.41 550.299 2401.64C549.212 2395.17 548.082 2389.49 547.786 2389.01C547.491 2388.53 548.172 2386.97 549.3 2385.53Z" fill="#9F9F9F"/>
<path id="aquilesdistal_izq" d="M524.05 2392.99L531.886 2392.65C536.196 2392.46 540.299 2392.21 541.003 2392.1C542.572 2391.86 542.469 2391.48 545.214 2407.4C547.155 2418.66 550.522 2432.38 552.758 2438.15C553.365 2439.72 552.684 2439.9 546.223 2439.9C538.453 2439.9 528.193 2442.1 524.325 2444.6L521.928 2446.14L522.584 2442.04C524.516 2429.96 525.315 2416.16 524.717 2405.2L524.05 2392.99Z" fill="#9F9F9F"/>
<path id="aquilesdistal_der" d="M666.133 2422.9C668.274 2414.38 670.589 2403.87 671.278 2399.55L672.531 2391.69L676.126 2392.29C678.104 2392.61 682.358 2392.89 685.58 2392.89C691.34 2392.9 691.428 2392.95 690.806 2395.42C689.528 2400.52 690.108 2428.31 691.661 2436.33C692.504 2440.7 692.989 2444.47 692.739 2444.72C692.488 2444.97 689.907 2444.15 687.002 2442.89C683.134 2441.21 679.114 2440.47 671.972 2440.12C666.61 2439.85 662.226 2439.36 662.232 2439.02C662.237 2438.68 663.993 2431.43 666.133 2422.9Z" fill="#9F9F9F"/>
<path id="calcaneoposterior_izq" d="M523.441 2452.13C526.664 2450.18 534.295 2447.48 539.222 2446.53C544.5 2445.52 567.977 2448.4 571.332 2450.47C571.676 2450.68 572.516 2455.93 573.199 2462.13C573.882 2468.33 574.615 2474.3 574.829 2475.4C579.074 2497.25 582.638 2524.05 582.677 2534.4C582.72 2545.9 582.598 2546.63 579.722 2551.82C574.391 2561.46 564.17 2566.69 546.192 2568.99C536.536 2570.22 527.662 2569.62 514.722 2566.84C502.215 2564.16 500.829 2563.43 497.914 2558.08C491.443 2546.19 489.982 2533.18 492.939 2513.77C493.724 2508.62 494.193 2500.76 493.982 2496.31C493.597 2488.22 492.746 2485.94 486.478 2476.21C485.069 2474.02 485.086 2474.01 492.393 2474.01C503.871 2474.01 508.493 2471.28 516.164 2459.99C518.362 2456.75 521.636 2453.22 523.441 2452.13Z" fill="#9F9F9F"/>
<path id="calcaneoposterior_der" d="M643.922 2450.89C644.617 2450.26 653.736 2447.76 659.722 2446.54C667.547 2444.95 680.894 2446.75 688.737 2450.46C693.553 2452.73 694.799 2454.06 703.88 2466.55C707.414 2471.41 713.556 2473.9 722.019 2473.9H729.184L725.529 2480.55C720.879 2489.01 720.205 2497.25 722.72 2514.89C724.971 2530.67 724.395 2540.94 720.72 2550.58C716.672 2561.2 714.318 2563.45 704.722 2565.86C692.162 2569.01 679.615 2570.08 668.972 2568.9C650.522 2566.86 641.069 2561.82 635.49 2551.04C632.422 2545.11 632.222 2544.1 632.222 2534.47C632.222 2527.78 633.255 2517.99 635.193 2506.31C636.827 2496.46 639.279 2480.12 640.643 2470C642.006 2459.88 643.482 2451.28 643.922 2450.89Z" fill="#9F9F9F"/>
<path id="pielateralposterior_izq" d="M460.636 2507.5C464.865 2501.12 470.585 2491.33 473.349 2485.75L478.372 2475.58L480.348 2478.49C487.581 2489.15 488.982 2496.26 486.829 2511.4C486.046 2516.9 485.524 2526.35 485.668 2532.4C485.889 2541.68 486.414 2544.8 489.03 2552.37C490.735 2557.29 491.991 2561.47 491.821 2561.64C491.016 2562.44 472.941 2552.39 466.752 2547.69C457.568 2540.72 454.317 2535.42 453.54 2526.16L452.948 2519.09L460.636 2507.5Z" fill="#9F9F9F"/>
<path id="pielateralposterior_der" d="M728.268 2489.22C728.843 2487.67 730.755 2484.27 732.518 2481.66C734.28 2479.04 736.048 2476.91 736.447 2476.91C737.138 2476.9 739.216 2481.06 742.536 2489.08C743.976 2492.56 745.43 2494.85 756.576 2511.23C760.924 2517.62 761.222 2518.48 761.222 2524.54C761.222 2533.54 757.632 2540.75 750.222 2546.64C744.57 2551.13 725.484 2561.18 724.158 2560.36C723.75 2560.11 724.791 2556.64 726.473 2552.65C729.157 2546.29 729.586 2543.94 729.992 2533.4C730.322 2524.84 729.992 2518.94 728.839 2512.83C726.984 2502.99 726.75 2493.3 728.268 2489.22Z" fill="#9F9F9F"/>
</g>
</svg>
